<svg xmlns="http://www.w3.org/2000/svg" fill="none" viewBox="0 0 102 93">
  <style>
    rect {
      width: 2px;
      height: 2px;
      rx: 1;
      fill: #000005
    }

    g rect {
      fill: #CC2028
    }
  </style>
  <rect x="99" y="15" />
  <rect x="48" y="75" />
  <rect y="15" />
  <rect x="51" y="75" />
  <rect x="3" y="15" />
  <rect x="54" y="75" />
  <rect x="6" y="15" />
  <rect x="57" y="75" />
  <rect x="9" y="15" />
  <rect x="60" y="75" />
  <rect x="12" y="15" />
  <rect x="63" y="75" />
  <rect x="15" y="15" />
  <rect x="66" y="75" />
  <rect x="15" y="12" />
  <rect x="66" y="72" />
  <rect x="15" y="18" />
  <rect x="66" y="78" />
  <rect x="18" y="15" />
  <rect x="69" y="75" />
  <rect x="21" y="15" />
  <rect x="72" y="75" />
  <rect x="24" y="15" />
  <rect x="75" y="75" />
  <rect x="27" y="15" />
  <rect x="78" y="75" />
  <rect x="27" y="12" />
  <rect x="78" y="72" />
  <rect x="27" y="18" />
  <rect x="78" y="78" />
  <rect x="24" y="21" />
  <rect x="75" y="81" />
  <rect x="12" y="21" />
  <rect x="63" y="81" />
  <rect x="36" y="21" />
  <rect x="87" y="81" />
  <rect x="24" y="24" />
  <rect x="75" y="84" />
  <rect x="12" y="24" />
  <rect x="63" y="84" />
  <rect x="36" y="24" />
  <rect x="87" y="84" />
  <rect x="21" y="21" />
  <rect x="72" y="81" />
  <rect x="9" y="21" />
  <rect x="60" y="81" />
  <rect x="33" y="21" />
  <rect x="84" y="81" />
  <rect x="21" y="24" />
  <rect x="72" y="84" />
  <rect x="9" y="24" />
  <rect x="60" y="84" />
  <rect x="33" y="24" />
  <rect x="84" y="84" />
  <rect x="21" y="27" />
  <rect x="72" y="87" />
  <rect x="9" y="27" />
  <rect x="60" y="87" />
  <rect x="33" y="27" />
  <rect x="84" y="87" />
  <rect x="18" y="24" />
  <rect x="69" y="84" />
  <rect x="6" y="24" />
  <rect x="57" y="84" />
  <rect x="30" y="24" />
  <rect x="81" y="84" />
  <rect x="18" y="27" />
  <rect x="69" y="87" />
  <rect x="6" y="27" />
  <rect x="57" y="87" />
  <rect x="30" y="27" />
  <rect x="81" y="87" />
  <rect x="18" y="30" />
  <rect x="69" y="90" />
  <rect x="6" y="30" />
  <rect x="57" y="90" />
  <rect x="30" y="30" />
  <rect x="81" y="90" />
  <rect x="30" y="15" />
  <rect x="81" y="75" />
  <rect x="33" y="15" />
  <rect x="84" y="75" />
  <rect x="36" y="15" />
  <rect x="87" y="75" />
  <rect x="39" y="15" />
  <rect x="90" y="75" />
  <rect x="39" y="18" />
  <rect x="90" y="78" />
  <rect x="42" y="18" />
  <rect x="93" y="78" />
  <rect x="93" y="81" />
  <rect x="45" y="21" />
  <rect x="96" y="81" />
  <rect x="96" y="84" />
  <rect x="48" y="24" />
  <rect x="99" y="81" />
  <rect x="96" y="78" />
  <rect x="51" y="27" />
  <rect x="51" y="30" />
  <rect x="51" y="33" />
  <rect x="51" y="36" />
  <rect x="48" y="36" />
  <rect x="45" y="36" />
  <rect x="42" y="36" />
  <rect x="39" y="36" />
  <rect x="36" y="36" />
  <rect x="33" y="36" />
  <rect x="30" y="36" />
  <rect x="27" y="36" />
  <rect x="24" y="36" />
  <rect x="21" y="36" />
  <rect x="18" y="36" />
  <rect x="15" y="39" />
  <rect x="12" y="42" />
  <g>
    <rect x="24" y="42" />
    <rect x="24" y="45" />
    <rect x="24" y="48" />
    <rect x="21" y="45" />
    <rect x="21" y="48" />
    <rect x="18" y="51" />
    <rect x="15" y="54" />
    <rect x="15" y="57" />
    <rect x="18" y="54" />
    <rect x="15" y="51" />
    <rect x="12" y="54" />
    <rect x="12" y="51" />
    <rect x="12" y="57" />
    <rect x="12" y="60" />
    <rect x="12" y="63" />
    <rect x="12" y="66" />
    <rect x="15" y="63" />
    <rect x="15" y="66" />
    <rect x="18" y="66" />
    <rect x="18" y="69" />
    <rect x="21" y="69" />
    <rect x="21" y="72" />
    <rect x="6" y="72" />
    <rect x="6" y="75" />
    <rect x="9" y="75" />
    <rect x="12" y="75" />
    <rect x="12" y="78" />
    <rect x="15" y="75" />
    <rect x="15" y="78" />
    <rect x="15" y="81" />
    <rect x="15" y="84" />
    <rect x="9" y="81" />
    <rect x="9" y="84" />
    <rect x="9" y="87" />
    <rect x="6" y="81" />
    <rect x="6" y="84" />
    <rect x="3" y="81" />
    <rect x="18" y="84" />
    <rect x="15" y="87" />
    <rect x="18" y="87" />
    <rect x="24" y="72" />
    <rect x="27" y="75" />
    <rect x="21" y="75" />
    <rect x="24" y="75" />
    <rect x="27" y="78" />
    <rect x="30" y="78" />
    <rect x="33" y="78" />
    <rect x="33" y="81" />
    <rect x="33" y="75" />
    <rect x="36" y="78" />
    <rect x="36" y="75" />
    <rect x="36" y="72" />
    <rect x="39" y="75" />
    <rect x="39" y="72" />
    <rect x="39" y="69" />
    <rect x="42" y="66" />
    <rect x="42" y="63" />
    <rect x="42" y="60" />
    <rect x="39" y="57" />
    <rect x="33" y="51" />
    <rect x="42" y="69" />
    <rect x="45" y="66" />
    <rect x="45" y="63" />
    <rect x="45" y="60" />
    <rect x="42" y="57" />
    <rect x="36" y="51" />
    <rect x="36" y="54" />
    <rect x="27" y="54" />
    <rect x="30" y="57" />
    <rect x="33" y="60" />
    <rect x="36" y="63" />
    <rect x="24" y="57" />
    <rect x="27" y="60" />
    <rect x="30" y="63" />
    <rect x="33" y="66" />
    <rect x="21" y="60" />
    <rect x="24" y="63" />
    <rect x="27" y="66" />
    <rect x="30" y="69" />
    <rect x="45" y="69" />
    <rect x="48" y="66" />
    <rect x="48" y="63" />
    <rect x="48" y="60" />
    <rect x="45" y="57" />
    <rect x="39" y="51" />
    <rect x="42" y="48" />
    <rect x="39" y="45" />
    <rect x="42" y="45" />
    <rect x="45" y="45" />
    <rect x="48" y="42" />
    <rect x="51" y="39" />
    <rect x="63" y="39" />
    <rect x="66" y="39" />
    <rect x="69" y="39" />
    <rect x="63" y="36" />
    <rect x="66" y="36" />
    <rect x="69" y="36" />
    <rect x="63" y="33" />
    <rect x="60" y="33" />
    <rect x="60" y="27" />
    <rect x="66" y="33" />
    <rect x="63" y="30" />
    <rect x="63" y="27" />
    <rect x="66" y="27" />
    <rect x="72" y="30" />
    <rect x="75" y="27" />
    <rect x="78" y="24" />
    <rect x="81" y="21" />
    <rect x="75" y="33" />
    <rect x="78" y="30" />
    <rect x="81" y="27" />
    <rect x="84" y="24" />
    <rect x="78" y="36" />
    <rect x="81" y="33" />
    <rect x="84" y="30" />
    <rect x="87" y="27" />
    <rect x="69" y="24" />
    <rect x="72" y="21" />
    <rect x="75" y="18" />
    <rect x="78" y="15" />
    <rect x="63" y="24" />
    <rect x="66" y="24" />
    <rect x="69" y="21" />
    <rect x="72" y="18" />
    <rect x="75" y="15" />
    <rect x="78" y="12" />
    <rect x="81" y="12" />
    <rect x="84" y="12" />
    <rect x="84" y="15" />
    <rect x="87" y="12" />
    <rect x="87" y="15" />
    <rect x="87" y="18" />
    <rect x="90" y="12" />
    <rect x="90" y="15" />
    <rect x="90" y="18" />
    <rect x="93" y="21" />
    <rect x="93" y="24" />
    <rect x="93" y="27" />
    <rect x="93" y="30" />
    <rect x="93" y="33" />
    <rect x="90" y="33" />
    <rect x="87" y="36" />
    <rect x="90" y="39" />
    <rect x="93" y="42" />
    <rect x="96" y="39" />
    <rect x="96" y="42" />
    <rect x="96" y="45" />
    <rect x="99" y="48" />
    <rect y="51" />
    <rect x="93" y="45" />
    <rect x="90" y="45" />
    <rect x="87" y="39" />
    <rect x="84" y="39" />
    <rect x="84" y="42" />
    <rect x="84" y="45" />
    <rect x="81" y="42" />
    <rect x="81" y="45" />
    <rect x="81" y="48" />
    <rect x="78" y="42" />
    <rect x="78" y="45" />
    <rect x="78" y="48" />
    <rect x="75" y="42" />
    <rect x="75" y="45" />
    <rect x="75" y="48" />
    <rect x="72" y="42" />
    <rect x="72" y="45" />
    <rect x="90" y="36" />
    <rect x="96" y="21" />
    <rect x="96" y="24" />
    <rect x="99" y="24" />
    <rect x="96" y="27" />
    <rect x="99" y="27" />
    <rect x="96" y="30" />
    <rect x="99" y="30" />
    <rect x="96" y="33" />
    <rect x="63" y="21" />
    <rect x="66" y="21" />
    <rect x="69" y="18" />
    <rect x="72" y="15" />
    <rect x="75" y="12" />
    <rect x="78" y="9" />
    <rect x="84" y="9" />
    <rect x="72" y="12" />
    <rect x="66" y="15" />
    <rect x="66" y="12" />
    <rect x="66" y="9" />
    <rect x="66" y="6" />
    <rect x="69" y="6" />
    <rect x="66" y="3" />
    <rect x="69" y="3" />
    <rect x="63" y="15" />
    <rect x="60" y="15" />
    <rect x="57" y="15" />
    <rect x="57" y="18" />
    <rect x="54" y="15" />
    <rect x="54" y="9" />
    <rect x="57" y="9" />
    <rect x="57" y="6" />
    <rect x="60" y="9" />
    <rect x="60" y="6" />
    <rect x="60" y="3" />
    <rect x="54" y="18" />
    <rect x="45" y="48" />
    <rect x="45" y="51" />
    <rect x="39" y="54" />
    <rect x="21" y="78" />
    <rect x="24" y="78" />
    <rect x="27" y="81" />
    <rect x="18" y="72" />
    <rect x="3" y="72" />
    <rect x="3" y="75" />
    <rect x="9" y="63" />
    <rect x="9" y="57" />
    <rect x="27" y="42" />
    <rect x="27" y="45" />
    <rect x="27" y="48" />
    <rect x="30" y="42" />
    <rect x="30" y="45" />
    <rect x="30" y="48" />
    <rect x="33" y="45" />
    <rect x="33" y="48" />
  </g>
  <rect x="9" y="45" />
  <rect x="6" y="48" />
  <rect x="3" y="51" />
  <rect y="54" />
  <rect y="57" />
  <rect y="60" />
  <rect y="63" />
  <rect x="39" y="12" />
  <rect x="90" y="72" />
  <rect x="42" y="9" />
  <rect x="42" y="12" />
  <rect x="93" y="72" />
  <rect x="45" y="9" />
  <rect x="96" y="69" />
  <rect x="99" y="66" />
  <rect x="99" y="54" />
  <rect x="96" y="54" />
  <rect x="93" y="54" />
  <rect x="90" y="54" />
  <rect x="87" y="54" />
  <rect x="84" y="54" />
  <rect x="81" y="54" />
  <rect x="78" y="54" />
  <rect x="75" y="54" />
  <rect x="72" y="54" />
  <rect x="69" y="54" />
  <rect x="66" y="51" />
  <rect x="63" y="48" />
  <rect x="60" y="45" />
  <rect x="57" y="42" />
  <rect x="54" y="39" />
  <rect x="45" y="6" />
  <rect x="45" y="12" />
  <rect x="48" y="9" />
  <rect y="18" />
  <rect x="51" y="78" />
  <rect x="3" y="18" />
  <rect x="54" y="78" />
  <rect y="12" />
  <rect x="51" y="72" />
  <rect x="3" y="12" />
  <rect x="54" y="72" />
  <rect x="6" />
  <rect x="57" y="60" />
  <rect x="18" />
  <rect x="69" y="60" />
  <rect x="30" />
  <rect x="81" y="60" />
  <rect x="6" y="3" />
  <rect x="57" y="63" />
  <rect x="18" y="3" />
  <rect x="69" y="63" />
  <rect x="30" y="3" />
  <rect x="81" y="63" />
  <rect x="9" y="3" />
  <rect x="60" y="63" />
  <rect x="21" y="3" />
  <rect x="72" y="63" />
  <rect x="33" y="3" />
  <rect x="84" y="63" />
  <rect x="6" y="6" />
  <rect x="57" y="66" />
  <rect x="18" y="6" />
  <rect x="69" y="66" />
  <rect x="30" y="6" />
  <rect x="81" y="66" />
  <rect x="9" y="6" />
  <rect x="60" y="66" />
  <rect x="21" y="6" />
  <rect x="72" y="66" />
  <rect x="33" y="6" />
  <rect x="84" y="66" />
  <rect x="12" y="6" />
  <rect x="63" y="66" />
  <rect x="24" y="6" />
  <rect x="75" y="66" />
  <rect x="36" y="6" />
  <rect x="87" y="66" />
  <rect x="9" y="9" />
  <rect x="60" y="69" />
  <rect x="21" y="9" />
  <rect x="72" y="69" />
  <rect x="33" y="9" />
  <rect x="84" y="69" />
  <rect x="12" y="9" />
  <rect x="63" y="69" />
  <rect x="24" y="9" />
  <rect x="75" y="69" />
  <rect x="36" y="9" />
  <rect x="87" y="69" />
</svg>