<?xml version="1.0" encoding="UTF-8"?>
<svg xmlns="http://www.w3.org/2000/svg">
  <symbol id="btc" viewBox="0 0 25 24" fill="none" stroke="currentColor" stroke-width="2">
    <path d="M8.5 5L8.5 19" />
    <path fill-rule="evenodd" clip-rule="evenodd"
      d="M13.5 11V13C15.7091 13 17.5 11.2091 17.5 9C17.5 6.79086 15.7091 5 13.5 5V7C14.6046 7 15.5 7.89543 15.5 9C15.5 10.1046 14.6046 11 13.5 11Z"
      fill="currentColor" stroke-width="0" />
    <path fill-rule="evenodd" clip-rule="evenodd"
      d="M14.5 17V19C16.7091 19 18.5 17.2091 18.5 15C18.5 12.7909 16.7091 11 14.5 11V13C15.6046 13 16.5 13.8954 16.5 15C16.5 16.1046 15.6046 17 14.5 17Z"
      fill="currentColor" stroke-width="0" />
    <path d="M15.5 12H8.5" />
    <path d="M14.5 18H8.5" />
    <path d="M13.5 6H8.5" />
    <path fill-rule="evenodd" clip-rule="evenodd"
      d="M11.5 2V6H9.5V2H11.5ZM14.5 2V6H12.5V2H14.5ZM11.5 18V22H9.5V18H11.5ZM14.5 18V22H12.5V18H14.5Z"
      fill="currentColor" stroke-width="0" />
  </symbol>

  <symbol id="eth" viewBox="0 0 24 24">
    <path d="M12 3L6 10L12 13L18 10L12 3Z" fill="none" stroke="currentColor" stroke-width="2" />
    <path
      d="M5 13L5.44721 12.1056L4.24742 13.6585L5 13ZM12 21L11.2474 21.6585L12 22.5186L12.7526 21.6585L12 21ZM19 13L19.7526 13.6585L18.5528 12.1056L19 13ZM12 16.5L11.5528 17.3944L12 17.618L12.4472 17.3944L12 16.5ZM4.24742 13.6585L11.2474 21.6585L12.7526 20.3415L5.75258 12.3415L4.24742 13.6585ZM12.7526 21.6585L19.7526 13.6585L18.2474 12.3415L11.2474 20.3415L12.7526 21.6585ZM18.5528 12.1056L11.5528 15.6056L12.4472 17.3944L19.4472 13.8944L18.5528 12.1056ZM12.4472 15.6056L5.44721 12.1056L4.55279 13.8944L11.5528 17.3944L12.4472 15.6056Z" />
  </symbol>

  <symbol id="usdt" viewBox="0 0 24 24">
    <path fill-rule="evenodd" clip-rule="evenodd"
      d="M7 15.5C7 18.1065 9.36819 20 12 20C14.6318 20 17 18.1065 17 15.5C17 12.8935 14.6318 11 12 11L12 13C13.7865 13 15 14.2405 15 15.5C15 16.7595 13.7865 18 12 18C10.2135 18 9 16.7595 9 15.5H7Z" />
    <path fill-rule="evenodd" clip-rule="evenodd"
      d="M9 8.5C9 7.24054 10.2135 6 12 6C13.7865 6 15 7.24054 15 8.5H17C17 5.89347 14.6318 4 12 4C9.36818 4 7 5.89347 7 8.5C7 11.1065 9.36818 13 12 13V11C10.2135 11 9 9.75946 9 8.5Z" />
    <path d="M12 2V22" fill="none" stroke="currentColor" stroke-width="2" />
  </symbol>

  <symbol id="uah" viewBox="0 0 24 24">
    <path fill-rule="evenodd" clip-rule="evenodd"
      d="M11.5 6C10.5377 6 9.79744 6.40871 9.38024 6.9521L7.47742 6.19097C8.24239 4.84733 9.82753 4 11.5 4C13.8351 4 16 5.65179 16 8C16 8.74751 15.7806 9.42445 15.4062 10H18V12H13.4513L12.3995 13H18V15H10.3446C10.1208 15.3095 10 15.6591 10 16C10 16.9655 10.9691 18 12.5 18C13.4622 18 14.2026 17.5913 14.6198 17.0479L16.5226 17.809C15.7576 19.1527 14.1725 20 12.5 20C10.1649 20 8 18.3482 8 16C8 15.6502 8.04805 15.3158 8.13756 15H6V13H9.49697L10.5487 12H6V10H12.6523L13.4102 9.27945L13.4118 9.28117C13.7903 8.91325 14 8.44916 14 8C14 7.0345 13.0309 6 11.5 6ZM6.99999 8.00095L6.99998 8L6.99999 7.99905V8.00095Z" />
  </symbol>

  <!-- <symbol id="eur" viewBox="0 0 25 24">
    <path fill-rule="evenodd" clip-rule="evenodd"
      d="M8.5 12C8.5 8.68629 11.1863 6 14.5 6C16.1569 6 17.6569 6.67158 18.7427 7.75737L20.1569 6.34316C18.7092 4.89544 16.7091 4 14.5 4C10.0817 4 6.5 7.58172 6.5 12C6.5 16.4183 10.0817 20 14.5 20C16.7091 20 18.7091 19.1046 20.1568 17.6569L18.7426 16.2427C17.6568 17.3284 16.1568 18 14.5 18C11.1863 18 8.5 15.3137 8.5 12Z" />
    <g fill="none" stroke="currentColor" stroke-width="2">
      <path d="M4.5 11L15.5 11" />
      <path d="M3.5 14L14.5 14" />
    </g>
  </symbol>

  <symbol id="gbp" viewBox="0 0 24 24" fill-rule="evenodd" clip-rule="evenodd">
    <path d="M5 12H15V10H5V12ZM5 15H15V13H5V15Z" />
    <path
      d="M10 9C10 7.34315 11.3431 6 13 6C14.3062 6 15.4175 6.83481 15.8293 8H17.9C17.4367 5.71776 15.419 4 13 4C10.2386 4 8 6.23858 8 9V16.5H10V13.0004V9Z" />
    <path d="M19 17C19 18.6569 17.6568 20 16 20C16 20 16 20 16 20H6V18H13.1707H16C16.5523 18 17 17.5523 17 17H19Z" />
    <path
      d="M6.5 18V20C8.433 20 10 18.433 10 16.5C10 15.1038 9.18247 13.8985 8 13.3368V16.5C8 17.3284 7.32843 18 6.5 18Z" />
  </symbol> -->

  <symbol id="multicurr" viewBox="0 0 72 24">

    <path fill-rule="evenodd" clip-rule="evenodd"
      d="M7 15.5C7 18.1065 9.36819 20 12 20C14.6318 20 17 18.1065 17 15.5C17 12.8935 14.6318 11 12 11L12 13C13.7865 13 15 14.2405 15 15.5C15 16.7595 13.7865 18 12 18C10.2135 18 9 16.7595 9 15.5H7Z" />
    <path fill-rule="evenodd" clip-rule="evenodd"
      d="M9 8.5C9 7.24054 10.2135 6 12 6C13.7865 6 15 7.24054 15 8.5H17C17 5.89347 14.6318 4 12 4C9.36818 4 7 5.89347 7 8.5C7 11.1065 9.36818 13 12 13V11C10.2135 11 9 9.75946 9 8.5Z" />
    <g stroke="currentColor" stroke-width="2">
      <path d="M12 2V22" />
      <path d="M28 11L39 11" />
      <path d="M27 14L38 14" />

    </g>
    <path fill-rule="evenodd" clip-rule="evenodd"
      d="M32 12C32 8.68629 34.6863 6 38 6C39.6569 6 41.1569 6.67158 42.2427 7.75737L43.6569 6.34316C42.2092 4.89544 40.2091 4 38 4C33.5817 4 30 7.58172 30 12C30 16.4183 33.5817 20 38 20C40.2091 20 42.2091 19.1046 43.6568 17.6569L42.2426 16.2427C41.1568 17.3284 39.6568 18 38 18C34.6863 18 32 15.3137 32 12Z" />
    <path fill-rule="evenodd" clip-rule="evenodd" d="M53 12H63V10H53V12ZM53 15H63V13H53V15Z" />
    <path fill-rule="evenodd" clip-rule="evenodd"
      d="M58 9C58 7.34315 59.3431 6 61 6C62.3062 6 63.4175 6.83481 63.8293 8H65.9C65.4367 5.71776 63.419 4 61 4C58.2386 4 56 6.23858 56 9V16.5H58V13.0004V9Z" />
    <path fill-rule="evenodd" clip-rule="evenodd"
      d="M67 17C67 18.6569 65.6568 20 64 20C64 20 64 20 64 20H54V18H61.1707H64C64.5523 18 65 17.5523 65 17H67Z" />
    <path fill-rule="evenodd" clip-rule="evenodd"
      d="M54.5 18V20C56.433 20 58 18.433 58 16.5C58 15.1038 57.1825 13.8985 56 13.3368V16.5C56 17.3284 55.3284 18 54.5 18Z" />
  </symbol>

  <symbol id="copy" viewBox="0 0 24 24">
    <rect x="4" y="9" width="11" height="11" rx="2" fill="none" stroke="currentColor" stroke-width="2" />
    <path fill-rule="evenodd" clip-rule="evenodd"
      d="M11 3C9.34315 3 8 4.34315 8 6H10C10 5.44772 10.4477 5 11 5H18C18.5523 5 19 5.44772 19 6V13C19 13.5523 18.5523 14 18 14V16C19.6569 16 21 14.6569 21 13V6C21 4.34315 19.6569 3 18 3H11Z" />
  </symbol>

  <symbol id="check" viewBox="0 0 24 24">
    <path d="M3 10L10 17L21.5 5.5" fill="none" stroke="currentColor" stroke-width="2" />
  </symbol>

  <symbol id="mincultLogo" viewBox="0 0 134 44">
    <path
      d="M48.44 7.18a10.22 10.22 0 0 0-8.9-1.87 36.8 36.8 0 0 0-13.28 6.31 36.78 36.78 0 0 0-13.3-6.31c-3.1-.8-6.34-.12-8.88 1.87A10.53 10.53 0 0 0 0 15.53v27.3h2.47v-27.3a8.06 8.06 0 0 1 3.12-6.4 7.77 7.77 0 0 1 6.77-1.42c3.76.97 8.04 2.66 11.93 5.55a31.13 31.13 0 0 0-8.9 14.7 14.2 14.2 0 0 0 .1 8.56c1.13 3.29 3.87 7.14 10.33 7.48h.88c6.46-.34 9.2-4.2 10.32-7.48.92-2.68.96-5.64.11-8.56a31.13 31.13 0 0 0-8.9-14.7 34.45 34.45 0 0 1 11.93-5.55 7.77 7.77 0 0 1 6.77 1.43 8.06 8.06 0 0 1 3.12 6.4v27.28h2.47V15.53c0-3.29-1.49-6.33-4.08-8.35ZM34.76 28.65c.69 2.4.66 4.9-.07 7.07-1.29 3.76-4.13 5.7-8.43 5.84-4.3-.13-7.15-2.08-8.43-5.84a11.9 11.9 0 0 1-.07-7.07 28.63 28.63 0 0 1 8.5-13.8 28.64 28.64 0 0 1 8.5 13.8ZM96.58 16.9a8.44 8.44 0 0 1 0-16.9c4.64 0 8.4 3.79 8.4 8.45a8.44 8.44 0 0 1-8.4 8.44Zm0-14.63a6.17 6.17 0 0 0 0 12.35 6.17 6.17 0 0 0 0-12.35Zm1.18 23.54H95.4v17h2.36v-17Zm13.87 6.28h-2.36v10.73h2.36V32.09Zm9.31-4.09a9.5 9.5 0 0 1-9.47-9.52 9.5 9.5 0 0 1 9.47-9.51 9.5 9.5 0 0 1 9.47 9.5 9.5 9.5 0 0 1-9.47 9.52Zm0-21.34a11.8 11.8 0 0 0-11.77 11.82 11.8 11.8 0 0 0 11.77 11.82 11.8 11.8 0 0 0 11.76-11.82 11.8 11.8 0 0 0-11.76-11.82M60.87 24.14c0 5.25 1.56 9.34 4.62 12.14 2.78 2.53 6.7 3.86 11.32 3.86h5.15v2.55H76.8c-11.39 0-18.46-7.1-18.46-18.55 0-5.76 1.88-10.56 5.44-13.86 3.3-3.06 7.8-4.68 13.02-4.68h5.15v2.54H76.8c-4.58 0-8.49 1.39-11.3 4-3.03 2.82-4.64 6.96-4.64 12" />
  </symbol>

  <symbol id="govartLogo" viewBox="0 0 384 44">
    <path fill="none" stroke="currentColor" stroke-miterlimit="10" stroke-width="2.56" d="M45.3 24.99V11.9" />
    <path fill-rule="evenodd"
      d="M24.41.3h21.61v8.5h-1.44V1.74H25.23l-4.91 8.12H1.91v22.47h23.98v1.45H.46V8.42h19.05L24.4.29Z"
      clip-rule="evenodd" />
    <path d="M29.5 40.84H5.98v3.1h25.27l4.9-8.12H50.1v-3.1H34.41l-4.9 8.12Z" />
    <path
      d="m27.42 18.45 3.94-6.55H50.1V8.8H29.61l-4.91 8.07H5.98v3.1h18.73l4 6.54-3.89 6.55H5.98v3.1h20.58l4.86-8.07H50.1V25H31.42l-4-6.54Zm36.61 1.12v2.71h-1.47v-4.12h.85c.16-.1.33-.17.45-.28l.33-.34c.06-.05.12-.17.23-.28.06-.11.17-.34.23-.56.05-.23.17-.57.22-.96a80.05 80.05 0 0 0 .34-3.55c.06-.85.06-1.81.06-2.94v-2.6h7.84v11.46h1.8v4.12h-1.58v-2.71h-9.3v.05Zm2.82-11.45V11c0 .62-.06 1.18-.06 1.75-.06.56-.06 1.07-.11 1.58-.06.5-.12.9-.23 1.24a7.07 7.07 0 0 1-.45 1.52c-.17.4-.4.74-.62 1.02h5.98V8.12h-4.51Zm11 7.39c0 .51.1.96.17 1.36.1.33.22.62.33.79.17.17.4.33.8.45.39.11.78.17 1.35.17.4 0 .73 0 1.07-.06.28-.06.56-.11.79-.17.22-.06.45-.11.62-.17.17-.05.34-.11.45-.17v1.24c-.11.06-.22.12-.4.17-.16.06-.39.17-.61.23-.29.05-.57.17-.9.22-.35.06-.68.12-1.14.12a4.38 4.38 0 0 1-2.99-1.24c-.39-.4-.67-.85-.9-1.41a4.97 4.97 0 0 1-.34-1.87c0-.67.12-1.3.29-1.86.22-.56.5-1.07.84-1.46a3.86 3.86 0 0 1 2.93-1.3c.57 0 1.02.11 1.53.28.45.23.84.5 1.18.85.34.4.62.84.8 1.35.16.56.28 1.19.28 1.86v.57h-6.15v.05Zm.56-2.99c-.11.17-.23.4-.28.68a3.4 3.4 0 0 0-.17 1.13h4.51c0-.4-.05-.74-.11-1.07a1.8 1.8 0 0 0-.28-.74c-.12-.17-.34-.28-.62-.4a3.3 3.3 0 0 0-1.19-.16c-.5 0-.9.05-1.18.17-.34.11-.57.28-.68.4Zm12.13 7.17c-.62 0-1.13-.12-1.52-.34a7.5 7.5 0 0 1-1.08-.8v4.8h-1.58V10.72h1.36l.17 1.13c.28-.34.67-.62 1.07-.9.4-.29.9-.4 1.58-.4.56 0 1.07.11 1.52.34.45.22.9.56 1.24.96.34.4.62.9.85 1.46a6.44 6.44 0 0 1 0 3.72 5.9 5.9 0 0 1-.85 1.47c-.34.4-.79.74-1.24.96-.45.11-1.01.23-1.52.23Zm-2.6-6.66v4.29c.29.28.62.5 1.02.67.4.23.9.29 1.47.29.5 0 .9-.06 1.18-.17.28-.12.45-.28.56-.4.12-.17.29-.5.4-.96.11-.45.17-1.01.17-1.63 0-.62-.06-1.19-.17-1.64-.11-.45-.23-.79-.4-.96-.1-.17-.33-.28-.62-.4a3.3 3.3 0 0 0-1.18-.16c-.62 0-1.13.11-1.52.34-.29.17-.62.45-.9.73Zm13.03 2.14h-.1c-.06 0-.12.06-.18.12l-3.5 4.28h-1.86l4-4.68-3.88-4.12h1.91l3.45 3.78c.05.06.1.06.16.12h.06v-3.95h1.58v3.95h.06c.05 0 .11-.06.17-.12l3.44-3.78h1.91l-3.89 4.12 4 4.68h-1.97l-3.5-4.28c-.05-.06-.1-.06-.16-.12h-.12v4.4h-1.58v-4.4Zm13.66-.96v-.33c0-.51 0-.85-.06-1.08a1.4 1.4 0 0 0-.23-.5.82.82 0 0 0-.34-.23 2.9 2.9 0 0 0-.9-.11c-.34 0-.67 0-1.01.05l-.85.17c-.28.06-.45.17-.68.23-.17.06-.33.17-.45.23v-1.25c.45-.28.9-.45 1.41-.62a4.87 4.87 0 0 1 1.58-.22c.9 0 1.64.22 2.2.73.57.5.85 1.24.85 2.26v4.06c0 .34.11.56.28.62.17.11.5.11.9 0v1.07c-.05.06-.17.11-.28.17-.22.06-.5.11-.79.11a1.7 1.7 0 0 1-.9-.28 1.77 1.77 0 0 1-.62-.79 6.2 6.2 0 0 1-1.19.74 3.43 3.43 0 0 1-2.6.16 2.13 2.13 0 0 1-.84-.5 2.54 2.54 0 0 1-.79-1.92c0-.85.4-1.58 1.13-2.09.73-.5 1.86-.79 3.39-.79h.79v.12Zm0 1.25h-.4c-.73 0-1.3 0-1.75.05a2.7 2.7 0 0 0-1.07.34c-.06.06-.17.23-.28.4-.11.16-.17.45-.17.84 0 .4.06.62.11.8.06.16.17.27.28.33a1.56 1.56 0 0 0 .9.23c.23 0 .46 0 .68-.06.23-.06.45-.11.68-.23.23-.05.4-.17.62-.28.17-.11.34-.22.4-.34v-2.08Zm5.07-4.74c.4 0 .8 0 1.13-.06h1.81c1.12 0 2.03.23 2.65.62a2 2 0 0 1 .96 1.75c0 .4-.12.73-.4 1.07-.22.34-.56.57-.9.74.45.16.84.39 1.18.79.34.33.51.84.51 1.35 0 .85-.34 1.52-1.01 1.97-.68.45-1.58.68-2.77.68h-1.97c-.4 0-.8 0-1.13-.06v-8.85h-.06Zm1.58 1.24v2.42h1.53c.28 0 .5 0 .67-.05a1 1 0 0 0 .45-.12c.12-.05.23-.1.28-.1l.18-.18c.05-.05.1-.17.1-.34.06-.16.06-.33.06-.5 0-.17 0-.34-.05-.51-.06-.17-.06-.28-.11-.34a1.33 1.33 0 0 0-.57-.28 6.18 6.18 0 0 0-1.24-.11h-1.08c-.05.1-.16.1-.22.1Zm0 3.55v2.82h2.43c.22 0 .4-.05.5-.05.12-.06.23-.06.34-.12.06-.05.17-.1.23-.17.06-.05.11-.22.17-.39.05-.17.05-.4.05-.62 0-.23 0-.4-.05-.62a2.87 2.87 0 0 0-.17-.4c-.06-.05-.11-.1-.23-.17a.91.91 0 0 0-.33-.16c-.17-.06-.29-.06-.51-.12-.23-.05-.45-.05-.74-.05h-1.69v.05Zm13.54.12h-4v3.94h-1.64v-8.85h1.58v3.55h4v-3.55h1.58v8.85h-1.52v-3.94Zm5.53-.12c0 .51.11.96.17 1.36.11.33.22.62.34.79.17.17.4.33.79.45.4.11.79.17 1.35.17.4 0 .73 0 1.07-.06.28-.06.57-.11.8-.17.22-.06.44-.11.61-.17.17-.05.34-.11.45-.17v1.24c-.1.06-.22.12-.4.17-.16.06-.39.17-.61.23-.28.05-.57.17-.9.22-.34.06-.68.12-1.13.12a4.37 4.37 0 0 1-2.99-1.24c-.4-.4-.68-.85-.9-1.41a4.96 4.96 0 0 1-.34-1.87c0-.67.1-1.3.28-1.86.22-.56.5-1.07.84-1.46a3.86 3.86 0 0 1 2.93-1.3c.57 0 1.02.11 1.53.28.45.23.85.5 1.19.85.33.4.62.84.78 1.35.17.56.29 1.19.29 1.86v.57h-6.15v.05Zm.56-2.99c-.11.17-.22.4-.28.68-.11.34-.17.68-.17 1.13h4.51c0-.4-.05-.74-.1-1.07a1.83 1.83 0 0 0-.29-.74c-.11-.17-.34-.28-.62-.4a3.3 3.3 0 0 0-1.19-.16c-.5 0-.9.05-1.18.17a1.7 1.7 0 0 0-.68.4Zm17.72 1.69v-.33c0-.51 0-.85-.06-1.08a1.4 1.4 0 0 0-.23-.5.82.82 0 0 0-.34-.23 2.9 2.9 0 0 0-.9-.11c-.34 0-.67 0-1.01.05l-.85.17c-.28.06-.45.17-.68.23-.16.06-.33.17-.45.23v-1.25c.45-.28.9-.45 1.41-.62a4.87 4.87 0 0 1 1.58-.22c.9 0 1.64.22 2.2.73.57.5.85 1.24.85 2.26v4.06c0 .34.11.56.28.62.17.11.5.11.9 0v1.07c-.05.06-.17.11-.28.17-.22.06-.5.11-.79.11a1.7 1.7 0 0 1-.9-.28 1.77 1.77 0 0 1-.62-.79c-.34.28-.74.51-1.19.74a3.43 3.43 0 0 1-2.6.16 2.13 2.13 0 0 1-.84-.5 2.54 2.54 0 0 1-.79-1.92c0-.85.4-1.58 1.13-2.09.74-.5 1.86-.79 3.39-.79h.79v.12Zm0 1.25h-.4c-.73 0-1.3 0-1.75.05a2.7 2.7 0 0 0-1.07.34c-.06.06-.17.23-.28.4-.12.16-.17.45-.17.84 0 .4.05.62.11.8.06.16.17.27.28.33a1.56 1.56 0 0 0 .9.23c.23 0 .46 0 .68-.06.23-.06.45-.11.68-.23.23-.05.4-.17.62-.28.17-.11.34-.22.4-.34v-2.08Zm5.07-4.74h5.7v1.35h-4.12v7.5h-1.58v-8.85Zm7.84 4.79c0 .51.12.96.17 1.36.12.33.23.62.34.79.17.17.4.33.8.45.39.11.78.17 1.34.17.4 0 .74 0 1.08-.06.28-.06.56-.11.79-.17.22-.06.45-.11.62-.17.17-.05.33-.11.45-.17v1.24c-.12.06-.23.12-.4.17-.17.06-.4.17-.62.23-.28.05-.56.17-.9.22-.34.06-.68.12-1.13.12a4.39 4.39 0 0 1-2.99-1.24 4.1 4.1 0 0 1-.9-1.41 4.96 4.96 0 0 1-.34-1.87c0-.67.11-1.3.28-1.86a5.3 5.3 0 0 1 .85-1.46 3.86 3.86 0 0 1 2.93-1.3c.57 0 1.02.11 1.53.28.45.23.84.5 1.18.85.34.4.62.84.79 1.35.17.56.28 1.19.28 1.86v.57h-6.15v.05Zm.51-2.99c-.11.17-.22.4-.28.68-.11.34-.17.68-.17 1.13h4.51c0-.4-.05-.74-.11-1.07a1.8 1.8 0 0 0-.28-.74c-.12-.17-.34-.28-.62-.4a3.3 3.3 0 0 0-1.19-.16c-.5 0-.9.05-1.18.17-.34.11-.57.28-.68.4Zm13.54 3.11h-4v3.94h-1.64v-8.85h1.58v3.55h4v-3.55h1.58v8.85h-1.52v-3.94Zm3.05-4.91h7.27v1.35h-2.82v7.5h-1.58v-7.5h-2.82v-1.35h-.05Zm14.49 8.4c-.22.17-.5.28-.9.4-.4.11-.9.17-1.52.17a4.05 4.05 0 0 1-3-1.3 4.98 4.98 0 0 1-1.24-3.33 4.98 4.98 0 0 1 1.25-3.33 4.05 4.05 0 0 1 2.99-1.3 5.08 5.08 0 0 1 2.42.57v1.41a4.37 4.37 0 0 0-1.01-.28c-.4-.12-.85-.17-1.41-.17a4.4 4.4 0 0 0-1.36.17c-.34.11-.56.28-.67.45-.17.22-.28.5-.4.96-.11.45-.17.96-.17 1.58 0 .62.06 1.13.17 1.58.12.4.28.73.4.9.17.17.4.34.73.45.34.11.79.23 1.3.23a5.07 5.07 0 0 0 2.37-.51v1.35h.05Zm.4-8.4h7.28v1.35h-2.82v7.5h-1.59v-7.5h-2.81v-1.35h-.06Zm8.74 0c.4 0 .8 0 1.13-.06h1.8c1.13 0 2.04.23 2.66.62.62.4.96 1.02.96 1.75 0 .4-.12.73-.4 1.07-.22.34-.56.57-.9.74.45.16.84.39 1.18.79.34.33.51.84.51 1.35 0 .85-.34 1.52-1.02 1.97-.67.45-1.57.68-2.76.68h-1.97c-.4 0-.8 0-1.13-.06v-8.85h-.06Zm1.64 1.24v2.42h1.52c.28 0 .5 0 .68-.05a1 1 0 0 0 .45-.12.96.96 0 0 1 .28-.1l.17-.18c.06-.05.11-.17.11-.34.06-.16.06-.33.06-.5 0-.17 0-.34-.06-.51-.05-.17-.05-.28-.11-.34a1.32 1.32 0 0 0-.56-.28 6.18 6.18 0 0 0-1.24-.11h-1.08c-.1.1-.17.1-.22.1Zm0 3.55v2.82h2.42c.23 0 .4-.05.51-.05.11-.06.23-.06.34-.12.06-.05.17-.1.22-.17.06-.05.12-.22.17-.39.06-.17.06-.4.06-.62 0-.23 0-.4-.06-.62a2.64 2.64 0 0 0-.16-.4.78.78 0 0 0-.23-.17.93.93 0 0 0-.34-.16c-.11-.06-.28-.06-.5-.12-.23-.05-.46-.05-.74-.05h-1.7v.05Zm7.22-.34c0-.67.11-1.3.34-1.8a4.27 4.27 0 0 1 2.25-2.43 4.14 4.14 0 0 1 1.64-.33 4.12 4.12 0 0 1 3.95 2.76 5.05 5.05 0 0 1 0 3.66 4.3 4.3 0 0 1-2.26 2.43 4.04 4.04 0 0 1-3.27 0 4.3 4.3 0 0 1-2.26-2.43 4.43 4.43 0 0 1-.4-1.86Zm1.63 0c0 .62.06 1.19.17 1.58.12.45.23.74.4.96.17.17.4.34.73.45.34.12.8.17 1.3.17s.96-.05 1.3-.17c.34-.1.62-.28.73-.45.17-.22.28-.5.4-.96.1-.45.16-.96.16-1.63 0-.68-.05-1.19-.16-1.64a2.58 2.58 0 0 0-.4-.96c-.17-.17-.4-.34-.73-.45a4.25 4.25 0 0 0-1.3-.17c-.5 0-.96.06-1.3.17-.34.11-.62.28-.73.45-.17.23-.28.51-.4.96a7.5 7.5 0 0 0-.17 1.7Zm12.87-8.51h1.8l3.44 6.77c.06.16.12.28.23.45.05.17.11.28.17.4.05.16.11.27.17.44l.16-.45c.06-.11.12-.28.17-.4l.17-.39 2.82-6.77h1.64l-3.95 9.2-.79 1.69c-.28.5-.56.9-.84 1.18a2.9 2.9 0 0 1-.96.74c-.34.17-.74.22-1.13.22-.4 0-.73-.05-1.02-.17a8 8 0 0 1-.62-.28v-1.35l.68.22c.28.12.62.12.96.12.28 0 .5-.06.62-.12a.91.91 0 0 0 .34-.17l.17-.16.22-.34.28-.51c.12-.17.23-.45.34-.68l-5.07-9.64Zm12.8 12.91h-1.58v-8.85h1.58v3.89h.06c.05 0 .11-.06.17-.11l3.66-3.78h1.98l-4.06 4.12 4.17 4.73h-1.97l-3.73-4.28c-.05-.06-.11-.06-.17-.12h-.1v4.4Zm11.62.12c-.62 0-1.13-.12-1.52-.34-.4-.23-.73-.5-1.07-.8v4.8h-1.58V10.72h1.35l.17 1.13c.28-.34.68-.62 1.07-.9.4-.29.9-.4 1.58-.4.57 0 1.07.11 1.52.34a4.09 4.09 0 0 1 2.1 2.42 6.45 6.45 0 0 1 0 3.72 6.58 6.58 0 0 1-.85 1.47c-.34.4-.8.74-1.25.96-.45.11-.95.23-1.52.23Zm-2.6-6.66v4.29c.29.28.63.5 1.02.67.4.23.9.29 1.47.29.5 0 .9-.06 1.18-.17.28-.12.45-.28.57-.4.11-.17.28-.5.4-.96a7.68 7.68 0 0 0-.01-3.27c-.11-.45-.22-.79-.4-.96-.1-.17-.33-.28-.61-.4a3.3 3.3 0 0 0-1.19-.16c-.62 0-1.13.11-1.52.34-.28.17-.62.45-.9.73Zm13.43 1.18v-.33c0-.51 0-.85-.05-1.08a1.4 1.4 0 0 0-.23-.5.86.86 0 0 0-.34-.23 2.9 2.9 0 0 0-.9-.11c-.34 0-.68 0-1.02.05a11 11 0 0 0-.84.17c-.28.06-.45.17-.68.23-.17.06-.34.17-.45.23v-1.25c.45-.28.9-.45 1.41-.62.5-.17 1.02-.22 1.58-.22.9 0 1.63.22 2.2.73.56.5.84 1.24.84 2.26v4.06c0 .34.12.56.29.62.17.11.5.11.9 0v1.07c-.06.06-.17.11-.28.17-.23.06-.51.11-.8.11a1.7 1.7 0 0 1-.9-.28 1.77 1.77 0 0 1-.62-.79 6 6 0 0 1-1.18.74 3.43 3.43 0 0 1-2.6.16 2.13 2.13 0 0 1-.84-.5 2.56 2.56 0 0 1-.79-1.92c0-.85.4-1.58 1.13-2.09.73-.5 1.86-.79 3.38-.79h.8v.12Zm0 1.25h-.4c-.73 0-1.29 0-1.74.05-.45.06-.8.17-1.07.34-.06.06-.17.23-.29.4-.1.16-.16.45-.16.84 0 .4.05.62.1.8.06.16.18.27.29.33.11.06.23.11.4.17.16.06.33.06.5.06.23 0 .45 0 .68-.06.23-.06.45-.11.68-.23.22-.05.4-.17.62-.28.22-.11.34-.22.4-.34v-2.08Zm3.67-7.73c0-.28.11-.51.28-.68a.96.96 0 0 1 1.64.68c0 .28-.12.5-.29.67a.94.94 0 0 1-.67.29.93.93 0 0 1-.68-.29c-.22-.16-.28-.39-.28-.67Zm1.63 2.99h1.58v8.85h-1.57v-8.85Zm1.3-3c0-.27.12-.5.28-.67a.96.96 0 0 1 1.64.68c0 .28-.11.5-.28.67a.93.93 0 0 1-.68.29.93.93 0 0 1-.68-.29.94.94 0 0 1-.28-.67Zm9.37 7.91h-4v3.94h-1.59v-8.85h1.58v3.55h4v-3.55h1.59v8.85h-1.58v-3.94Zm6.2 3.94h-1.4v-8.85h1.57v5.98c0 .22 0 .45-.06.67.12-.22.29-.45.4-.73.17-.22.28-.45.4-.62l3.6-5.3h1.42v8.85h-1.59V13.6c0-.22.06-.45.06-.67-.11.22-.28.45-.4.73-.16.23-.28.45-.39.62l-3.6 5.3Zm-228.46 11h1.18c.51 0 .9-.05 1.13-.16l.51-.29c.06-.05.11-.17.11-.34.06-.16.06-.33.06-.5 0-.17 0-.34-.06-.51-.05-.17-.05-.28-.17-.34a1.08 1.08 0 0 0-.45-.22 4.25 4.25 0 0 0-1.8-.06 18.36 18.36 0 0 0-1.41.34c-.17.05-.34.11-.45.17v-1.3c.1-.06.28-.11.45-.23.17-.05.4-.17.67-.22.23-.06.51-.11.8-.17.28-.06.56-.06.84-.06.5 0 .96.06 1.35.23.4.11.74.34 1.02.5.28.23.45.46.62.74a1.82 1.82 0 0 1-.23 2.09 2.7 2.7 0 0 1-1.01.73c.45.11.79.4 1.13.73.34.34.5.85.5 1.41 0 .34-.05.74-.22 1.02a2.86 2.86 0 0 1-1.81 1.41 4.97 4.97 0 0 1-2.48.11 4.23 4.23 0 0 1-.9-.22c-.28-.12-.5-.17-.73-.29-.23-.1-.4-.17-.46-.22v-1.07l.46.22c.22.11.45.17.73.28.28.06.56.17.9.23a5.13 5.13 0 0 0 2.2 0c.23-.06.4-.17.5-.28.07-.06.12-.23.18-.4s.06-.4.06-.62c0-.22 0-.4-.06-.62a1.35 1.35 0 0 0-.17-.4 1.63 1.63 0 0 0-.56-.33 3.3 3.3 0 0 0-1.19-.17h-1.18v-1.19h-.06Zm18.45-2.25h-4v7.5h-1.59v-8.86h7.17v8.86h-1.58v-7.5Zm6.2 7.5h-1.4v-8.86h1.57v5.98c0 .23 0 .45-.06.68.12-.23.29-.45.4-.73.17-.23.28-.45.4-.62l3.6-5.3h1.41v8.85h-1.58v-5.98c0-.22.06-.45.06-.68-.11.23-.28.46-.4.74-.16.22-.28.45-.39.62l-3.6 5.3Zm7.39-8.86h7.28v1.36h-2.82v7.5H99.5v-7.5h-2.82v-1.36h-.06Zm13.14 3.5v-.34c0-.5 0-.84-.05-1.07a1.39 1.39 0 0 0-.23-.5.86.86 0 0 0-.34-.23 2.9 2.9 0 0 0-.9-.11c-.34 0-.68 0-1.01.05-.34.06-.62.11-.85.17-.28.06-.45.17-.68.23-.17.05-.34.17-.45.22v-1.24c.45-.28.9-.45 1.41-.62a4.88 4.88 0 0 1 1.58-.23c.9 0 1.64.23 2.2.74.57.5.85 1.24.85 2.25v4.07c0 .33.11.56.28.62.17.11.5.11.9 0v1.07c-.05.05-.17.11-.28.17-.23.05-.5.11-.79.11a1.7 1.7 0 0 1-.9-.28 1.78 1.78 0 0 1-.62-.8c-.34.3-.74.52-1.19.74a3.44 3.44 0 0 1-2.6.17 2.11 2.11 0 0 1-.84-.5 2.52 2.52 0 0 1-.79-1.92c0-.85.4-1.58 1.13-2.1.73-.5 1.86-.78 3.39-.78h.78v.11Zm0 1.24h-.39c-.73 0-1.3 0-1.75.06a2.7 2.7 0 0 0-1.07.34c-.06.05-.17.22-.28.4-.12.16-.17.44-.17.84 0 .4.05.62.11.79.06.17.17.28.28.34.12.05.23.11.4.17.17.05.34.05.5.05.23 0 .46 0 .68-.05.23-.06.45-.12.68-.23.22-.06.4-.17.62-.28.17-.11.34-.23.4-.34V31.7Zm10.61.17h-4v3.95h-1.58v-8.86h1.58v3.56h4v-3.56h1.58v8.86h-1.58v-3.95Zm6.37-1.63h1.36c1.18 0 2.14.22 2.76.73.62.5.96 1.18.96 2.03 0 .9-.34 1.64-1.02 2.14a4.4 4.4 0 0 1-2.7.74h-1.92c-.34 0-.68 0-1.02-.06v-8.86h1.58v3.28Zm1.3 1.24h-1.24v3.1h2.03c.23 0 .4-.06.5-.06.12-.05.23-.05.3-.11.05-.06.16-.11.22-.17.05-.06.1-.22.17-.45.05-.23.05-.5.05-.73 0-.29 0-.51-.05-.74a1.11 1.11 0 0 0-.17-.4.77.77 0 0 0-.23-.16c-.06-.06-.17-.11-.34-.11-.11-.06-.28-.06-.5-.06a2.51 2.51 0 0 0-.74-.11Zm20.54 4.34H147v-5.98c0-.22.06-.4.06-.62l-.34.68c-.11.17-.22.4-.4.62l-2.2 3.44h-.44l-2.37-3.44c-.17-.23-.28-.45-.4-.62-.11-.17-.22-.4-.34-.62 0 .22.06.4.06.62v5.98h-1.58v-8.92h1.41l2.65 3.78c.17.23.28.45.45.68.12.23.23.45.34.62.12-.17.23-.4.34-.62.11-.23.28-.45.45-.73l2.43-3.73h1.4v8.86h.06Zm4.62 0h-1.47v-8.86h1.58v5.98c0 .23 0 .45-.05.68.11-.23.28-.45.4-.73.16-.23.27-.45.39-.62l3.6-5.3h1.42v8.85h-1.58v-5.98c0-.22.05-.45.05-.68-.1.23-.28.46-.4.74-.16.22-.27.45-.39.62l-3.55 5.3Zm14.78-.45c-.23.17-.5.28-.9.4-.4.1-.9.16-1.53.16a4.05 4.05 0 0 1-2.99-1.3 4.96 4.96 0 0 1-1.24-3.33 4.96 4.96 0 0 1 1.25-3.32 4.05 4.05 0 0 1 2.99-1.3 5.08 5.08 0 0 1 2.42.57v1.3a4.38 4.38 0 0 0-1.02-.29 5.1 5.1 0 0 0-1.4-.17 4.4 4.4 0 0 0-1.36.17 1.3 1.3 0 0 0-.68.45c-.17.23-.28.51-.4.96a7.19 7.19 0 0 0 .01 3.16c.11.4.28.73.4.9.16.17.39.34.73.45.33.12.79.23 1.3.23a5.09 5.09 0 0 0 2.36-.5v1.46h.06Zm.34-8.41h7.27v1.36h-2.81v7.5h-1.58v-7.5h-2.83v-1.36h-.05Zm9.64 4.8c0 .5.12.96.17 1.35.12.34.23.62.34.8.17.16.4.33.8.44.39.12.78.17 1.35.17.4 0 .73 0 1.07-.05l.79-.17.62-.17c.17-.06.34-.11.45-.17v1.24c-.11.06-.23.11-.4.17-.16.06-.4.17-.62.22-.28.06-.56.17-.9.23-.34.06-.68.11-1.13.11a4.38 4.38 0 0 1-2.99-1.24c-.4-.4-.67-.84-.9-1.4a4.96 4.96 0 0 1-.34-1.87c0-.68.12-1.3.28-1.86.23-.57.51-1.07.85-1.47a3.85 3.85 0 0 1 2.93-1.3c.57 0 1.02.12 1.53.29.45.22.84.5 1.18.84.34.4.62.85.8 1.36.16.56.27 1.18.27 1.86v.56h-6.15v.06Zm.51-3c-.11.18-.22.4-.28.69-.11.33-.17.67-.17 1.12h4.51c0-.39-.05-.73-.1-1.07a1.81 1.81 0 0 0-.3-.73c-.1-.17-.33-.28-.61-.4a3.3 3.3 0 0 0-1.19-.16c-.5 0-.9.05-1.18.16-.34.12-.56.29-.68.4Zm9.54 5.71h3.83v-7.5h1.58v7.5h1.41v3.78h-1.35v-2.49h-7.11v-8.8h1.58v7.5h.06Zm7.38-7.51h7.28v1.36h-2.82v7.5h-1.58v-7.5h-2.82v-1.36h-.06Zm8.75 0c.4 0 .79 0 1.13-.05h1.8c1.13 0 2.03.22 2.65.62a2 2 0 0 1 .96 1.75c0 .4-.11.73-.4 1.07a2.2 2.2 0 0 1-.9.73c.46.17.85.4 1.19.8.34.33.5.84.5 1.35 0 .84-.33 1.52-1 1.97-.69.45-1.59.68-2.77.68h-1.98c-.4 0-.79 0-1.13-.06v-8.86h-.05Zm1.63 1.25v2.42h1.53c.28 0 .5 0 .68-.06.16 0 .33-.05.45-.1.1-.06.22-.12.28-.12l.17-.17a.52.52 0 0 0 .11-.34c.06-.17.06-.34.06-.5 0-.18 0-.35-.06-.51-.06-.17-.06-.29-.11-.34a1.32 1.32 0 0 0-.57-.28 6.17 6.17 0 0 0-1.24-.12h-1.07c-.11.12-.17.12-.22.12Zm0 3.55v2.82h2.43c.23 0 .4-.06.5-.06.12-.05.23-.05.35-.11.05-.06.17-.11.22-.17.06-.06.12-.22.17-.4.06-.16.06-.39.06-.61 0-.23 0-.4-.06-.62a2.64 2.64 0 0 0-.17-.4.77.77 0 0 0-.22-.17.91.91 0 0 0-.34-.17c-.12-.05-.28-.05-.51-.11-.22-.06-.45-.06-.73-.06h-1.7v.06Zm11.06-4.8h7.28v1.36h-2.82v7.5h-1.58v-7.5h-2.82v-1.36h-.06Zm13.15 3.5v-.34c0-.5 0-.84-.06-1.07a1.4 1.4 0 0 0-.23-.5.74.74 0 0 0-.34-.23 2.9 2.9 0 0 0-.9-.11c-.34 0-.68 0-1.01.05-.34.06-.62.11-.85.17-.28.06-.45.17-.68.23-.17.05-.33.17-.45.22v-1.24c.45-.28.9-.45 1.41-.62a4.88 4.88 0 0 1 1.58-.23c.9 0 1.64.23 2.2.74.57.5.85 1.24.85 2.25v4.07c0 .33.11.56.28.62.17.11.5.11.9 0v1.07c-.05.05-.17.11-.28.17-.22.05-.5.11-.79.11a1.7 1.7 0 0 1-.9-.28 1.77 1.77 0 0 1-.62-.8c-.34.3-.74.52-1.19.74a3.43 3.43 0 0 1-2.6.17 2.13 2.13 0 0 1-.84-.5 2.54 2.54 0 0 1-.79-1.92c0-.85.4-1.58 1.13-2.1.73-.5 1.86-.78 3.38-.78h.8v.11Zm0 1.24h-.4c-.73 0-1.3 0-1.75.06a2.7 2.7 0 0 0-1.07.34c-.06.05-.17.22-.28.4-.12.16-.17.44-.17.84 0 .4.05.62.11.79.06.17.17.28.28.34.12.05.23.11.4.17.17.05.34.05.5.05.23 0 .46 0 .68-.05.23-.06.45-.12.68-.23.22-.06.4-.17.62-.28.17-.11.34-.23.4-.34V31.7Zm20.19 4.12h-1.58v-5.98c0-.22.06-.4.06-.62l-.34.68c-.11.17-.23.4-.4.62l-2.2 3.44h-.45l-2.37-3.44c-.17-.23-.28-.45-.4-.62l-.33-.62c0 .22.06.4.06.62v5.98h-1.58v-8.92h1.4l2.66 3.78c.17.23.28.45.45.68.11.23.22.45.34.62.11-.17.22-.4.34-.62.1-.23.28-.45.45-.73l2.42-3.73h1.41v8.86h.06Zm4.62 0h-1.4v-8.86h1.57v5.98c0 .23 0 .45-.05.68.11-.23.28-.45.4-.73.16-.23.28-.45.39-.62l3.6-5.3h1.42v8.85h-1.58v-5.98c0-.22.06-.45.06-.68-.12.23-.29.46-.4.74-.17.22-.28.45-.4.62l-3.6 5.3Zm14.78-.45c-.22.17-.5.28-.9.4-.4.1-.9.16-1.52.16a4.05 4.05 0 0 1-3-1.3 4.96 4.96 0 0 1-1.24-3.33 4.96 4.96 0 0 1 1.25-3.32 4.05 4.05 0 0 1 2.99-1.3 5.07 5.07 0 0 1 2.43.57v1.3a4.37 4.37 0 0 0-1.02-.29c-.4-.11-.85-.17-1.41-.17a4.4 4.4 0 0 0-1.36.17 1.3 1.3 0 0 0-.67.45c-.17.23-.28.51-.4.96a6.5 6.5 0 0 0-.17 1.58c0 .62.06 1.13.17 1.58.12.4.28.73.4.9.17.17.4.34.73.45.34.12.8.23 1.3.23a5.07 5.07 0 0 0 2.37-.5v1.46h.06Zm.34-8.41h7.28v1.36h-2.82v7.5h-1.58v-7.5h-2.82v-1.36h-.06Zm9.65 4.8c0 .5.11.96.17 1.35.11.34.22.62.34.8.17.16.4.33.79.44.4.12.79.17 1.35.17.4 0 .73 0 1.07-.05a17.86 17.86 0 0 0 1.41-.34c.17-.06.34-.11.45-.17v1.24c-.1.06-.22.11-.4.17-.16.06-.39.17-.61.22-.28.06-.56.17-.9.23-.34.06-.68.11-1.13.11a4.38 4.38 0 0 1-2.99-1.24c-.4-.4-.68-.84-.9-1.4a4.96 4.96 0 0 1-.34-1.87c0-.68.11-1.3.28-1.86.22-.57.5-1.07.84-1.47a3.85 3.85 0 0 1 2.93-1.3c.57 0 1.02.12 1.53.29.45.22.85.5 1.19.84.34.4.62.85.79 1.36.17.56.28 1.18.28 1.86v.56h-6.15v.06Zm.5-3c-.1.18-.22.4-.27.69-.12.33-.17.67-.17 1.12h4.5c0-.39-.05-.73-.1-1.07a1.81 1.81 0 0 0-.29-.73c-.1-.17-.34-.28-.62-.4a3.3 3.3 0 0 0-1.18-.16c-.5 0-.9.05-1.19.16a1.9 1.9 0 0 0-.67.4Zm9.54 5.71h3.84v-7.5h1.58v7.5h1.4v3.78h-1.35v-2.49h-7.1v-8.8h1.57v7.5h.06Zm10.38-4.23h1.35c1.19 0 2.15.22 2.77.73.62.5.96 1.18.96 2.03 0 .9-.34 1.64-1.02 2.14a4.4 4.4 0 0 1-2.7.74h-1.92c-.34 0-.68 0-1.02-.06v-8.86h1.58v3.28Zm1.3 1.24h-1.24v3.1h2.03c.22 0 .4-.06.5-.06.12-.05.23-.05.29-.11.05-.06.17-.11.22-.17.06-.06.12-.22.17-.45.06-.23.06-.5.06-.73 0-.29 0-.51-.06-.74-.06-.22-.11-.34-.17-.4a.77.77 0 0 0-.22-.16c-.06-.06-.17-.11-.34-.11-.11-.06-.28-.06-.5-.06-.18-.06-.4-.11-.74-.11Zm7.39 4.34h-1.58v-8.86h1.58v3.9h.05c.06 0 .12-.06.17-.12l3.67-3.78h1.97l-4.06 4.12 4.18 4.74h-1.98l-3.72-4.29c-.06-.05-.11-.05-.17-.11h-.11v4.4Zm6.54-4.4c0-.68.11-1.3.34-1.8a4.3 4.3 0 0 1 2.25-2.43 4.02 4.02 0 0 1 1.64-.34 4.12 4.12 0 0 1 3.95 2.77c.23.56.34 1.18.34 1.86 0 .67-.11 1.3-.34 1.8a4.3 4.3 0 0 1-2.26 2.43 4.05 4.05 0 0 1-3.27 0 4.3 4.3 0 0 1-2.26-2.43 3.71 3.71 0 0 1-.39-1.86Zm1.64 0c0 .62.05 1.18.17 1.58.1.45.22.73.4.96.16.17.38.34.72.45.34.11.8.17 1.3.17s.96-.06 1.3-.17c.34-.11.62-.28.73-.45.17-.23.28-.5.4-.96.11-.45.17-.96.17-1.64 0-.67-.06-1.18-.17-1.63a2.58 2.58 0 0 0-.4-.96c-.17-.17-.4-.34-.73-.45a4.26 4.26 0 0 0-1.3-.17c-.5 0-.96.05-1.3.17-.33.11-.62.28-.73.45-.17.22-.28.5-.4.96-.1.5-.16 1.01-.16 1.69Zm7.67-7.45c0-.28.11-.5.28-.67.17-.17.4-.28.68-.28s.5.1.67.28a.93.93 0 0 1 0 1.35.93.93 0 0 1-.67.28.94.94 0 0 1-.68-.28c-.23-.17-.28-.4-.28-.68Zm1.63 3h1.58v8.85h-1.58v-8.86Zm1.3-3a.96.96 0 1 1 1.64.68.93.93 0 0 1-.68.28.93.93 0 0 1-.68-.28.93.93 0 0 1-.28-.68Zm8.12 7.45c0-.68.12-1.3.34-1.8a4.3 4.3 0 0 1 2.26-2.43c.5-.23 1.07-.34 1.64-.34a4.12 4.12 0 0 1 3.94 2.77c.23.56.34 1.18.34 1.86 0 .67-.11 1.3-.34 1.8a4.27 4.27 0 0 1-2.25 2.43 4.05 4.05 0 0 1-3.27 0 4.29 4.29 0 0 1-2.26-2.43 4.43 4.43 0 0 1-.4-1.86Zm1.7 0c0 .62.05 1.18.17 1.58.1.45.22.73.4.96.16.17.39.34.72.45.34.11.8.17 1.3.17.51 0 .96-.06 1.3-.17.34-.11.62-.28.73-.45.17-.23.29-.5.4-.96.11-.45.17-.96.17-1.64 0-.67-.06-1.18-.17-1.63a2.58 2.58 0 0 0-.4-.96c-.17-.17-.4-.34-.73-.45a4.25 4.25 0 0 0-1.3-.17c-.5 0-.96.05-1.3.17-.33.11-.62.28-.73.45-.17.22-.28.5-.4.96a7.5 7.5 0 0 0-.16 1.69Zm15 3.95c-.22.17-.5.28-.9.4-.4.1-.9.16-1.52.16a4.05 4.05 0 0 1-3-1.3 4.98 4.98 0 0 1-1.24-3.33 4.98 4.98 0 0 1 1.25-3.32 4.05 4.05 0 0 1 2.99-1.3 5.07 5.07 0 0 1 2.42.57v1.3a4.36 4.36 0 0 0-1.01-.29c-.4-.11-.85-.17-1.41-.17a4.4 4.4 0 0 0-1.36.17c-.34.11-.56.28-.67.45-.17.23-.29.51-.4.96-.11.45-.17.96-.17 1.58 0 .62.06 1.13.17 1.58.11.4.28.73.4.9.17.17.4.34.73.45.34.12.79.23 1.3.23a5.08 5.08 0 0 0 2.37-.5v1.46h.05Zm1.98-8.41c.4 0 .79 0 1.13-.05h1.8c1.13 0 2.03.22 2.65.62.62.4.96 1.01.96 1.75 0 .4-.11.73-.4 1.07a2.2 2.2 0 0 1-.9.73c.45.17.85.4 1.19.8.34.33.5.84.5 1.35 0 .84-.33 1.52-1.01 1.97a4.9 4.9 0 0 1-2.76.68h-1.98c-.4 0-.79 0-1.13-.06v-8.86h-.05Zm1.58 1.25v2.42h1.52c.28 0 .5 0 .68-.06.16 0 .33-.05.45-.1.11-.06.22-.12.28-.12l.17-.17c.06-.06.11-.17.11-.34.06-.17.06-.34.06-.5 0-.18 0-.35-.06-.51-.06-.17-.06-.29-.11-.34a1.32 1.32 0 0 0-.57-.28 6.17 6.17 0 0 0-1.24-.12h-1.07c-.11.12-.17.12-.22.12Zm0 3.55v2.82h2.42c.23 0 .4-.06.5-.06.12-.05.24-.05.35-.11.05-.06.17-.11.22-.17.06-.06.12-.22.17-.4.06-.16.06-.39.06-.61 0-.23 0-.4-.06-.62a2.64 2.64 0 0 0-.17-.4.78.78 0 0 0-.22-.17.93.93 0 0 0-.34-.17c-.11-.05-.28-.05-.5-.11-.23 0-.46-.06-.74-.06h-1.7v.06Zm7.72-7.96c0-.28.12-.56.29-.78.22-.23.45-.29.79-.29.28 0 .56.12.79.29.22.22.28.45.28.79 0 .28-.11.56-.28.78-.23.23-.46.29-.8.29-.28 0-.56-.12-.78-.29-.17-.22-.29-.5-.29-.78Zm.29 3.16h1.58v8.86h-1.58v-8.86Zm3.33 0h7.27v1.36h-2.82v7.5h-1.58v-7.5h-2.82v-1.36h-.06Zm10.15 8.86h-1.41v-8.86h1.58v5.98c0 .23 0 .45-.06.68.11-.23.28-.45.4-.73.17-.23.28-.45.4-.62l3.6-5.3h1.41v8.85h-1.58v-5.98c0-.22.06-.45.06-.68-.12.23-.28.46-.4.74-.17.22-.28.45-.4.62l-3.6 5.3Z" />
  </symbol>

  <symbol id="everstakeLogo" viewBox="0 0 227 36">
    <path
      d="M40.3 15.5 32.5 2A4 4 0 0 0 29 0H13.3A5 5 0 0 0 9 2.5L1 16a4 4 0 0 0 0 4l8 13.5a5 5 0 0 0 4.3 2.5H29a4 4 0 0 0 3.5-2l7.8-13.5a5 5 0 0 0 0-5ZM3.3 18l1-1.5 7-12 4.4 7.5a1.5 1.5 0 0 0 2.5-1.5l-3.5-6A3.4 3.4 0 0 0 12 2.8h15.8l-7.4 12.9a1.5 1.5 0 0 1-1.3.7H6A3 3 0 0 0 3.4 18ZM28 33H14l4.3-7.5a1.5 1.5 0 0 0-1-2.3 1.5 1.5 0 0 0-1.5.8l-4.4 7.6-.9 1.5a3 3 0 0 0 .1-2.8L4.2 19.5h15a1.5 1.5 0 0 1 1.3.7L27 31.6a3.3 3.3 0 0 0 2.6 1.5h-1.8Zm9.6-13.5-7 12L23 18.8a1.5 1.5 0 0 1 0-1.4l7.5-12.9.8-1.5a3 3 0 0 0 .2 3.3l6 10.3h-8.8a1.5 1.5 0 0 0-1.5 1.5 1.5 1.5 0 0 0 1.5 1.5h7a3 3 0 0 0 2.7-1.5l-.9 1.5ZM126 10a5 5 0 0 0-2.5.7c-.8.5-1.5 1-2 1.7l-.1.1h-.5l-.5-2.1h-5a1 1 0 0 0-1 .6l-.9 2.4h6s-2 0-2 1.5V23h-2.2a1 1 0 0 0-.8.6l-1 2.5h13a1 1 0 0 0 1-.6l.9-2.5h-7.1v-7.3l1.4-1.6c.7-.4 1.5-.7 2.3-.7a1.5 1.5 0 0 1 1.3.7c.3.5.4 1 .4 1.6h3.3c0-2-.4-3.5-1-4.4a3.4 3.4 0 0 0-3-1.3Zm20 8c-.8-.5-1.6-.8-2.5-1l-2.6-.7-2-.6c-.6-.3-1-.7-1-1.2a1.4 1.4 0 0 1 1-1.4c.8-.2 1.6-.4 2.4-.3l1.6.1a10.9 10.9 0 0 1 2.9 1l.9.5 1.5-2.4a323.9 323.9 0 0 0-2.4-1.3 13.6 13.6 0 0 0-7.5-.5c-.8.2-1.5.5-2.1 1a3.8 3.8 0 0 0-1.9 3.4c0 .8.2 1.6.7 2.2a7 7 0 0 0 1.9 1.5c.8.4 1.6.7 2.5.9a86.9 86.9 0 0 1 4.6 1.4 1.4 1.4 0 0 1 .7 2.1c-.1.3-.3.5-.6.6a6 6 0 0 1-4 .1 13.8 13.8 0 0 1-3.5-1.4l-1-.6L134 24a11.4 11.4 0 0 0 7.8 2.5c2.3 0 4-.4 5.2-1.3a4.4 4.4 0 0 0 1.7-3.7c0-.8-.3-1.6-.8-2.2a6 6 0 0 0-1.8-1.4Zm20.9 3.8a7.6 7.6 0 0 1-2.4 1.3 6 6 0 0 1-1.7.2 3.6 3.6 0 0 1-2.9-1.2c-.6-.8-1-2-1-3.8v-4.9h7.4l1.2-3h-8.6V5.6l-3 .8a1 1 0 0 0-.7 1v3h-1.4a1 1 0 0 0-.9.6l-1 2.4h5.3s-2 0-2 1.6v3.3c0 2.9.6 5 1.8 6.3a7 7 0 0 0 5.3 2 9.4 9.4 0 0 0 4-1l1.7-.8 1.2-1-1.7-2.5-.6.5Zm19.1 1v-.9a19.9 19.9 0 0 1 0-3.6v-2.8c.1-.8 0-1.6-.2-2.3a4.1 4.1 0 0 0-2.8-2.7 7 7 0 0 0-2.8-.4 17 17 0 0 0-6.8 1.2l.8 2.8a21 21 0 0 1 2-.7c1-.3 2-.4 3.1-.4.8 0 1.6.1 2.3.6.5.4.8 1 .8 2v1.3l-.1.2h-.3a45.2 45.2 0 0 1-2.8-.2c-1 0-2 .1-2.9.3-.8.2-1.5.5-2.2 1a4 4 0 0 0-1.4 1.4 6 6 0 0 0-.5 2.3 4.1 4.1 0 0 0 1.4 3.2c.9.8 2.1 1.2 3.7 1.2a6 6 0 0 0 3-.6 5 5 0 0 0 1.8-1.7l.1-.1h.6l.4 2.2h3.6a1 1 0 0 0 1-.8l.4-2.2H186v-.3Zm-3.6-1.4c-.4.6-.8 1-1.3 1.4-.7.4-1.6.6-2.5.6a3 3 0 0 1-2-.6 2.1 2.1 0 0 1-.5-1.6c0-.4 0-.8.3-1 .3-.4.5-.6.9-.8l1.2-.4a9 9 0 0 1 2.7 0l1 .1h.2v2.3Zm18.6-3.9 6.4-7.1H203l-5.3 6.4h-1.4v-13h-4.6a1 1 0 0 0-.9.7l-1 2.4h4.6s-1.8 0-1.8 1.3v17.9h3.7v-6.8h1.5l5.6 6.8h3.1a1 1 0 0 0 .9-.6l1-2.5h-3l-4.5-5.5ZM88.4 10.4a1 1 0 0 0-1 .6l-3.3 9.3h-.6l-4.5-10h-3.3a1 1 0 0 0-.8.7l-1 2.4h4.6s-2.2 0-1.3 2l4.6 10.7h3.8l6-15.7h-3.2Zm-19.1.9c-.7-.5-1.5-.9-2.3-1-2-.5-4-.5-5.9.1a7.3 7.3 0 0 0-4.5 4.1 9.3 9.3 0 0 0-.6 3.7c0 1.2.1 2.4.5 3.5A7 7 0 0 0 61 26a13.5 13.5 0 0 0 10.9-1.6l-.5-2.6c-2 1.2-4.2 1.9-6.5 1.9a8 8 0 0 1-1.9-.2 5 5 0 0 1-1.6-.7 3.8 3.8 0 0 1-1.7-3.2v-.2h11.8l.3-2.8a7 7 0 0 0-.7-3.2c-.4-.8-1-1.5-1.7-2Zm-1 5.5h-8.6v-.3c0-.5.3-1 .5-1.6a4 4 0 0 1 1.1-1.2l1.4-.7c.6-.2 1.2-.2 1.7-.2 1.3 0 2.3.3 3 1 .6.7 1 1.7 1 2.7v.3Zm39-5.5c-.7-.5-1.5-.9-2.3-1-2-.5-4-.5-5.9.1a7.3 7.3 0 0 0-4.5 4.1 9.3 9.3 0 0 0-.7 3.7c0 1.2.2 2.4.6 3.5A7 7 0 0 0 99 26c1.2.4 2.4.6 3.6.6.8 0 4.5-.1 7.3-2.1l-.5-2.6c-2 1.2-4.2 1.9-6.5 1.9a8 8 0 0 1-1.9-.2 5 5 0 0 1-1.6-.7 3.8 3.8 0 0 1-1.7-3.2v-.3h11.8l.3-2.7a7 7 0 0 0-.7-3.3c-.4-.8-1-1.5-1.7-2Zm-1 5.5h-8.6v-.3c0-.5.3-1 .5-1.6a4 4 0 0 1 1.1-1.2l1.4-.7c.6-.2 1.2-.2 1.7-.2 1.3 0 2.3.3 3 1 .6.7 1 1.7 1 2.7v.3Zm117.8-5.5c-.7-.5-1.5-.9-2.3-1-2-.5-4-.5-5.9.1a7.3 7.3 0 0 0-4.5 4.1 9.3 9.3 0 0 0-.7 3.7c0 1.2.2 2.4.6 3.5a7 7 0 0 0 4.4 4.3 13.5 13.5 0 0 0 10.9-1.6l-.5-2.6c-2 1.2-4.2 1.9-6.5 1.9a8 8 0 0 1-2-.2 5 5 0 0 1-1.5-.7 3.8 3.8 0 0 1-1.7-3.2v-.3h11.8l.3-2.7a7 7 0 0 0-.6-3.3c-.5-.8-1-1.5-1.8-2Zm-1 5.5h-8.6v-.3c0-.5.2-1 .5-1.6a4 4 0 0 1 1.1-1.2l1.4-.7c.6-.2 1.1-.2 1.7-.2 1.3 0 2.3.3 3 1 .6.7 1 1.7 1 2.7l-.1.3Z" />
  </symbol>

  <symbol id="mina" viewBox="0 0 24 24">
    <path
      d="M11.9993 21.9979C11.6619 22.0081 11.3336 21.8835 11.0815 21.6496C10.8295 21.4157 10.6728 21.0903 10.6437 20.74L10.4911 19.4943C9.03813 19.0629 8.18816 17.9428 7.96731 16.1642L6.65963 5.66857C6.37912 5.62154 6.0952 5.60027 5.81113 5.605C5.39063 5.60141 4.97166 5.65794 4.56593 5.77301V21.6906H2V8.8957C2 7.15953 2.74828 5.93346 4.11115 5.42336V4.59842C4.11115 3.64482 4.66764 3.00454 5.49437 3.00454C6.3211 3.00454 6.8398 3.54037 6.9735 4.5182L7.0752 5.28259C8.56737 5.71701 9.43915 6.96576 9.69778 8.99254L10.9067 19.1098C11.6289 19.2551 12.3711 19.2551 13.0933 19.1098L14.3022 8.99407C14.555 6.96576 15.437 5.71701 16.9248 5.27805L17.0265 4.51365C17.1602 3.54038 17.6862 3 18.5056 3C19.3251 3 19.8889 3.64028 19.8889 4.59388V5.41882C21.2517 5.92892 22 7.15499 22 8.89116V21.686H19.4312V5.7715C19.0254 5.65643 18.6065 5.5999 18.186 5.60348C17.9019 5.59876 17.618 5.62003 17.3374 5.66706L16.0298 16.1642C15.8133 17.911 14.943 19.0583 13.506 19.4943L13.3622 20.7415C13.3397 21.0958 13.184 21.4265 12.9287 21.6617C12.6736 21.897 12.3395 22.0178 11.9993 21.9979ZM10.9662 19.6154L11.0984 20.6885C11.1123 20.9239 11.2147 21.144 11.3833 21.3013C11.5519 21.4586 11.7732 21.5402 11.9993 21.5286C12.1117 21.537 12.2247 21.5218 12.3314 21.484C12.4381 21.4461 12.5365 21.3863 12.6206 21.3081C12.7047 21.2299 12.773 21.1349 12.8212 21.0288C12.8695 20.9226 12.8968 20.8074 12.9016 20.6901L13.0338 19.6154C12.3492 19.7324 11.6508 19.7324 10.9662 19.6154ZM19.8889 21.2213H21.5423V8.8957C21.5423 7.4244 20.9728 6.40874 19.8889 5.93497V21.2213ZM2.45332 21.2213H4.11115V5.93497C3.0287 6.40874 2.46495 7.4244 2.46495 8.8957L2.45332 21.2213ZM7.14058 5.79874L8.4221 16.1022C8.60516 17.5931 9.28079 18.5573 10.4286 18.9781L9.24447 9.05159C9.02652 7.30181 8.33637 6.23316 7.14058 5.79874ZM16.8594 5.79874C15.6636 6.23316 14.9706 7.30181 14.7555 9.05312L13.5714 18.9721C14.7207 18.5513 15.3948 17.5871 15.5779 16.0961L16.8594 5.79874ZM4.56883 5.27199C4.97641 5.16875 5.39458 5.11791 5.81402 5.12063C6.07632 5.11774 6.33847 5.13393 6.59861 5.16907L6.52014 4.5742C6.41991 3.84462 6.07409 3.47529 5.49437 3.47529C4.91464 3.47529 4.56883 3.90365 4.56883 4.59236V5.27199ZM18.186 5.12063C18.6054 5.11791 19.0236 5.16875 19.4312 5.27199V4.59842C19.4312 3.90971 19.0766 3.48134 18.5056 3.48134C17.9346 3.48134 17.5801 3.85067 17.4799 4.58025L17.4014 5.17512C17.6615 5.13998 17.9237 5.1238 18.186 5.12668V5.12063Z" />

  </symbol>
</svg>