<svg width="490" height="30" viewBox="0 0 490 30" fill="none" xmlns="http://www.w3.org/2000/svg">
<g clip-path="url(#clip0_317_183452)">
<path d="M32.1136 26.1682H26.2001L29.8988 3.90356H35.812L32.1136 26.1682Z" fill="#ADB4BA"/>
<path d="M53.5506 4.44788C52.3842 3.99738 50.5342 3.49998 48.2466 3.49998C42.4068 3.49998 38.2945 6.5316 38.2693 10.8659C38.2208 14.0637 41.2136 15.8399 43.452 16.9062C45.7398 17.9957 46.5175 18.7069 46.5175 19.6781C46.4943 21.1696 44.6688 21.8572 42.9663 21.8572C40.6053 21.8572 39.3403 21.5027 37.4178 20.6729L36.6392 20.3171L35.8116 25.3151C37.1986 25.9302 39.7539 26.4761 42.4068 26.5C48.6117 26.5 52.6513 23.5153 52.6991 18.8964C52.7227 16.3619 51.1424 14.4198 47.7354 12.8328C45.6671 11.8141 44.4004 11.1272 44.4004 10.0849C44.4247 9.13729 45.4718 8.16673 47.8065 8.16673C49.729 8.11919 51.1415 8.56905 52.2115 9.01923L52.7464 9.25565L53.5506 4.44788V4.44788Z" fill="#ADB4BA"/>
<path d="M61.4101 18.2806C61.8971 17.0015 63.7711 12.0512 63.7711 12.0512C63.7465 12.0987 64.2571 10.7485 64.5491 9.91958L64.9624 11.838C64.9624 11.838 66.0822 17.1674 66.3254 18.2806C65.4012 18.2806 62.5781 18.2806 61.4101 18.2806ZM68.7096 3.90356H64.1355C62.725 3.90356 61.6533 4.30589 61.0447 5.75087L52.261 26.1679H58.4658C58.4658 26.1679 59.4874 23.4199 59.7069 22.828C60.3876 22.828 66.4237 22.828 67.2994 22.828C67.4691 23.6097 68.005 26.1679 68.005 26.1679H73.4803L68.7096 3.90356V3.90356Z" fill="#ADB4BA"/>
<path d="M21.2609 3.90356L15.4696 19.0859L14.8367 16.0067C13.7661 12.4538 10.4082 8.5936 6.66092 6.67421L11.9655 26.1446H18.2189L27.5139 3.90356H21.2609V3.90356Z" fill="#ADB4BA"/>
<path d="M10.0919 3.90355H0.577636L0.480301 4.35341C7.90202 6.20103 12.8173 10.6546 14.8367 16.0077L12.7685 5.77509C12.4279 4.3531 11.3815 3.95046 10.0919 3.90355Z" fill="#ADB4BA"/>
</g>
<g clip-path="url(#clip1_317_183452)">
<path d="M135.321 3.16385H122.602V26.4164H135.321V3.16385Z" fill="#ADB4BA"/>
<path d="M123.449 14.7901C123.449 10.0659 125.631 5.87297 128.98 3.16384C126.516 1.19183 123.406 0 120.015 0C111.981 0 105.48 6.61487 105.48 14.7901C105.48 22.9654 111.981 29.5803 120.015 29.5803C123.406 29.5803 126.516 28.3884 128.98 26.4164C125.627 23.7456 123.449 19.5144 123.449 14.7901Z" fill="#D5DBE0"/>
<path d="M152.48 14.7901C152.48 22.9654 145.98 29.5803 137.946 29.5803C134.554 29.5803 131.445 28.3884 128.98 26.4164C132.372 23.7025 134.512 19.5144 134.512 14.7901C134.512 10.0659 132.329 5.87297 128.98 3.16384C131.44 1.19183 134.55 0 137.941 0C145.98 0 152.48 6.65795 152.48 14.7901Z" fill="#C2C9CF"/>
</g>
<path d="M260.295 9.34552V23.7451H256.806V9.33127H252.931V6.26905H264.198V9.34552H260.295" fill="#ADB4BA"/>
<path d="M198.467 6.25492V23.7451H194.977V9.33133H187.984V23.7451H184.48V6.25492H198.467Z" fill="#ADB4BA"/>
<path d="M205.431 14.3306H206.742C207.397 14.3306 208.237 14.3306 208.964 13.7751C209.59 13.2766 209.904 12.4933 209.904 11.7242C209.904 10.7557 209.434 10.1005 208.935 9.73017C208.223 9.23167 207.34 9.17471 206.528 9.17471H205.431V14.3306V14.3306ZM207.012 6.25492C208.978 6.25492 210.345 6.46855 211.627 7.59374C213.037 8.84711 213.407 10.5563 213.407 11.8096C213.407 12.4933 213.308 14.3733 211.969 15.7122C211 16.6807 209.562 17.2646 207.539 17.2646H205.417V23.7451H201.928V6.25492H207.012" fill="#ADB4BA"/>
<path d="M249.443 23.1184C248.389 23.6739 247.007 24.1439 245.113 24.1439C242.051 24.1439 240.185 23.09 238.718 21.7084C236.695 19.7714 235.912 17.5922 235.912 15.0284C235.912 11.8523 237.222 9.57343 238.718 8.19187C240.47 6.53969 242.649 5.88456 245.141 5.88456C246.38 5.88456 247.847 6.09821 249.443 6.95278V10.9408C247.847 9.10345 245.853 8.97523 245.227 8.97523C241.709 8.97523 239.43 11.8523 239.43 15.0855C239.43 18.9595 242.421 21.0675 245.355 21.0675C246.979 21.0675 248.417 20.3553 249.443 19.1589V23.1184" fill="#ADB4BA"/>
<path d="M267.688 23.7451H271.177V6.25486H267.688V23.7451Z" fill="#ADB4BA"/>
<path d="M278.17 14.3306H279.48C280.135 14.3306 280.975 14.3306 281.702 13.7751C282.328 13.2766 282.642 12.4933 282.642 11.7242C282.642 10.7557 282.172 10.1005 281.673 9.73017C280.961 9.23167 280.078 9.17471 279.266 9.17471H278.17V14.3306V14.3306ZM279.765 6.25492C281.73 6.25492 283.098 6.46855 284.379 7.59374C285.789 8.84711 286.16 10.5563 286.16 11.8096C286.16 12.4933 286.06 14.3733 284.721 15.7122C283.753 16.6807 282.314 17.2646 280.292 17.2646H278.17V23.7451H274.68V6.25492H279.765" fill="#ADB4BA"/>
<path d="M222.908 15.0285C222.908 15.0142 222.908 15.0143 222.908 15C222.908 14.0173 223.705 13.2339 224.674 13.2339C225.657 13.2339 226.44 14.0315 226.44 15C226.44 15.9685 225.657 16.7661 224.688 16.7661V19.1589C226.981 19.1589 228.833 17.2931 228.833 15C228.833 12.7069 226.967 10.8411 224.674 10.8411C222.381 10.8411 220.515 12.7069 220.515 15C220.515 15.0143 220.515 15.0142 220.515 15.0285H222.908Z" fill="#ADB4BA"/>
<path d="M230.798 11.9948C231.24 12.9063 231.496 13.9176 231.496 15C231.496 18.7744 228.434 21.8223 224.674 21.8223C220.899 21.8223 217.851 18.7601 217.851 15C217.851 11.3681 220.7 8.39134 224.275 8.1777L225.984 5.57121C225.557 5.51424 225.129 5.48574 224.688 5.48574C219.432 5.48574 215.174 9.7444 215.174 15C215.174 20.2556 219.432 24.5142 224.688 24.5142C229.944 24.5142 234.202 20.2556 234.202 15C234.202 12.949 233.547 11.0547 232.45 9.50226L230.798 11.9948Z" fill="#ADB4BA"/>
<path d="M351.599 14.6633V22.9274H348.966V2.54257H355.945C357.598 2.48135 359.251 3.15473 360.414 4.31783C361.638 5.41971 362.311 6.95011 362.311 8.60293C362.373 10.2558 361.638 11.8474 360.414 12.9492C359.189 14.1123 357.72 14.6633 355.945 14.6633H351.599ZM351.599 5.05242V12.1534H356.006C356.986 12.1534 357.904 11.7861 358.577 11.1128C359.924 9.76603 359.985 7.56226 358.639 6.21552L358.577 6.1543C357.904 5.41971 356.986 5.05242 356.006 5.05242H351.599Z" fill="#ADB4BA"/>
<path d="M368.31 8.54175C370.269 8.54175 371.739 9.03147 372.902 10.0721C374.004 11.1128 374.554 12.5208 374.554 14.296V22.8662H372.045V20.9073H371.922C370.82 22.4989 369.412 23.2947 367.576 23.2947C366.045 23.2947 364.76 22.8662 363.719 21.948C362.74 21.091 362.128 19.8667 362.189 18.5199C362.189 17.0507 362.74 15.9489 363.842 15.0918C364.944 14.2348 366.413 13.8063 368.188 13.8063C369.718 13.8063 371.004 14.1124 372.045 14.6633V14.0512C372.045 13.1329 371.677 12.3371 370.943 11.725C370.269 11.1128 369.351 10.7455 368.433 10.7455C366.964 10.7455 365.801 11.3577 364.944 12.582L362.617 11.1128C363.964 9.39877 365.801 8.54175 368.31 8.54175ZM364.944 18.6423C364.944 19.3157 365.25 19.9279 365.801 20.3564C366.352 20.7849 367.086 21.0298 367.821 21.0298C368.923 21.0298 369.963 20.6013 370.759 19.8054C371.616 19.0096 372.045 18.0302 372.045 16.9283C371.249 16.2549 370.086 15.9489 368.617 15.9489C367.576 15.9489 366.658 16.1937 365.984 16.7447C365.311 17.2344 364.944 17.8465 364.944 18.6423Z" fill="#ADB4BA"/>
<path d="M388.88 8.97025L380.126 29.049H377.432L380.677 22.0092L374.922 8.97025H377.738L381.901 18.9484H381.962L386.002 8.97025H388.88Z" fill="#ADB4BA"/>
<path d="M341.07 12.888C341.07 12.0922 341.009 11.2964 340.886 10.5006H329.867V15.0306H336.173C335.928 16.4998 335.071 17.7853 333.846 18.5811V21.5194H337.642C339.784 19.4381 341.07 16.4385 341.07 12.888Z" fill="#ADB4BA"/>
<path d="M329.806 24.2742C332.989 24.2742 335.621 23.2335 337.58 21.4583L333.785 18.5199C332.744 19.2545 331.397 19.6218 329.806 19.6218C326.745 19.6218 324.174 17.5405 323.256 14.7858H319.399V17.7853C321.358 21.8256 325.398 24.2742 329.806 24.2742Z" fill="#ADB4BA"/>
<path d="M323.256 14.847C322.766 13.3778 322.766 11.8474 323.256 10.3782V7.37865H319.399C317.747 10.6843 317.747 14.5409 319.399 17.8465L323.256 14.847Z" fill="#ADB4BA"/>
<path d="M329.806 5.54217C331.459 5.54217 333.112 6.15433 334.275 7.31743L337.581 4.01178C335.438 2.05287 332.683 0.950989 329.745 0.950989C325.337 0.950989 321.297 3.46083 319.277 7.37864L323.134 10.3782C324.174 7.6235 326.807 5.54217 329.806 5.54217Z" fill="#ADB4BA"/>
<path d="M433.462 4.55657C432.636 5.50886 431.367 6.27069 430.097 6.14371C429.906 4.874 430.541 3.4773 431.303 2.65199C432.128 1.6997 433.525 1.00135 434.668 0.937866C434.795 2.27107 434.287 3.54079 433.462 4.55657ZM434.604 6.39766C432.763 6.27069 431.176 7.47692 430.287 7.47692C429.399 7.47692 428.065 6.46114 426.542 6.52463C424.637 6.52463 422.859 7.66738 421.844 9.3815C419.812 12.8097 421.336 17.9521 423.24 20.7455C424.193 22.1422 425.335 23.6658 426.859 23.6023C428.256 23.5389 428.827 22.6501 430.541 22.6501C432.255 22.6501 432.763 23.6023 434.287 23.5389C435.811 23.5389 436.826 22.1422 437.779 20.7455C438.858 19.1583 439.302 17.6347 439.302 17.5712C439.302 17.5712 436.318 16.4284 436.255 13.0002C436.255 10.1433 438.604 8.74664 438.731 8.68315C437.461 6.6516 435.366 6.46114 434.604 6.39766ZM445.397 2.52501V23.4119H448.635V16.238H453.142C457.269 16.238 460.126 13.4446 460.126 9.3815C460.126 5.3184 457.269 2.52501 453.206 2.52501H445.397ZM448.635 5.25491H452.38C455.174 5.25491 456.824 6.77857 456.824 9.3815C456.824 11.9844 455.237 13.5081 452.38 13.5081H448.635V5.25491V5.25491ZM466.03 23.5389C468.061 23.5389 469.966 22.5231 470.791 20.8725H470.855V23.3484H473.839V13.0002C473.839 10.0164 471.426 8.04829 467.744 8.04829C464.316 8.04829 461.776 10.0164 461.649 12.7463H464.57C464.824 11.4765 466.03 10.5877 467.617 10.5877C469.585 10.5877 470.728 11.54 470.728 13.1907V14.3334L466.665 14.5873C462.919 14.8413 460.888 16.365 460.888 19.0314C460.888 21.7613 462.983 23.5389 466.03 23.5389ZM466.855 21.0629C465.141 21.0629 464.062 20.2376 464.062 18.9679C464.062 17.6347 465.141 16.8728 467.173 16.7459L470.791 16.4919V17.6982C470.728 19.6662 469.077 21.0629 466.855 21.0629ZM477.838 29.0621C481.013 29.0621 482.473 27.8559 483.806 24.1737L489.52 8.23875H486.218L482.409 20.555H482.346L478.537 8.23875H475.172L480.632 23.4119L480.314 24.3642C479.806 25.9513 479.045 26.5227 477.584 26.5227C477.33 26.5227 476.823 26.5227 476.632 26.4592V28.9352C476.823 28.9987 477.584 29.0621 477.838 29.0621Z" fill="#ADB4BA"/>
<defs>
<clipPath id="clip0_317_183452">
<rect width="73" height="23" fill="white" transform="translate(0.480301 3.5)"/>
</clipPath>
<clipPath id="clip1_317_183452">
<rect width="47" height="30" fill="white" transform="translate(105.48)"/>
</clipPath>
</defs>
</svg>
