<svg width="453" height="58" viewBox="0 0 453 58" fill="none" xmlns="http://www.w3.org/2000/svg">
<path fill-rule="evenodd" clip-rule="evenodd" d="M29.4684 32.0843C28.9075 29.467 26.4395 28.4051 26.4395 28.4051C26.4395 28.4051 27.262 21.5394 27.6733 18.0119C28.4214 14.1805 31.0015 10.9189 31.0015 10.9189V32.0843H29.4684ZM31.0015 43.5773H24.7192C24.7192 43.5773 24.7192 41.2257 24.1207 39.291C24.7192 39.291 28.6644 38.7032 29.4684 34.9667H31.0015V43.5773ZM18.3614 43.5395C18.3614 43.5395 18.4721 40.4701 21.3345 40.0116C21.5775 40.8082 21.7834 41.7754 21.7834 43.5395H18.3614ZM18.399 52.2634V46.3844H21.3159C21.3159 46.3844 20.998 49.8167 18.399 52.2634ZM16.9404 39.4235C16.9404 39.4235 14.4351 37.6979 13.687 37.2049C15.6876 34.1323 16.9404 29.4289 16.9404 29.4289C16.9404 29.4289 18.1932 34.1323 20.1941 37.2049C19.4464 37.6979 16.9404 39.4235 16.9404 39.4235ZM12.0974 43.5395C12.0974 41.7754 12.3036 40.8082 12.5463 40.0116C15.4091 40.4701 15.5193 43.5395 15.5193 43.5395H12.0974ZM15.4821 52.2634C12.8831 49.8167 12.5652 46.3844 12.5652 46.3844H15.4821V52.2634ZM9.16228 43.5769H2.87928V34.9667H4.41243C5.21665 38.7032 9.16228 39.291 9.7604 39.291C9.16228 41.2257 9.16228 43.5769 9.16228 43.5769ZM2.87928 10.9189C2.87928 10.9189 5.45974 14.1805 6.20745 18.0119C6.61907 21.5394 7.44166 28.4051 7.44166 28.4051C7.44166 28.4051 4.97365 29.467 4.41243 32.084H2.87928V10.9189ZM24.7937 17.7654C23.7843 26.755 23.3354 30.7374 23.3354 30.7374C23.3354 30.7374 23.5595 30.6619 24.0083 30.6619C24.4572 30.6619 26.8321 31.2685 26.8321 33.4498C26.8321 35.631 24.8874 36.3706 23.9897 36.3706C23.0923 36.3706 23.0175 36.2184 23.0175 36.2184C23.0175 36.2184 18.6234 30.036 18.6234 20.7428C18.6234 14.8068 19.0161 9.3824 19.0161 6.32912C19.0161 5.79798 18.9881 2.91531 16.9404 0.613792V0.613464C14.8933 2.91532 14.865 5.79798 14.865 6.32912C14.865 9.3824 15.2577 14.8065 15.2577 20.7428C15.2577 30.036 10.8636 36.2184 10.8636 36.2184C10.8636 36.2184 10.7888 36.3706 9.89137 36.3706C8.99366 36.3706 7.04932 35.631 7.04932 33.4498C7.04932 31.2685 9.42357 30.6619 9.87243 30.6619C10.3213 30.6619 10.5458 30.7374 10.5458 30.7374C10.5458 30.7374 10.0972 26.755 9.08716 17.7654C7.12419 8.14985 0 4.79269 0 4.79269V46.3844H9.49879C9.49879 46.3844 10.1907 52.2441 15.2577 55.9807C15.2577 55.9807 16.8656 57.3843 16.9404 57.8392C17.0156 57.3843 18.6234 55.9807 18.6234 55.9807C23.6905 52.2445 24.3824 46.3844 24.3824 46.3844H33.8811V4.79302C33.8811 4.79302 26.7573 8.14985 24.7937 17.7654Z" fill="#CC2028"/>
<path d="M354.901 35.0356H353.465L350.76 41.9668L348.056 35.0356H346.62L350.76 45.5033L354.901 35.0356Z" fill="#000005"/>
<path d="M351.453 42.5833H350.068V47.5091H351.453V42.5833Z" fill="#000005"/>
<path d="M195.824 34.9822H194.541V45.4499H195.824V34.9822Z" fill="#000005"/>
<path d="M271.298 34.9822H270.015V45.4499H271.298V34.9822Z" fill="#000005"/>
<path d="M334.497 34.9822H333.214V45.4499H334.497V34.9822Z" fill="#000005"/>
<path d="M258.995 45.4498H257.559L254.855 37.1611L252.15 45.4498H250.714L254.855 33.7745L258.995 45.4498Z" fill="#000005"/>
<path d="M257.222 40.972H252.487V42.274H257.222V40.972Z" fill="#000005"/>
<path d="M248.479 34.9821H247.196L244.242 42.2739L241.287 34.9821H240.004L244.238 45.4498L244.242 45.4414L244.245 45.4498L248.479 34.9821Z" fill="#000005"/>
<path d="M240.336 34.9822H239.052V45.4499H240.336V34.9822Z" fill="#000005"/>
<path d="M249.431 34.9822H248.147V45.4499H249.431V34.9822Z" fill="#000005"/>
<path d="M222.04 44.2483C219.83 44.2483 218.038 42.4306 218.038 40.1887C218.038 37.9465 219.83 36.1288 222.04 36.1288C224.251 36.1288 226.043 37.9465 226.043 40.1887C226.043 42.4306 224.251 44.2483 222.04 44.2483ZM222.04 34.746C219.077 34.746 216.674 37.1826 216.674 40.1887C216.674 43.1941 219.077 45.631 222.04 45.631C225.004 45.631 227.406 43.1941 227.406 40.1887C227.406 37.1826 225.004 34.746 222.04 34.746Z" fill="#000005"/>
<path d="M317.309 44.2483C315.098 44.2483 313.306 42.4306 313.306 40.1887C313.306 37.9465 315.098 36.1288 317.309 36.1288C319.519 36.1288 321.311 37.9465 321.311 40.1887C321.311 42.4306 319.519 44.2483 317.309 44.2483ZM317.309 34.746C314.345 34.746 311.943 37.1826 311.943 40.1887C311.943 43.1941 314.345 45.631 317.309 45.631C320.272 45.631 322.675 43.1941 322.675 40.1887C322.675 37.1826 320.272 34.746 317.309 34.746Z" fill="#000005"/>
<path d="M283.084 16.2209H281.801V26.6886H283.084V16.2209Z" fill="#000005"/>
<path d="M287.265 20.7588H282.442V22.0605H287.265V20.7588Z" fill="#000005"/>
<path d="M288.896 16.2209H282.442V17.5228H288.896V16.2209Z" fill="#000005"/>
<path d="M275.151 25.5714C272.94 25.5714 271.148 23.7537 271.148 21.5115C271.148 19.2692 272.94 17.4518 275.151 17.4518C277.361 17.4518 279.153 19.2692 279.153 21.5115C279.153 23.7537 277.361 25.5714 275.151 25.5714ZM275.151 16.0692C272.187 16.0692 269.785 18.5053 269.785 21.5115C269.785 24.5172 272.187 26.9541 275.151 26.9541C278.114 26.9541 280.517 24.5172 280.517 21.5115C280.517 18.5053 278.114 16.0692 275.151 16.0692Z" fill="#000005"/>
<path d="M275.151 25.5714C272.94 25.5714 271.148 23.7537 271.148 21.5115C271.148 19.2692 272.94 17.4518 275.151 17.4518C277.361 17.4518 279.153 19.2692 279.153 21.5115C279.153 23.7537 277.361 25.5714 275.151 25.5714ZM275.151 16.0692C272.187 16.0692 269.785 18.5053 269.785 21.5115C269.785 24.5172 272.187 26.9541 275.151 26.9541C278.114 26.9541 280.517 24.5172 280.517 21.5115C280.517 18.5053 278.114 16.0692 275.151 16.0692Z" fill="#000005"/>
<path d="M376.795 34.9787H375.511V45.4465H376.795V34.9787Z" fill="#000005"/>
<path d="M380.976 39.5167H376.154V40.8186H380.976V39.5167Z" fill="#000005"/>
<path d="M382.607 34.9787H376.154V36.2807H382.607V34.9787Z" fill="#000005"/>
<path d="M368.862 44.3292C366.651 44.3292 364.86 42.5118 364.86 40.2696C364.86 38.0273 366.651 36.2096 368.862 36.2096C371.073 36.2096 372.865 38.0273 372.865 40.2696C372.865 42.5118 371.073 44.3292 368.862 44.3292ZM368.862 34.8269C365.898 34.8269 363.496 37.2635 363.496 40.2696C363.496 43.275 365.898 45.7119 368.862 45.7119C371.826 45.7119 374.228 43.275 374.228 40.2696C374.228 37.2635 371.826 34.8269 368.862 34.8269Z" fill="#000005"/>
<path d="M278.856 44.2483C276.646 44.2483 274.854 42.4306 274.854 40.1887C274.854 37.9465 276.646 36.1288 278.856 36.1288C281.067 36.1288 282.859 37.9465 282.859 40.1887C282.859 42.4306 281.067 44.2483 278.856 44.2483ZM278.856 34.746C275.893 34.746 273.49 37.1826 273.49 40.1887C273.49 43.1941 275.893 45.631 278.856 45.631C281.82 45.631 284.222 43.1941 284.222 40.1887C284.222 37.1826 281.82 34.746 278.856 34.746Z" fill="#000005"/>
<path d="M325.696 34.9822H324.413V45.4499H325.696V34.9822Z" fill="#000005"/>
<path d="M331.477 44.1483H324.413V45.4499H331.477V44.1483Z" fill="#000005"/>
<path d="M263.947 34.9822H262.663V45.4499H263.947V34.9822Z" fill="#000005"/>
<path d="M267.823 34.9791H258.786V36.281H267.823V34.9791Z" fill="#000005"/>
<path d="M344.114 43.4727C343.511 43.8424 342.812 44.0671 342.056 44.0671C339.845 44.0671 338.053 42.2493 338.053 40.0071C338.053 37.7651 339.845 35.9474 342.056 35.9474C343.104 35.9474 344.05 36.3654 344.764 37.0342L345.681 36.0174C344.725 35.1231 343.459 34.5648 342.056 34.5648C339.092 34.5648 336.69 37.0013 336.69 40.0071C336.69 43.0132 339.092 45.4498 342.056 45.4498C343.352 45.4498 344.525 44.9647 345.453 44.1883L344.114 43.4727Z" fill="#000005"/>
<path d="M206.827 34.9808H205.544V45.4486H206.827V34.9808Z" fill="#000005"/>
<path d="M200.179 34.9807H198.896L204.903 45.4498H206.187L200.179 34.9807Z" fill="#000005"/>
<path d="M199.299 34.9808H198.016V45.4486H199.299V34.9808Z" fill="#000005"/>
<path d="M294.317 34.9808H293.034V45.4486H294.317V34.9808Z" fill="#000005"/>
<path d="M287.669 34.9807H286.385L292.392 45.4498H293.676L287.669 34.9807Z" fill="#000005"/>
<path d="M286.789 34.9808H285.505V45.4486H286.789V34.9808Z" fill="#000005"/>
<path d="M210.304 34.9822H209.02V45.4499H210.304V34.9822Z" fill="#000005"/>
<path d="M214.484 39.5202H209.661V40.8222H214.484V39.5202Z" fill="#000005"/>
<path d="M216.115 34.9822H209.661V36.2841H216.115V34.9822Z" fill="#000005"/>
<path d="M230.318 34.9584H229.035V45.4496H230.318V34.9584Z" fill="#000005"/>
<path d="M233.206 34.9585H229.379V36.1825H233.121C234.38 36.1825 235.4 37.2179 235.4 38.4947C235.4 39.7715 234.38 40.8068 233.121 40.8068H229.379V42.0776H233.206C235.145 42.0776 236.716 40.4839 236.716 38.5181C236.716 36.5522 235.145 34.9585 233.206 34.9585Z" fill="#000005"/>
<path d="M234.33 41.2269H233.047L235.451 45.4497H236.734L234.33 41.2269Z" fill="#000005"/>
<path d="M304.27 34.9584H302.987V45.4496H304.27V34.9584Z" fill="#000005"/>
<path d="M307.159 34.9585H303.331V36.1825H307.073C308.332 36.1825 309.353 37.2179 309.353 38.4947C309.353 39.7715 308.332 40.8068 307.073 40.8068H303.331V42.0776H307.159C309.097 42.0776 310.668 40.4839 310.668 38.5181C310.668 36.5522 309.097 34.9585 307.159 34.9585Z" fill="#000005"/>
<path d="M377.574 26.6886H376.139L373.433 18.3999L370.729 26.6886H369.293L373.433 15.0129L377.574 26.6886Z" fill="#000005"/>
<path d="M375.802 22.211H371.066V23.513H375.802V22.211Z" fill="#000005"/>
<path d="M393.079 25.3623H390.626V17.575H393.079C395.199 17.626 397.082 19.3179 397.082 21.4683C397.082 23.6193 395.29 25.3623 393.079 25.3623ZM393.039 16.2391C391.955 16.2314 391.209 16.223 390.626 16.2203C389.77 16.2161 389.342 16.2203 389.342 16.2203V26.6879H390.626C391.376 26.6887 391.376 26.6887 393.079 26.6887C396.043 26.6887 398.445 24.3514 398.445 21.4683C398.445 18.5855 396.003 16.2601 393.039 16.2391Z" fill="#000005"/>
<path d="M387.692 16.2767H386.409V26.7445H387.692V16.2767Z" fill="#000005"/>
<path d="M381.043 16.2769H379.76L385.767 26.7463H387.05L381.043 16.2769Z" fill="#000005"/>
<path d="M380.164 16.2767H378.88V26.7445H380.164V16.2767Z" fill="#000005"/>
<path d="M203.968 16.2209H202.684L199.73 23.5128L196.775 16.2209H195.492L199.726 26.6886L199.73 26.6802L199.733 26.6886L203.968 16.2209Z" fill="#000005"/>
<path d="M195.824 16.2209H194.541V26.6886H195.824V16.2209Z" fill="#000005"/>
<path d="M204.92 16.2209H203.636V26.6886H204.92V16.2209Z" fill="#000005"/>
<path d="M208.74 16.2209H207.456V26.6886H208.74V16.2209Z" fill="#000005"/>
<path d="M220.088 16.2191H218.804V26.6869H220.088V16.2191Z" fill="#000005"/>
<path d="M213.439 16.2191H212.156L218.163 26.6887H219.446L213.439 16.2191Z" fill="#000005"/>
<path d="M212.56 16.2191H211.276V26.6869H212.56V16.2191Z" fill="#000005"/>
<path d="M238.816 16.2209H237.532V26.6886H238.816V16.2209Z" fill="#000005"/>
<path d="M242.693 16.2209H233.656V17.5228H242.693V16.2209Z" fill="#000005"/>
<path d="M261.188 16.2776H259.753L257.048 23.2088L254.343 16.2776H252.907L257.048 26.7453L261.188 16.2776Z" fill="#000005"/>
<path d="M257.74 23.8257H256.355V28.7515H257.74V23.8257Z" fill="#000005"/>
<path d="M223.908 16.2209H222.624V26.6886H223.908V16.2209Z" fill="#000005"/>
<path d="M225.862 25.4329C225.954 25.5052 226.186 25.688 226.243 25.7344C227.215 26.535 228.221 26.941 229.235 26.941C230.218 26.941 231.065 26.6713 231.753 26.1387C232.422 25.6044 232.762 24.9032 232.762 24.0551C232.762 23.5715 232.663 23.1368 232.467 22.7629C232.271 22.3898 232.014 22.0903 231.704 21.8726C231.399 21.6584 231.054 21.4634 230.681 21.2926C230.31 21.1234 229.933 20.9648 229.563 20.8205C229.194 20.6776 228.854 20.5242 228.55 20.3656C228.252 20.2097 228.004 20.0021 227.815 19.7488C227.628 19.499 227.533 19.1999 227.533 18.8616C227.533 18.4021 227.698 18.0454 228.037 17.7721C228.375 17.5003 228.84 17.3619 229.418 17.3619C229.901 17.3619 230.369 17.4681 230.812 17.677C230.862 17.7009 230.964 17.7581 230.964 17.7581L231.575 18.1125L232.392 17.1232L231.808 16.7539C231.064 16.307 230.234 16.0806 229.342 16.0806C228.338 16.0806 227.536 16.3457 226.961 16.8689C226.373 17.394 226.075 18.0642 226.075 18.8616C226.075 19.3358 226.174 19.7607 226.371 20.1245C226.566 20.4879 226.822 20.7841 227.132 21.0064C227.438 21.2265 227.783 21.4268 228.155 21.6015C228.53 21.7772 228.906 21.9411 229.274 22.0889C229.644 22.2378 229.984 22.396 230.286 22.5582C230.585 22.7193 230.832 22.9292 231.022 23.1829C231.209 23.4335 231.304 23.7322 231.304 24.0702C231.304 24.5594 231.114 24.9371 230.725 25.2261C230.336 25.5136 229.84 25.6594 229.25 25.6594C228.63 25.6594 227.896 25.3543 227.071 24.7529C227.012 24.7127 226.805 24.5545 226.726 24.4937L225.862 25.4329Z" fill="#000005"/>
<path d="M245.26 16.1971H243.976V26.6885H245.26V16.1971Z" fill="#000005"/>
<path d="M248.148 16.197H244.32V17.421H248.062C249.321 17.421 250.342 18.4564 250.342 19.7332V19.7335C250.342 21.0103 249.321 22.0453 248.062 22.0453H244.32V23.3165H248.148C250.086 23.3165 251.657 21.7225 251.657 19.7569C251.657 17.7911 250.086 16.197 248.148 16.197Z" fill="#000005"/>
<path d="M249.272 22.4655H247.989L250.393 26.6887H251.677L249.272 22.4655Z" fill="#000005"/>
<path fill-rule="evenodd" clip-rule="evenodd" d="M354.871 26.6859L353.587 26.6842L353.601 16.2165L354.885 16.2182L354.871 26.6859Z" fill="#000005"/>
<path fill-rule="evenodd" clip-rule="evenodd" d="M360.691 20.7631L360.689 22.0641L354.236 22.0571L354.237 20.7562L360.691 20.7631Z" fill="#000005"/>
<path fill-rule="evenodd" clip-rule="evenodd" d="M360.696 16.225L360.695 17.526L354.241 17.519L354.243 16.218L360.696 16.225Z" fill="#000005"/>
<path fill-rule="evenodd" clip-rule="evenodd" d="M360.686 25.3913L360.684 26.6922L354.231 26.6852L354.232 25.3843L360.686 25.3913Z" fill="#000005"/>
<path d="M328.916 16.486H327.632V26.6885H328.916V16.486Z" fill="#000005"/>
<path d="M332.793 16.2215H323.756V17.5231H332.793V16.2215Z" fill="#000005"/>
<path d="M319.579 16.2209H318.296V26.6886H319.579V16.2209Z" fill="#000005"/>
<path d="M325.36 25.387H318.296V26.689H325.36V25.387Z" fill="#000005"/>
<path d="M304.917 24.9201C304.313 25.2897 303.614 25.5144 302.858 25.5144C300.648 25.5144 298.856 23.6967 298.856 21.4545C298.856 19.2125 300.648 17.3948 302.858 17.3948C303.906 17.3948 304.852 17.8127 305.566 18.4815L306.484 17.4647C305.528 16.5705 304.262 16.0121 302.858 16.0121C299.895 16.0121 297.492 18.4487 297.492 21.4545C297.492 24.4606 299.895 26.8971 302.858 26.8971C304.155 26.8971 305.327 26.4121 306.255 25.6357L304.917 24.9201Z" fill="#000005"/>
<path d="M316.668 22.4246V16.2411H315.384V22.4246C315.384 24.2049 313.966 25.648 312.217 25.648C310.468 25.648 309.051 24.2049 309.051 22.4246V16.2411H307.767V22.4246C307.767 24.9261 309.76 26.9542 312.217 26.9542C314.675 26.9542 316.668 24.9261 316.668 22.4246Z" fill="#000005"/>
<path d="M403.037 35.0157H401.753V45.4485H403.037V35.0157Z" fill="#000005"/>
<path d="M406.009 39.5639H402.395V40.8658H406.009V39.5639Z" fill="#000005"/>
<path d="M408.423 35.0159H409.707L406.616 40.7964H405.333L408.423 35.0159Z" fill="#000005"/>
<path d="M408.423 45.4487H409.707L406.616 39.5641H405.333L408.423 45.4487Z" fill="#000005"/>
<path d="M442.541 34.9797H441.257V45.4475H442.541V34.9797Z" fill="#000005"/>
<path d="M435.893 34.9797H434.609L440.616 45.4487H441.9L435.893 34.9797Z" fill="#000005"/>
<path d="M435.013 34.9797H433.73V45.4475H435.013V34.9797Z" fill="#000005"/>
<path d="M428.291 45.4487H426.855L424.15 37.1601L421.445 45.4487H420.01L424.15 33.7735L428.291 45.4487Z" fill="#000005"/>
<path d="M426.518 40.971H421.783V42.273H426.518V40.971Z" fill="#000005"/>
<path d="M431.202 34.9811H429.918V45.4489H431.202V34.9811Z" fill="#000005"/>
<path d="M412.291 34.9574H411.008V45.4486H412.291V34.9574Z" fill="#000005"/>
<path d="M415.18 34.9575H411.353V36.1816H415.094C416.353 36.1816 417.374 37.2169 417.374 38.4937C417.374 39.7705 416.353 40.8058 415.094 40.8058H411.353V42.0767H415.18C417.118 42.0767 418.69 40.483 418.69 38.5171C418.69 36.5512 417.118 34.9575 415.18 34.9575Z" fill="#000005"/>
<path d="M416.304 41.226H415.021L417.425 45.4487H418.709L416.304 41.226Z" fill="#000005"/>
<path fill-rule="evenodd" clip-rule="evenodd" d="M446.258 45.442L444.973 45.4402L444.987 34.9725L446.272 34.9742L446.258 45.442Z" fill="#000005"/>
<path fill-rule="evenodd" clip-rule="evenodd" d="M452.077 39.5192L452.076 40.8201L445.622 40.8131L445.623 39.5121L452.077 39.5192Z" fill="#000005"/>
<path fill-rule="evenodd" clip-rule="evenodd" d="M452.083 34.981L452.081 36.282L445.628 36.275L445.629 34.974L452.083 34.981Z" fill="#000005"/>
<path fill-rule="evenodd" clip-rule="evenodd" d="M452.072 44.1474L452.071 45.4483L445.617 45.4413L445.619 44.1403L452.072 44.1474Z" fill="#000005"/>
<path d="M400.104 41.1994V35.0159H398.82V41.1994C398.82 42.9797 397.402 44.4228 395.653 44.4228C393.904 44.4228 392.486 42.9797 392.486 41.1994V35.0159H391.203V41.1994C391.203 43.7009 393.195 45.7289 395.653 45.7289C398.111 45.7289 400.104 43.7009 400.104 41.1994Z" fill="#000005"/>
<path d="M342.977 22.4246V16.2411H341.693V22.4246C341.693 24.2049 340.276 25.648 338.527 25.648C336.778 25.648 335.36 24.2049 335.36 22.4246V16.2411H334.076V22.4246C334.076 24.9261 336.069 26.9542 338.527 26.9542C340.984 26.9542 342.977 24.9261 342.977 22.4246Z" fill="#000005"/>
<path d="M345.888 16.1971H344.605V26.6885H345.888V16.1971Z" fill="#000005"/>
<path d="M348.777 16.197H344.949V17.421H348.691C349.95 17.421 350.971 18.4564 350.971 19.7332V19.7335C350.971 21.0103 349.95 22.0453 348.691 22.0453H344.949V23.3165H348.777C350.715 23.3165 352.287 21.7225 352.287 19.7569C352.287 17.7911 350.715 16.197 348.777 16.197Z" fill="#000005"/>
<path d="M349.901 22.4655H348.618L351.022 26.6887H352.305L349.901 22.4655Z" fill="#000005"/>
<path d="M110.835 13.5583C108.572 11.7748 105.697 11.1647 102.933 11.8789C99.2034 12.8493 94.9477 14.566 91.1169 17.5494C87.286 14.566 83.0314 12.8493 79.3024 11.8789C76.5378 11.1647 73.6615 11.7748 71.3986 13.5583C69.0945 15.3721 67.7726 18.1068 67.7726 21.0597V45.5544H69.9695V21.0597C69.9695 18.7975 70.981 16.7055 72.7445 15.3176C74.4718 13.9587 76.6601 13.4905 78.7578 14.0366C82.1057 14.907 85.9083 16.4274 89.3699 19.0222C85.9989 22.1346 83.1113 26.3877 81.4488 32.2162C80.7005 34.8376 80.7353 37.4957 81.5493 39.9011C82.5453 42.8503 84.9802 46.3036 90.7227 46.6097H91.5107C97.2545 46.3036 99.6885 42.8503 100.684 39.9011C101.5 37.4957 101.533 34.8376 100.785 32.2162C99.1221 26.3877 96.2345 22.1346 92.8646 19.0222C96.3255 16.4274 100.129 14.907 103.477 14.0366C105.574 13.4905 107.762 13.9587 109.491 15.3176C111.252 16.7055 112.265 18.7975 112.265 21.0597V45.5544H114.461V21.0597C114.461 18.1068 113.14 15.3721 110.835 13.5583ZM98.6753 32.8343C99.2882 34.9833 99.2644 37.2361 98.6084 39.1785C97.4689 42.5518 94.9415 44.3024 91.1169 44.4178C87.2932 44.3024 84.7646 42.5518 83.6253 39.1785C82.969 37.2361 82.9453 34.9833 83.5592 32.8343C85.1311 27.3277 87.8979 23.3474 91.1169 20.4538C94.3356 23.3474 97.1036 27.3277 98.6753 32.8343Z" fill="#CC2028"/>
<path d="M153.632 22.2802C149.508 22.2802 146.156 18.8796 146.156 14.6977C146.156 10.5168 149.508 7.11621 153.632 7.11621C157.755 7.11621 161.108 10.5168 161.108 14.6977C161.108 18.8796 157.755 22.2802 153.632 22.2802ZM153.632 9.15792C150.619 9.15792 148.168 11.643 148.168 14.6977C148.168 17.7534 150.619 20.2392 153.632 20.2392C156.644 20.2392 159.095 17.7534 159.095 14.6977C159.095 11.643 156.644 9.15792 153.632 9.15792Z" fill="#CC2028"/>
<path d="M154.681 30.2841H152.583V45.5515H154.681V30.2841Z" fill="#CC2028"/>
<path d="M167.014 35.9169H164.916V45.5516H167.014V35.9169Z" fill="#CC2028"/>
<path d="M175.286 32.2423C170.646 32.2423 166.87 28.4126 166.87 23.7023C166.87 18.9955 170.646 15.1659 175.286 15.1659C179.93 15.1659 183.706 18.9955 183.706 23.7023C183.706 28.4126 179.93 32.2423 175.286 32.2423ZM175.286 13.0937C169.519 13.0937 164.827 17.8529 164.827 23.7023C164.827 29.5552 169.519 34.3144 175.286 34.3144C181.053 34.3144 185.745 29.5552 185.745 23.7023C185.745 17.8529 181.053 13.0937 175.286 13.0937Z" fill="#CC2028"/>
<path d="M121.891 28.7859C121.891 33.4997 123.273 37.1651 125.998 39.681C128.465 41.9523 131.944 43.1508 136.054 43.1508H140.632V45.4395H136.054C125.932 45.4395 119.645 39.0555 119.645 28.7859C119.645 23.6109 121.316 19.306 124.482 16.3394C127.411 13.5932 131.41 12.1393 136.054 12.1393H140.632V14.4246H136.054C131.989 14.4246 128.513 15.6685 126.005 18.0201C123.314 20.543 121.891 24.2647 121.891 28.7859Z" fill="#CC2028"/>
</svg>
