<svg xmlns="http://www.w3.org/2000/svg" fill="none" width="129" height="42" viewBox="0 0 129 42">
  <path fill="#CC2028"
    d="M46.45 6.85a9.83 9.83 0 0 0-8.53-1.79 35.35 35.35 0 0 0-12.74 6.03c-4.13-3.17-8.72-5-12.74-6.03A10.03 10.03 0 0 0 0 14.82v26.06h2.37V14.83a7.68 7.68 0 0 1 9.48-7.47c3.61.92 7.71 2.54 11.45 5.3a29.69 29.69 0 0 0-8.55 14.03 13.5 13.5 0 0 0 .11 8.17c1.07 3.14 3.7 6.81 9.9 7.14h.84c6.2-.33 8.82-4 9.9-7.14.88-2.55.91-5.38.1-8.17a29.7 29.7 0 0 0-8.54-14.03 33.1 33.1 0 0 1 11.45-5.3A7.68 7.68 0 0 1 48 14.83v26.05h2.37V14.83c0-3.14-1.43-6.05-3.91-7.98Zm-13.12 20.5c.66 2.28.64 4.68-.07 6.75-1.23 3.58-3.96 5.44-8.08 5.57-4.12-.13-6.85-1.99-8.08-5.57a11.3 11.3 0 0 1-.07-6.75 27.31 27.31 0 0 1 8.15-13.17 27.32 27.32 0 0 1 8.15 13.17ZM92.6 16.13a8.07 8.07 0 1 1 .02-16.15 8.07 8.07 0 0 1-.01 16.15Zm0-13.96a5.9 5.9 0 1 0 .02 11.8 5.9 5.9 0 0 0-.01-11.8Zm1.14 22.47h-2.26v16.23h2.26V24.64Zm13.3 5.99h-2.26v10.24h2.26V30.63Zm8.93-3.91a9.09 9.09 0 0 1 0-18.16 9.09 9.09 0 0 1 0 18.16Zm0-20.36a11.3 11.3 0 0 0 0 22.56 11.3 11.3 0 0 0 0-22.56Zm-57.6 16.68c0 5.02 1.5 8.91 4.43 11.59 2.66 2.42 6.42 3.69 10.85 3.69h4.94v2.43h-4.94c-10.92 0-17.7-6.79-17.7-17.7 0-5.5 1.8-10.09 5.22-13.24 3.16-2.92 7.47-4.47 12.48-4.47h4.94v2.43h-4.94c-4.39 0-8.14 1.32-10.84 3.83-2.9 2.68-4.44 6.64-4.44 11.44Z" />
</svg>