<svg width="864" height="44" viewBox="0 0 864 44" fill="none" xmlns="http://www.w3.org/2000/svg">
<path d="M48.4379 7.17677C45.8928 5.18987 42.6583 4.51019 39.5492 5.3059C35.3544 6.38695 30.5675 8.29948 26.2584 11.6231C21.9494 8.29948 17.1636 6.38695 12.9692 5.3059C9.85981 4.51019 6.62408 5.18987 4.07898 7.17677C1.48692 9.1975 0 12.2441 0 15.5338V42.8222H2.47116V15.5338C2.47116 13.0136 3.60895 10.683 5.5926 9.13678C7.53551 7.62289 9.99699 7.10129 12.3566 7.70968C16.1228 8.67936 20.3997 10.3732 24.2938 13.2639C20.502 16.7313 17.2539 21.4695 15.3834 27.9626C14.5417 30.8831 14.5809 33.8443 15.4965 36.5241C16.6168 39.8096 19.3557 43.6568 25.8156 43.9978H26.7013C33.1623 43.6568 35.9001 39.8096 37.0204 36.5241C37.9372 33.8443 37.9751 30.8831 37.1335 27.9626C35.263 21.4695 32.0153 16.7313 28.2242 13.2639C32.1172 10.3732 36.3953 8.67936 40.1619 7.70968C42.5211 7.10129 44.9814 7.62289 46.9258 9.13678C48.9075 10.683 50.0468 13.0136 50.0468 15.5338V42.8222H52.5164V15.5338C52.5164 12.2441 51.0312 9.1975 48.4379 7.17677ZM34.7608 28.6513C35.4501 31.0453 35.4234 33.5551 34.6852 35.719C33.4033 39.4771 30.5609 41.4274 26.2584 41.5559C21.9575 41.4274 19.1135 39.4771 17.8317 35.719C17.0934 33.5551 17.0667 31.0453 17.7577 28.6513C19.5254 22.5167 22.6376 18.0824 26.2584 14.8588C29.8793 18.0824 32.9925 22.5167 34.7608 28.6513Z" fill="#000005"/>
<path d="M96.577 16.8935C91.9393 16.8935 88.1676 13.1051 88.1676 8.44616C88.1676 3.78846 91.9393 0 96.577 0C101.215 0 104.986 3.78846 104.986 8.44616C104.986 13.1051 101.215 16.8935 96.577 16.8935ZM96.577 2.27457C93.1882 2.27457 90.4311 5.04308 90.4311 8.44616C90.4311 11.8504 93.1882 14.6197 96.577 14.6197C99.9658 14.6197 102.723 11.8504 102.723 8.44616C102.723 5.04308 99.9658 2.27457 96.577 2.27457Z" fill="#000005"/>
<path d="M97.7578 25.8103H95.3978V42.819H97.7578V25.8103Z" fill="#000005"/>
<path d="M111.631 32.0855H109.271V42.8191H111.631V32.0855Z" fill="#000005"/>
<path d="M120.935 27.9918C115.715 27.9918 111.468 23.7253 111.468 18.4778C111.468 13.2342 115.715 8.96776 120.935 8.96776C126.158 8.96776 130.406 13.2342 130.406 18.4778C130.406 23.7253 126.158 27.9918 120.935 27.9918ZM120.935 6.65927C114.448 6.65927 109.17 11.9612 109.17 18.4778C109.17 24.9982 114.448 30.3002 120.935 30.3002C127.422 30.3002 132.7 24.9982 132.7 18.4778C132.7 11.9612 127.422 6.65927 120.935 6.65927Z" fill="#000005"/>
<path d="M60.8748 24.1412C60.8748 29.3925 62.4287 33.476 65.4939 36.2788C68.2684 38.8092 72.1824 40.1444 76.8053 40.1444H81.9553V42.6942H76.8053C65.4203 42.6942 58.3483 35.5821 58.3483 24.1412C58.3483 18.3759 60.2277 13.5801 63.7889 10.2751C67.0827 7.21573 71.5817 5.59599 76.8053 5.59599H81.9553V8.14187H76.8053C72.2327 8.14187 68.3228 9.52767 65.5016 12.1475C62.4752 14.9581 60.8748 19.1043 60.8748 24.1412Z" fill="#000005"/>
<g clip-path="url(#clip0_235_121819)">
<path d="M239.297 24.9897V11.9026" stroke="#000005" stroke-width="2.5604" stroke-miterlimit="10"/>
<path fill-rule="evenodd" clip-rule="evenodd" d="M218.413 0.293213H240.02V8.79999H238.575V1.73754H219.228L214.32 9.86062H195.907V32.3342H219.892V33.7786H194.463V8.41629H213.505L218.413 0.293213Z" fill="#000005"/>
<path d="M223.503 40.841H199.98V43.9436H225.251L230.159 35.8205H244.092V32.718H228.41L223.503 40.841Z" fill="#000005"/>
<path d="M221.416 18.4461L225.364 11.9026H239.298H244.092V8.79999H239.298H223.616L218.708 16.8667H199.98V19.9692H218.708L222.713 26.5128L218.821 33.0564H199.98V36.159H220.457H220.569L225.421 28.0923H244.092V24.9897H239.298H225.421L221.416 18.4461Z" fill="#000005"/>
<path d="M258.026 19.5743V22.282H256.559V18.1641H257.405C257.574 18.0513 257.744 17.9949 257.856 17.882C257.969 17.7692 258.082 17.6564 258.195 17.5436C258.251 17.4872 258.308 17.3743 258.42 17.2615C258.477 17.1487 258.59 16.9231 258.646 16.6974C258.703 16.4718 258.815 16.1333 258.872 15.7385C258.928 15.3436 258.985 14.8923 259.041 14.2718C259.097 13.7077 259.154 12.9743 259.21 12.1846C259.267 11.3385 259.267 10.3795 259.267 9.25127V6.6564H267.108V18.1077H268.913V22.2256H267.333V19.5179H258.026V19.5743ZM260.846 8.12307V9.25127C260.846 9.81538 260.846 10.4359 260.846 11C260.846 11.6205 260.79 12.1846 260.79 12.7487C260.733 13.3128 260.733 13.8205 260.677 14.3282C260.62 14.8359 260.564 15.2308 260.451 15.5692C260.338 16.1897 260.169 16.6974 260 17.0923C259.831 17.4872 259.605 17.8256 259.379 18.1077H265.359V8.12307H260.846Z" fill="#000005"/>
<path d="M271.846 15.5128C271.846 16.0205 271.959 16.4718 272.015 16.8667C272.128 17.2051 272.241 17.4872 272.354 17.6564C272.523 17.8256 272.749 17.9949 273.143 18.1077C273.538 18.2205 273.933 18.2769 274.497 18.2769C274.892 18.2769 275.231 18.2769 275.569 18.2205C275.851 18.1641 276.133 18.1077 276.359 18.0513C276.584 17.9949 276.81 17.9384 276.979 17.882C277.149 17.8256 277.318 17.7692 277.431 17.7128V18.9538C277.318 19.0102 277.205 19.0667 277.036 19.1231C276.867 19.1795 276.641 19.2923 276.415 19.3487C276.133 19.4051 275.851 19.5179 275.513 19.5743C275.174 19.6308 274.836 19.6872 274.384 19.6872C273.82 19.6872 273.256 19.5743 272.749 19.3487C272.241 19.1231 271.79 18.841 271.395 18.4461C271 18.0513 270.718 17.6 270.492 17.0359C270.267 16.4718 270.154 15.8513 270.154 15.1743C270.154 14.4974 270.267 13.8769 270.436 13.3128C270.661 12.7487 270.943 12.241 271.282 11.8461C271.62 11.4513 272.072 11.1128 272.579 10.8872C273.087 10.6615 273.595 10.5487 274.215 10.5487C274.779 10.5487 275.231 10.6615 275.738 10.8308C276.19 11.0564 276.584 11.3384 276.923 11.6769C277.261 12.0718 277.543 12.5231 277.713 13.0308C277.882 13.5949 277.995 14.2154 277.995 14.8923C277.995 14.9487 277.995 15.0615 277.995 15.1179C277.995 15.1743 277.995 15.2308 277.995 15.2872C277.995 15.3436 277.995 15.4 277.995 15.4564H271.846V15.5128ZM272.41 12.5231C272.297 12.6923 272.184 12.9179 272.128 13.2C272.015 13.5384 271.959 13.8769 271.959 14.3282H276.472C276.472 13.9333 276.415 13.5949 276.359 13.2564C276.302 12.9179 276.19 12.6923 276.077 12.5231C275.964 12.3538 275.738 12.241 275.456 12.1282C275.174 12.0154 274.779 11.959 274.272 11.959C273.764 11.959 273.369 12.0154 273.087 12.1282C272.749 12.241 272.523 12.4102 272.41 12.5231Z" fill="#000005"/>
<path d="M284.538 19.6872C283.918 19.6872 283.41 19.5743 283.015 19.3487C282.621 19.1231 282.282 18.841 281.944 18.559V23.3538H280.364V10.7179H281.718L281.887 11.8461C282.169 11.5077 282.564 11.2256 282.959 10.9436C283.354 10.6615 283.862 10.5487 284.538 10.5487C285.103 10.5487 285.61 10.6615 286.062 10.8872C286.513 11.1128 286.964 11.4513 287.303 11.8461C287.641 12.241 287.923 12.7487 288.149 13.3128C288.374 13.8769 288.431 14.4974 288.431 15.1743C288.431 15.8513 288.318 16.4718 288.149 17.0359C287.923 17.6 287.641 18.0513 287.303 18.5026C286.964 18.8974 286.513 19.2359 286.062 19.4615C285.61 19.5744 285.046 19.6872 284.538 19.6872ZM281.944 13.0308V17.3179C282.226 17.6 282.564 17.8256 282.959 17.9949C283.354 18.2205 283.862 18.2769 284.426 18.2769C284.933 18.2769 285.328 18.2205 285.61 18.1077C285.892 17.9949 286.062 17.8256 286.174 17.7128C286.287 17.5436 286.456 17.2051 286.569 16.7538C286.682 16.3026 286.738 15.7385 286.738 15.1179C286.738 14.4974 286.682 13.9333 286.569 13.482C286.456 13.0308 286.344 12.6923 286.174 12.5231C286.062 12.3538 285.836 12.241 285.554 12.1282C285.272 12.0154 284.877 11.959 284.369 11.959C283.749 11.959 283.241 12.0718 282.846 12.2974C282.564 12.4667 282.226 12.7487 281.944 13.0308Z" fill="#000005"/>
<path d="M294.974 15.1744C294.974 15.1744 294.918 15.1744 294.861 15.1744C294.805 15.1744 294.749 15.2308 294.692 15.2872L291.195 19.5744H289.333L293.338 14.8923L289.446 10.7744H291.364L294.805 14.5538C294.861 14.6102 294.918 14.6102 294.974 14.6667H295.031V10.7179H296.61V14.6667H296.667C296.723 14.6667 296.779 14.6102 296.836 14.5538L300.277 10.7744H302.195L298.302 14.8923L302.308 19.5744H300.333L296.836 15.2872C296.779 15.2308 296.723 15.2308 296.667 15.1744C296.61 15.1744 296.61 15.1744 296.554 15.1744V19.5744H294.974V15.1744Z" fill="#000005"/>
<path d="M308.626 14.2154V13.8769C308.626 13.3692 308.626 13.0308 308.569 12.8051C308.513 12.5795 308.456 12.4667 308.344 12.2974C308.287 12.241 308.174 12.1282 308.005 12.0718C307.836 12.0154 307.554 11.959 307.102 11.959C306.764 11.959 306.426 11.959 306.087 12.0154C305.749 12.0718 305.467 12.1282 305.241 12.1846C304.959 12.241 304.79 12.3538 304.564 12.4102C304.395 12.4667 304.226 12.5795 304.113 12.6359V11.3949C304.564 11.1128 305.015 10.9436 305.523 10.7743C306.031 10.6051 306.538 10.5487 307.102 10.5487C308.005 10.5487 308.738 10.7743 309.302 11.282C309.867 11.7897 310.149 12.5231 310.149 13.5385V17.6C310.149 17.9385 310.261 18.1641 310.431 18.2205C310.6 18.3333 310.938 18.3333 311.333 18.2205V19.2923C311.277 19.3487 311.164 19.4051 311.051 19.4615C310.826 19.5179 310.544 19.5743 310.261 19.5743C309.923 19.5743 309.641 19.4615 309.359 19.2923C309.077 19.1231 308.908 18.841 308.738 18.5026C308.4 18.7846 308.005 19.0102 307.554 19.2359C307.102 19.4615 306.595 19.5743 305.974 19.5743C305.636 19.5743 305.297 19.5179 304.959 19.4051C304.62 19.2923 304.338 19.1231 304.113 18.8974C303.887 18.6718 303.661 18.3897 303.549 18.1077C303.379 17.7692 303.323 17.3743 303.323 16.9795C303.323 16.1333 303.718 15.4 304.451 14.8923C305.185 14.3846 306.313 14.1026 307.836 14.1026H308.626V14.2154ZM308.626 15.4564H308.231C307.497 15.4564 306.933 15.4564 306.482 15.5128C306.031 15.5692 305.692 15.682 305.41 15.8513C305.354 15.9077 305.241 16.0769 305.128 16.2461C305.015 16.4154 304.959 16.6974 304.959 17.0923C304.959 17.4872 305.015 17.7128 305.072 17.882C305.128 18.0513 305.241 18.1641 305.354 18.2205C305.467 18.2769 305.579 18.3333 305.749 18.3897C305.918 18.4461 306.087 18.4461 306.256 18.4461C306.482 18.4461 306.708 18.4461 306.933 18.3897C307.159 18.3333 307.385 18.2769 307.61 18.1641C307.836 18.1077 308.005 17.9949 308.231 17.882C308.4 17.7692 308.569 17.6564 308.626 17.5436V15.4564Z" fill="#000005"/>
<path d="M313.703 10.7179C314.097 10.7179 314.492 10.7179 314.831 10.6615C315.169 10.6615 315.451 10.6615 315.79 10.6615C316.128 10.6615 316.41 10.6615 316.636 10.6615C317.764 10.6615 318.667 10.8872 319.287 11.282C319.908 11.6769 320.246 12.2974 320.246 13.0308C320.246 13.4256 320.133 13.7641 319.851 14.1026C319.626 14.441 319.287 14.6667 318.949 14.8359C319.4 15.0051 319.795 15.2308 320.133 15.6256C320.472 15.9641 320.641 16.4718 320.641 16.9795C320.641 17.8256 320.303 18.5026 319.626 18.9538C318.949 19.4051 318.046 19.6308 316.861 19.6308C316.579 19.6308 316.241 19.6308 315.903 19.6308C315.564 19.6308 315.169 19.6308 314.887 19.6308C314.492 19.6308 314.097 19.6308 313.759 19.5744V10.7179H313.703ZM315.282 11.959V14.3846H316.805C317.087 14.3846 317.313 14.3846 317.482 14.3282C317.651 14.3282 317.82 14.2718 317.933 14.2154C318.046 14.159 318.159 14.1026 318.215 14.1026C318.272 14.0461 318.328 13.9897 318.385 13.9333C318.441 13.8769 318.497 13.7641 318.497 13.5949C318.554 13.4256 318.554 13.2564 318.554 13.0872C318.554 12.9179 318.554 12.7487 318.497 12.5795C318.441 12.4102 318.441 12.2974 318.385 12.241C318.272 12.1282 318.046 12.0154 317.82 11.959C317.538 11.9026 317.144 11.8461 316.579 11.8461C316.523 11.8461 316.41 11.8461 316.297 11.8461C316.185 11.8461 316.072 11.8461 315.903 11.8461C315.79 11.8461 315.62 11.8461 315.508 11.8461C315.451 11.959 315.338 11.959 315.282 11.959ZM315.282 15.5128V18.3333C315.508 18.3333 315.677 18.3333 315.903 18.3333H316.861C317.2 18.3333 317.482 18.3333 317.708 18.3333C317.933 18.3333 318.103 18.2769 318.215 18.2769C318.328 18.2205 318.441 18.2205 318.554 18.1641C318.61 18.1077 318.723 18.0513 318.779 17.9949C318.836 17.9385 318.892 17.7692 318.949 17.6C319.005 17.4308 319.005 17.2051 319.005 16.9795C319.005 16.7538 319.005 16.5846 318.949 16.359C318.892 16.1897 318.836 16.0769 318.779 15.9641C318.723 15.9077 318.667 15.8513 318.554 15.7949C318.497 15.7385 318.385 15.682 318.215 15.6256C318.046 15.5692 317.933 15.5692 317.708 15.5128C317.482 15.4564 317.256 15.4564 316.974 15.4564H315.282V15.5128Z" fill="#000005"/>
<path d="M328.82 15.6256H324.815V19.5744H323.179V10.7179H324.759V14.2718H328.764V10.7179H330.343V19.5744H328.82V15.6256Z" fill="#000005"/>
<path d="M334.349 15.5128C334.349 16.0205 334.462 16.4718 334.518 16.8667C334.631 17.2051 334.744 17.4872 334.856 17.6564C335.026 17.8256 335.251 17.9949 335.646 18.1077C336.041 18.2205 336.436 18.2769 337 18.2769C337.395 18.2769 337.733 18.2769 338.072 18.2205C338.354 18.1641 338.636 18.1077 338.862 18.0513C339.087 17.9949 339.313 17.9384 339.482 17.882C339.651 17.8256 339.821 17.7692 339.933 17.7128V18.9538C339.821 19.0102 339.708 19.0667 339.538 19.1231C339.369 19.1795 339.144 19.2923 338.918 19.3487C338.636 19.4051 338.354 19.5179 338.015 19.5743C337.677 19.6308 337.339 19.6872 336.887 19.6872C336.323 19.6872 335.759 19.5743 335.251 19.3487C334.744 19.1231 334.292 18.841 333.898 18.4461C333.503 18.0513 333.221 17.6 332.995 17.0359C332.769 16.4718 332.656 15.8513 332.656 15.1743C332.656 14.4974 332.769 13.8769 332.939 13.3128C333.164 12.7487 333.446 12.241 333.785 11.8461C334.123 11.4513 334.574 11.1128 335.082 10.8872C335.59 10.6615 336.097 10.5487 336.718 10.5487C337.282 10.5487 337.733 10.6615 338.241 10.8308C338.692 11.0564 339.087 11.3384 339.426 11.6769C339.764 12.0718 340.046 12.5231 340.215 13.0308C340.385 13.5949 340.497 14.2154 340.497 14.8923C340.497 14.9487 340.497 15.0615 340.497 15.1179C340.497 15.1743 340.497 15.2308 340.497 15.2872C340.497 15.3436 340.497 15.4 340.497 15.4564H334.349V15.5128ZM334.913 12.5231C334.8 12.6923 334.687 12.9179 334.631 13.2C334.518 13.5384 334.462 13.8769 334.462 14.3282H338.974C338.974 13.9333 338.918 13.5949 338.862 13.2564C338.805 12.9179 338.692 12.6923 338.58 12.5231C338.467 12.3538 338.241 12.241 337.959 12.1282C337.677 12.0154 337.282 11.959 336.774 11.959C336.267 11.959 335.872 12.0154 335.59 12.1282C335.251 12.241 335.026 12.4102 334.913 12.5231Z" fill="#000005"/>
<path d="M352.626 14.2154V13.8769C352.626 13.3692 352.626 13.0308 352.569 12.8051C352.513 12.5795 352.456 12.4667 352.344 12.2974C352.287 12.241 352.174 12.1282 352.005 12.0718C351.836 12.0154 351.554 11.959 351.102 11.959C350.764 11.959 350.426 11.959 350.087 12.0154C349.749 12.0718 349.467 12.1282 349.241 12.1846C348.959 12.241 348.79 12.3538 348.564 12.4102C348.395 12.4667 348.226 12.5795 348.113 12.6359V11.3949C348.564 11.1128 349.015 10.9436 349.523 10.7743C350.031 10.6051 350.538 10.5487 351.102 10.5487C352.005 10.5487 352.738 10.7743 353.302 11.282C353.867 11.7897 354.149 12.5231 354.149 13.5385V17.6C354.149 17.9385 354.261 18.1641 354.431 18.2205C354.6 18.3333 354.938 18.3333 355.333 18.2205V19.2923C355.277 19.3487 355.164 19.4051 355.051 19.4615C354.826 19.5179 354.544 19.5743 354.261 19.5743C353.923 19.5743 353.641 19.4615 353.359 19.2923C353.077 19.1231 352.908 18.841 352.738 18.5026C352.4 18.7846 352.005 19.0102 351.554 19.2359C351.102 19.4615 350.595 19.5743 349.974 19.5743C349.636 19.5743 349.297 19.5179 348.959 19.4051C348.62 19.2923 348.338 19.1231 348.113 18.8974C347.887 18.6718 347.661 18.3897 347.549 18.1077C347.379 17.7692 347.323 17.3743 347.323 16.9795C347.323 16.1333 347.718 15.4 348.451 14.8923C349.185 14.3846 350.313 14.1026 351.836 14.1026H352.626V14.2154ZM352.626 15.4564H352.231C351.497 15.4564 350.933 15.4564 350.482 15.5128C350.031 15.5692 349.692 15.682 349.41 15.8513C349.354 15.9077 349.241 16.0769 349.128 16.2461C349.015 16.4154 348.959 16.6974 348.959 17.0923C348.959 17.4872 349.015 17.7128 349.072 17.882C349.128 18.0513 349.241 18.1641 349.354 18.2205C349.467 18.2769 349.579 18.3333 349.749 18.3897C349.918 18.4461 350.087 18.4461 350.256 18.4461C350.482 18.4461 350.708 18.4461 350.933 18.3897C351.159 18.3333 351.385 18.2769 351.61 18.1641C351.836 18.1077 352.005 17.9949 352.231 17.882C352.4 17.7692 352.569 17.6564 352.626 17.5436V15.4564Z" fill="#000005"/>
<path d="M357.703 10.7179H363.4V12.0718H359.282V19.5744H357.703V10.7179Z" fill="#000005"/>
<path d="M365.544 15.5128C365.544 16.0205 365.656 16.4718 365.713 16.8667C365.826 17.2051 365.938 17.4872 366.051 17.6564C366.22 17.8256 366.446 17.9949 366.841 18.1077C367.236 18.2205 367.631 18.2769 368.195 18.2769C368.59 18.2769 368.928 18.2769 369.267 18.2205C369.549 18.1641 369.831 18.1077 370.056 18.0513C370.282 17.9949 370.508 17.9384 370.677 17.882C370.846 17.8256 371.015 17.7692 371.128 17.7128V18.9538C371.015 19.0102 370.903 19.0667 370.733 19.1231C370.564 19.1795 370.338 19.2923 370.113 19.3487C369.831 19.4051 369.549 19.5179 369.21 19.5743C368.872 19.6308 368.533 19.6872 368.082 19.6872C367.518 19.6872 366.954 19.5743 366.446 19.3487C365.938 19.1231 365.487 18.841 365.092 18.4461C364.697 18.0513 364.415 17.6 364.19 17.0359C363.964 16.4718 363.851 15.8513 363.851 15.1743C363.851 14.4974 363.964 13.8769 364.133 13.3128C364.359 12.7487 364.641 12.241 364.979 11.8461C365.318 11.4513 365.769 11.1128 366.277 10.8872C366.785 10.6615 367.292 10.5487 367.913 10.5487C368.477 10.5487 368.928 10.6615 369.436 10.8308C369.887 11.0564 370.282 11.3384 370.62 11.6769C370.959 12.0718 371.241 12.5231 371.41 13.0308C371.579 13.5949 371.692 14.2154 371.692 14.8923C371.692 14.9487 371.692 15.0615 371.692 15.1179C371.692 15.1743 371.692 15.2308 371.692 15.2872C371.692 15.3436 371.692 15.4 371.692 15.4564H365.544V15.5128ZM366.051 12.5231C365.938 12.6923 365.826 12.9179 365.769 13.2C365.656 13.5384 365.6 13.8769 365.6 14.3282H370.113C370.113 13.9333 370.056 13.5949 370 13.2564C369.944 12.9179 369.831 12.6923 369.718 12.5231C369.605 12.3538 369.379 12.241 369.097 12.1282C368.815 12.0154 368.42 11.959 367.913 11.959C367.405 11.959 367.01 12.0154 366.728 12.1282C366.39 12.241 366.164 12.4102 366.051 12.5231Z" fill="#000005"/>
<path d="M379.59 15.6256H375.585V19.5744H373.949V10.7179H375.528V14.2718H379.533V10.7179H381.113V19.5744H379.59V15.6256Z" fill="#000005"/>
<path d="M382.636 10.7179H389.913V12.0718H387.092V19.5744H385.513V12.0718H382.692V10.7179H382.636Z" fill="#000005"/>
<path d="M397.133 19.1231C396.908 19.2923 396.626 19.4051 396.231 19.5179C395.836 19.6307 395.328 19.6872 394.708 19.6872C394.144 19.6872 393.579 19.5743 393.072 19.3487C392.564 19.1231 392.113 18.7846 391.718 18.3897C391.323 17.9949 391.041 17.4872 390.815 16.9231C390.59 16.359 390.477 15.7384 390.477 15.0615C390.477 14.3846 390.59 13.7641 390.815 13.2C391.041 12.6359 391.323 12.1846 391.718 11.7333C392.113 11.3384 392.564 11 393.072 10.7743C393.579 10.5487 394.144 10.4359 394.708 10.4359C395.272 10.4359 395.723 10.4923 396.118 10.6051C396.513 10.7179 396.795 10.8308 397.133 11V12.4102C396.851 12.2974 396.513 12.1846 396.118 12.1282C395.723 12.0154 395.272 11.959 394.708 11.959C394.144 11.959 393.692 12.0154 393.354 12.1282C393.015 12.241 392.79 12.4102 392.677 12.5795C392.508 12.8051 392.395 13.0872 392.282 13.5384C392.169 13.9897 392.113 14.4974 392.113 15.1179C392.113 15.7384 392.169 16.2461 392.282 16.6974C392.395 17.0923 392.564 17.4307 392.677 17.6C392.846 17.7692 393.072 17.9384 393.41 18.0513C393.749 18.1641 394.2 18.2769 394.708 18.2769C395.272 18.2769 395.723 18.2205 396.118 18.1077C396.513 17.9949 396.851 17.882 397.077 17.7692V19.1231H397.133Z" fill="#000005"/>
<path d="M397.528 10.7179H404.805V12.0718H401.985V19.5744H400.405V12.0718H397.585V10.7179H397.528Z" fill="#000005"/>
<path d="M406.272 10.7179C406.667 10.7179 407.061 10.7179 407.4 10.6615C407.738 10.6615 408.02 10.6615 408.359 10.6615C408.697 10.6615 408.979 10.6615 409.205 10.6615C410.333 10.6615 411.236 10.8872 411.856 11.282C412.477 11.6769 412.815 12.2974 412.815 13.0308C412.815 13.4256 412.703 13.7641 412.421 14.1026C412.195 14.441 411.856 14.6667 411.518 14.8359C411.969 15.0051 412.364 15.2308 412.703 15.6256C413.041 15.9641 413.21 16.4718 413.21 16.9795C413.21 17.8256 412.872 18.5026 412.195 18.9538C411.518 19.4051 410.615 19.6308 409.431 19.6308C409.149 19.6308 408.81 19.6308 408.472 19.6308C408.133 19.6308 407.738 19.6308 407.456 19.6308C407.061 19.6308 406.667 19.6308 406.328 19.5744V10.7179H406.272ZM407.908 11.959V14.3846H409.431C409.713 14.3846 409.938 14.3846 410.108 14.3282C410.277 14.3282 410.446 14.2718 410.559 14.2154C410.672 14.159 410.785 14.1026 410.841 14.1026C410.897 14.0461 410.954 13.9897 411.01 13.9333C411.067 13.8769 411.123 13.7641 411.123 13.5949C411.179 13.4256 411.179 13.2564 411.179 13.0872C411.179 12.9179 411.179 12.7487 411.123 12.5795C411.067 12.4102 411.067 12.2974 411.01 12.241C410.897 12.1282 410.672 12.0154 410.446 11.959C410.164 11.9026 409.769 11.8461 409.205 11.8461C409.149 11.8461 409.036 11.8461 408.923 11.8461C408.81 11.8461 408.697 11.8461 408.528 11.8461C408.415 11.8461 408.246 11.8461 408.133 11.8461C408.02 11.959 407.964 11.959 407.908 11.959ZM407.908 15.5128V18.3333C408.133 18.3333 408.303 18.3333 408.528 18.3333H409.487C409.826 18.3333 410.108 18.3333 410.333 18.3333C410.559 18.3333 410.728 18.2769 410.841 18.2769C410.954 18.2205 411.067 18.2205 411.179 18.1641C411.236 18.1077 411.349 18.0513 411.405 17.9949C411.462 17.9385 411.518 17.7692 411.574 17.6C411.631 17.4308 411.631 17.2051 411.631 16.9795C411.631 16.7538 411.631 16.5846 411.574 16.359C411.518 16.1897 411.462 16.0769 411.405 15.9641C411.349 15.9077 411.292 15.8513 411.179 15.7949C411.123 15.7385 411.01 15.682 410.841 15.6256C410.728 15.5692 410.559 15.5692 410.333 15.5128C410.108 15.4564 409.882 15.4564 409.6 15.4564H407.908V15.5128Z" fill="#000005"/>
<path d="M415.128 15.1744C415.128 14.4974 415.241 13.8769 415.467 13.3692C415.692 12.8051 415.974 12.2974 416.369 11.9026C416.764 11.5077 417.215 11.1692 417.723 10.9436C418.231 10.7179 418.795 10.6051 419.359 10.6051C419.979 10.6051 420.543 10.7179 421.051 10.9436C421.559 11.1692 422.01 11.5077 422.405 11.9026C422.8 12.2974 423.082 12.8051 423.308 13.3692C423.533 13.9333 423.646 14.5538 423.646 15.2308C423.646 15.9077 423.533 16.5282 423.308 17.0359C423.082 17.6 422.8 18.1077 422.405 18.5026C422.01 18.8974 421.559 19.2359 421.051 19.4615C420.543 19.6872 419.979 19.8 419.415 19.8C418.851 19.8 418.287 19.6872 417.779 19.4615C417.272 19.2359 416.82 18.8974 416.425 18.5026C416.031 18.1077 415.749 17.6 415.523 17.0359C415.241 16.4154 415.128 15.7949 415.128 15.1744ZM416.764 15.1744C416.764 15.7949 416.82 16.359 416.933 16.7538C417.046 17.2051 417.159 17.4872 417.328 17.7128C417.497 17.882 417.723 18.0513 418.061 18.1641C418.4 18.2769 418.851 18.3333 419.359 18.3333C419.867 18.3333 420.318 18.2769 420.656 18.1641C420.995 18.0513 421.277 17.882 421.39 17.7128C421.559 17.4872 421.672 17.2051 421.784 16.7538C421.897 16.3026 421.954 15.7949 421.954 15.1179C421.954 14.441 421.897 13.9333 421.784 13.482C421.672 13.0308 421.559 12.7487 421.39 12.5231C421.22 12.3538 420.995 12.1846 420.656 12.0718C420.318 11.959 419.867 11.9026 419.359 11.9026C418.851 11.9026 418.4 11.959 418.061 12.0718C417.723 12.1846 417.441 12.3538 417.328 12.5231C417.159 12.7487 417.046 13.0308 416.933 13.482C416.82 13.9897 416.764 14.4974 416.764 15.1744Z" fill="#000005"/>
<path d="M429.626 6.6564H431.431L434.872 13.4256C434.928 13.5949 434.985 13.7077 435.097 13.8769C435.154 14.0461 435.21 14.159 435.267 14.2718C435.323 14.441 435.379 14.5538 435.436 14.7231C435.492 14.5538 435.549 14.441 435.605 14.2718C435.662 14.159 435.718 13.9897 435.774 13.8769C435.831 13.7077 435.887 13.5949 435.944 13.482L438.764 6.71281H440.4L436.451 15.9077C436.169 16.5282 435.887 17.0923 435.662 17.6C435.379 18.1077 435.097 18.5026 434.815 18.7846C434.533 19.1231 434.195 19.3487 433.856 19.5179C433.518 19.6872 433.123 19.7436 432.728 19.7436C432.333 19.7436 431.995 19.6872 431.713 19.5743C431.431 19.4615 431.205 19.3487 431.092 19.2923V17.9384C431.262 17.9949 431.431 18.0513 431.769 18.1641C432.051 18.2769 432.39 18.2769 432.728 18.2769C433.01 18.2769 433.236 18.2205 433.349 18.1641C433.518 18.1077 433.631 18.0513 433.687 17.9949C433.744 17.9384 433.8 17.882 433.856 17.8256C433.913 17.7692 433.969 17.6564 434.082 17.4872C434.138 17.3743 434.251 17.2051 434.364 16.9795C434.477 16.8102 434.59 16.5282 434.703 16.3026L429.626 6.6564Z" fill="#000005"/>
<path d="M442.431 19.5744H440.851V10.7179H442.431V14.6102H442.487C442.544 14.6102 442.6 14.5538 442.656 14.4974L446.323 10.7179H448.297L444.236 14.8359L448.41 19.5744H446.436L442.713 15.2872C442.656 15.2308 442.6 15.2308 442.544 15.1744C442.487 15.1744 442.487 15.1744 442.431 15.1744V19.5744Z" fill="#000005"/>
<path d="M454.051 19.6872C453.431 19.6872 452.923 19.5743 452.528 19.3487C452.133 19.1231 451.795 18.841 451.456 18.559V23.3538H449.877V10.7179H451.231L451.4 11.8461C451.682 11.5077 452.077 11.2256 452.472 10.9436C452.867 10.6615 453.374 10.5487 454.051 10.5487C454.615 10.5487 455.123 10.6615 455.574 10.8872C456.026 11.1128 456.477 11.4513 456.815 11.8461C457.154 12.241 457.436 12.7487 457.662 13.3128C457.887 13.8769 457.944 14.4974 457.944 15.1743C457.944 15.8513 457.831 16.4718 457.662 17.0359C457.436 17.6 457.154 18.0513 456.815 18.5026C456.477 18.8974 456.026 19.2359 455.574 19.4615C455.123 19.5744 454.615 19.6872 454.051 19.6872ZM451.456 13.0308V17.3179C451.738 17.6 452.077 17.8256 452.472 17.9949C452.867 18.2205 453.374 18.2769 453.938 18.2769C454.446 18.2769 454.841 18.2205 455.123 18.1077C455.405 17.9949 455.574 17.8256 455.687 17.7128C455.8 17.5436 455.969 17.2051 456.082 16.7538C456.195 16.3026 456.251 15.7385 456.251 15.1179C456.251 14.4974 456.195 13.9333 456.082 13.482C455.969 13.0308 455.856 12.6923 455.687 12.5231C455.574 12.3538 455.349 12.241 455.067 12.1282C454.785 12.0154 454.39 11.959 453.882 11.959C453.262 11.959 452.754 12.0718 452.359 12.2974C452.077 12.4667 451.738 12.7487 451.456 13.0308Z" fill="#000005"/>
<path d="M464.882 14.2154V13.8769C464.882 13.3692 464.882 13.0308 464.826 12.8051C464.769 12.5795 464.713 12.4667 464.6 12.2974C464.544 12.241 464.431 12.1282 464.262 12.0718C464.092 12.0154 463.81 11.959 463.359 11.959C463.021 11.959 462.682 11.959 462.344 12.0154C462.005 12.0718 461.723 12.1282 461.497 12.1846C461.215 12.241 461.046 12.3538 460.821 12.4102C460.651 12.4667 460.482 12.5795 460.369 12.6359V11.3949C460.821 11.1128 461.272 10.9436 461.78 10.7743C462.287 10.6051 462.795 10.5487 463.359 10.5487C464.262 10.5487 464.995 10.7743 465.559 11.282C466.123 11.7897 466.405 12.5231 466.405 13.5385V17.6C466.405 17.9385 466.518 18.1641 466.687 18.2205C466.856 18.3333 467.195 18.3333 467.59 18.2205V19.2923C467.533 19.3487 467.421 19.4051 467.308 19.4615C467.082 19.5179 466.8 19.5743 466.518 19.5743C466.18 19.5743 465.897 19.4615 465.615 19.2923C465.333 19.1231 465.164 18.841 464.995 18.5026C464.656 18.7846 464.262 19.0102 463.81 19.2359C463.359 19.4615 462.851 19.5743 462.231 19.5743C461.892 19.5743 461.554 19.5179 461.215 19.4051C460.877 19.2923 460.595 19.1231 460.369 18.8974C460.144 18.6718 459.918 18.3897 459.805 18.1077C459.636 17.7692 459.579 17.3743 459.579 16.9795C459.579 16.1333 459.974 15.4 460.708 14.8923C461.441 14.3846 462.569 14.1026 464.092 14.1026H464.882V14.2154ZM464.882 15.4564H464.487C463.754 15.4564 463.19 15.4564 462.738 15.5128C462.287 15.5692 461.949 15.682 461.667 15.8513C461.61 15.9077 461.497 16.0769 461.385 16.2461C461.272 16.4154 461.215 16.6974 461.215 17.0923C461.215 17.4872 461.272 17.7128 461.328 17.882C461.385 18.0513 461.497 18.1641 461.61 18.2205C461.723 18.2769 461.836 18.3333 462.005 18.3897C462.174 18.4461 462.344 18.4461 462.513 18.4461C462.738 18.4461 462.964 18.4461 463.19 18.3897C463.415 18.3333 463.641 18.2769 463.867 18.1641C464.092 18.1077 464.262 17.9949 464.487 17.882C464.713 17.7692 464.826 17.6564 464.882 17.5436V15.4564Z" fill="#000005"/>
<path d="M468.549 7.7282C468.549 7.44615 468.662 7.22051 468.831 7.05128C469 6.88205 469.226 6.76923 469.508 6.76923C469.79 6.76923 470.015 6.88205 470.185 7.05128C470.354 7.22051 470.467 7.44615 470.467 7.7282C470.467 8.01025 470.354 8.23589 470.185 8.40512C470.015 8.57435 469.79 8.68717 469.508 8.68717C469.226 8.68717 469 8.57435 468.831 8.40512C468.605 8.23589 468.549 8.01025 468.549 7.7282ZM470.185 10.7179H471.764V19.5744H470.185V10.7179ZM471.482 7.7282C471.482 7.44615 471.595 7.22051 471.764 7.05128C471.933 6.88205 472.159 6.76923 472.441 6.76923C472.723 6.76923 472.949 6.88205 473.118 7.05128C473.287 7.22051 473.4 7.44615 473.4 7.7282C473.4 8.01025 473.287 8.23589 473.118 8.40512C472.949 8.57435 472.723 8.68717 472.441 8.68717C472.159 8.68717 471.933 8.57435 471.764 8.40512C471.595 8.23589 471.482 8.01025 471.482 7.7282Z" fill="#000005"/>
<path d="M480.846 15.6256H476.841V19.5744H475.262V10.7179H476.841V14.2718H480.846V10.7179H482.426V19.5744H480.846V15.6256Z" fill="#000005"/>
<path d="M487.051 19.5744H485.641V10.7179H487.221V16.0769C487.221 16.2461 487.221 16.4154 487.221 16.6974C487.221 16.9231 487.221 17.1487 487.164 17.3744C487.277 17.1487 487.446 16.9231 487.559 16.641C487.728 16.4154 487.841 16.1897 487.954 16.0205L491.564 10.7179H492.975V19.5744H491.395V14.159C491.395 13.9897 491.395 13.8205 491.395 13.5949C491.395 13.3692 491.451 13.1436 491.451 12.9179C491.339 13.1436 491.169 13.3692 491.057 13.6513C490.887 13.8769 490.775 14.1026 490.662 14.2718L487.051 19.5744Z" fill="#000005"/>
<path d="M258.59 30.5744H259.774C260.282 30.5744 260.677 30.518 260.903 30.4051C261.128 30.2923 261.297 30.1795 261.41 30.1231C261.467 30.0667 261.523 29.9538 261.523 29.7846C261.579 29.6154 261.579 29.4462 261.579 29.2769C261.579 29.1077 261.579 28.9385 261.523 28.7692C261.467 28.6 261.467 28.4872 261.354 28.4308C261.297 28.3744 261.128 28.2615 260.903 28.2051C260.677 28.1487 260.395 28.0923 260 28.0923C259.661 28.0923 259.379 28.0923 259.097 28.1487C258.815 28.2051 258.533 28.2615 258.308 28.318C258.082 28.3744 257.856 28.4308 257.687 28.4872C257.518 28.5436 257.349 28.6 257.236 28.6564V27.359C257.349 27.3026 257.518 27.2462 257.687 27.1333C257.856 27.0769 258.082 26.9641 258.364 26.9077C258.59 26.8513 258.872 26.7949 259.154 26.7385C259.436 26.6821 259.718 26.6821 260 26.6821C260.508 26.6821 260.959 26.7385 261.354 26.9077C261.749 27.0205 262.087 27.2462 262.369 27.4154C262.651 27.641 262.82 27.8667 262.99 28.1487C263.159 28.4308 263.215 28.7692 263.215 29.0513C263.215 29.5026 263.046 29.8974 262.764 30.2359C262.482 30.5744 262.144 30.8 261.749 30.9692C262.2 31.0821 262.538 31.3641 262.877 31.7026C263.215 32.041 263.385 32.5487 263.385 33.1128C263.385 33.4513 263.328 33.8462 263.159 34.1282C262.99 34.4667 262.764 34.7487 262.482 34.9744C262.2 35.2 261.805 35.4256 261.354 35.5385C260.902 35.7077 260.395 35.7641 259.831 35.7641C259.492 35.7641 259.154 35.7077 258.872 35.6513C258.533 35.5949 258.251 35.5385 257.969 35.4256C257.687 35.3128 257.461 35.2564 257.236 35.1436C257.01 35.0308 256.841 34.9744 256.785 34.918V33.8462C256.897 33.9026 257.01 33.959 257.236 34.0718C257.461 34.1846 257.687 34.241 257.969 34.3539C258.251 34.4103 258.533 34.5231 258.872 34.5795C259.21 34.6359 259.549 34.6923 259.887 34.6923C260.451 34.6923 260.846 34.6359 261.072 34.5795C261.297 34.5231 261.467 34.4103 261.579 34.2974C261.636 34.241 261.692 34.0718 261.749 33.9026C261.805 33.7333 261.805 33.5077 261.805 33.2821C261.805 33.0564 261.805 32.8872 261.749 32.6615C261.692 32.4923 261.636 32.3231 261.579 32.2667C261.467 32.1539 261.297 32.041 261.015 31.9282C260.733 31.8154 260.338 31.759 259.831 31.759H258.646V30.5744H258.59Z" fill="#000005"/>
<path d="M277.036 28.3179H273.031V35.8205H271.451V26.9641H278.615V35.8205H277.036V28.3179Z" fill="#000005"/>
<path d="M283.241 35.8205H281.831V26.9641H283.41V32.3231C283.41 32.4923 283.41 32.6615 283.41 32.9436C283.41 33.1692 283.41 33.3949 283.354 33.6205C283.467 33.3949 283.636 33.1692 283.749 32.8872C283.918 32.6615 284.031 32.4359 284.144 32.2667L287.754 26.9641H289.164V35.8205H287.585V30.4051C287.585 30.2359 287.585 30.0667 287.585 29.841C287.585 29.6154 287.641 29.3897 287.641 29.1641C287.528 29.3897 287.359 29.6154 287.246 29.8974C287.077 30.1231 286.964 30.3487 286.851 30.5179L283.241 35.8205Z" fill="#000005"/>
<path d="M290.631 26.9641H297.908V28.3179H295.087V35.8205H293.508V28.3179H290.687V26.9641H290.631Z" fill="#000005"/>
<path d="M303.774 30.4615V30.1231C303.774 29.6154 303.774 29.2769 303.718 29.0513C303.662 28.8256 303.605 28.7128 303.492 28.5436C303.436 28.4872 303.323 28.3743 303.154 28.3179C302.985 28.2615 302.703 28.2051 302.251 28.2051C301.913 28.2051 301.574 28.2051 301.236 28.2615C300.897 28.3179 300.615 28.3743 300.39 28.4308C300.108 28.4872 299.938 28.6 299.713 28.6564C299.544 28.7128 299.374 28.8256 299.262 28.882V27.641C299.713 27.359 300.164 27.1897 300.672 27.0205C301.179 26.8513 301.687 26.7949 302.251 26.7949C303.154 26.7949 303.887 27.0205 304.451 27.5282C305.015 28.0359 305.297 28.7692 305.297 29.7846V33.8461C305.297 34.1846 305.41 34.4102 305.579 34.4667C305.749 34.5795 306.087 34.5795 306.482 34.4667V35.5385C306.426 35.5949 306.313 35.6513 306.2 35.7077C305.974 35.7641 305.692 35.8205 305.41 35.8205C305.072 35.8205 304.79 35.7077 304.508 35.5385C304.226 35.3692 304.056 35.0872 303.887 34.7487C303.549 35.0308 303.154 35.2564 302.703 35.482C302.251 35.7077 301.744 35.8205 301.123 35.8205C300.785 35.8205 300.446 35.7641 300.108 35.6513C299.769 35.5385 299.487 35.3692 299.262 35.1436C299.036 34.9179 298.81 34.6359 298.697 34.3538C298.528 34.0154 298.472 33.6205 298.472 33.2256C298.472 32.3795 298.867 31.6461 299.6 31.1385C300.333 30.6308 301.462 30.3487 302.985 30.3487H303.774V30.4615ZM303.774 31.7026H303.379C302.646 31.7026 302.082 31.7026 301.631 31.759C301.179 31.8154 300.841 31.9282 300.559 32.0974C300.503 32.1538 300.39 32.3231 300.277 32.4923C300.164 32.6615 300.108 32.9436 300.108 33.3385C300.108 33.7333 300.164 33.959 300.221 34.1282C300.277 34.2974 300.39 34.4102 300.503 34.4667C300.615 34.5231 300.728 34.5795 300.897 34.6359C301.067 34.6923 301.236 34.6923 301.405 34.6923C301.631 34.6923 301.856 34.6923 302.082 34.6359C302.308 34.5795 302.533 34.5231 302.759 34.4102C302.985 34.3538 303.154 34.241 303.379 34.1282C303.549 34.0154 303.718 33.9026 303.774 33.7897V31.7026Z" fill="#000005"/>
<path d="M314.38 31.8718H310.374V35.8205H308.795V26.9641H310.374V30.5179H314.38V26.9641H315.959V35.8205H314.38V31.8718Z" fill="#000005"/>
<path d="M320.754 30.2359C321.036 30.2359 321.318 30.2359 321.487 30.2359C321.713 30.2359 321.882 30.2359 322.108 30.2359C323.292 30.2359 324.251 30.4615 324.872 30.9692C325.492 31.4769 325.831 32.1539 325.831 33C325.831 33.9026 325.492 34.6359 324.815 35.1436C324.139 35.6513 323.236 35.8769 322.108 35.8769C321.826 35.8769 321.487 35.8769 321.149 35.8769C320.81 35.8769 320.528 35.8769 320.19 35.8769C319.851 35.8769 319.513 35.8769 319.174 35.8205V26.9641H320.754V30.2359ZM322.051 31.4769C321.995 31.4769 321.882 31.4769 321.769 31.4769C321.656 31.4769 321.544 31.4769 321.431 31.4769C321.318 31.4769 321.205 31.4769 321.092 31.4769C320.98 31.4769 320.867 31.4769 320.81 31.4769V34.5795C320.98 34.5795 321.149 34.5795 321.262 34.5795H322.051C322.39 34.5795 322.615 34.5795 322.841 34.5795C323.067 34.5795 323.236 34.5231 323.349 34.5231C323.462 34.4667 323.574 34.4667 323.631 34.4103C323.687 34.3539 323.8 34.2974 323.856 34.241C323.913 34.1846 323.969 34.0154 324.026 33.7898C324.082 33.5641 324.082 33.2821 324.082 33.0564C324.082 32.7744 324.082 32.5487 324.026 32.3231C323.969 32.0974 323.913 31.9846 323.856 31.9282C323.8 31.8718 323.744 31.8154 323.631 31.759C323.574 31.7026 323.462 31.6462 323.292 31.6462C323.18 31.5897 323.01 31.5897 322.785 31.5897C322.615 31.5333 322.333 31.4769 322.051 31.4769Z" fill="#000005"/>
<path d="M342.585 35.8205H341.005V30.4051C341.005 30.2359 341.005 30.0667 341.005 29.841C341.005 29.6154 341.062 29.4462 341.062 29.2205C340.949 29.4462 340.836 29.6718 340.723 29.8974C340.61 30.0667 340.497 30.2923 340.328 30.5179L338.128 33.959H337.677L335.308 30.5179C335.138 30.2923 335.026 30.0667 334.913 29.8974C334.8 29.7282 334.687 29.5026 334.574 29.2769C334.574 29.5026 334.631 29.6718 334.631 29.8974C334.631 30.1231 334.631 30.2923 334.631 30.4615V35.8769H333.051V26.9641H334.462L337.113 30.7436C337.282 30.9692 337.395 31.1949 337.564 31.4205C337.677 31.6462 337.79 31.8718 337.903 32.041C338.015 31.8718 338.128 31.6462 338.241 31.4205C338.354 31.1949 338.523 30.9692 338.692 30.6872L341.118 26.9641H342.528V35.8205H342.585Z" fill="#000005"/>
<path d="M347.21 35.8205H345.744V26.9641H347.323V32.3231C347.323 32.4923 347.323 32.6615 347.323 32.9436C347.323 33.1692 347.323 33.3949 347.267 33.6205C347.379 33.3949 347.549 33.1692 347.661 32.8872C347.831 32.6615 347.944 32.4359 348.056 32.2667L351.667 26.9641H353.077V35.8205H351.497V30.4051C351.497 30.2359 351.497 30.0667 351.497 29.841C351.497 29.6154 351.554 29.3897 351.554 29.1641C351.441 29.3897 351.272 29.6154 351.159 29.8974C350.99 30.1231 350.877 30.3487 350.764 30.5179L347.21 35.8205Z" fill="#000005"/>
<path d="M361.99 35.3692C361.764 35.5385 361.482 35.6513 361.087 35.7641C360.692 35.8769 360.185 35.9333 359.564 35.9333C359 35.9333 358.436 35.8205 357.928 35.5949C357.42 35.3692 356.969 35.0308 356.574 34.6359C356.179 34.241 355.897 33.7333 355.672 33.1692C355.446 32.6051 355.333 31.9846 355.333 31.3077C355.333 30.6308 355.446 30.0102 355.672 29.4461C355.897 28.882 356.179 28.4308 356.574 27.9795C356.969 27.5846 357.42 27.2461 357.928 27.0205C358.436 26.7949 359 26.682 359.564 26.682C360.128 26.682 360.579 26.7384 360.974 26.8513C361.369 26.9641 361.651 27.0769 361.99 27.2461V28.5436C361.708 28.4308 361.369 28.3179 360.974 28.2615C360.579 28.1487 360.128 28.0923 359.564 28.0923C359 28.0923 358.549 28.1487 358.21 28.2615C357.872 28.3743 357.646 28.5436 357.533 28.7128C357.364 28.9385 357.251 29.2205 357.138 29.6718C357.026 30.1231 356.969 30.6308 356.969 31.2513C356.969 31.8718 357.026 32.3795 357.138 32.8308C357.251 33.2256 357.42 33.5641 357.533 33.7333C357.702 33.9026 357.928 34.0718 358.267 34.1846C358.605 34.2974 359.056 34.4102 359.564 34.4102C360.128 34.4102 360.579 34.3538 360.974 34.241C361.369 34.1282 361.708 34.0154 361.933 33.9026V35.3692H361.99Z" fill="#000005"/>
<path d="M362.328 26.9641H369.605V28.3179H366.784V35.8205H365.205V28.3179H362.384V26.9641H362.328Z" fill="#000005"/>
<path d="M371.974 31.759C371.974 32.2667 372.087 32.7179 372.143 33.1128C372.256 33.4513 372.369 33.7333 372.482 33.9026C372.651 34.0718 372.877 34.241 373.272 34.3538C373.666 34.4667 374.061 34.5231 374.625 34.5231C375.02 34.5231 375.359 34.5231 375.697 34.4667C375.979 34.4102 376.261 34.3538 376.487 34.2974C376.713 34.241 376.938 34.1846 377.108 34.1282C377.277 34.0718 377.446 34.0154 377.559 33.959V35.2C377.446 35.2564 377.333 35.3128 377.164 35.3692C376.995 35.4256 376.769 35.5385 376.543 35.5949C376.261 35.6513 375.979 35.7641 375.641 35.8205C375.302 35.8769 374.964 35.9333 374.513 35.9333C373.949 35.9333 373.384 35.8205 372.877 35.5949C372.369 35.3692 371.918 35.0872 371.523 34.6923C371.128 34.2974 370.846 33.8461 370.62 33.282C370.395 32.7179 370.282 32.0974 370.282 31.4205C370.282 30.7436 370.395 30.1231 370.564 29.559C370.79 28.9949 371.072 28.4872 371.41 28.0923C371.749 27.6974 372.2 27.359 372.708 27.1333C373.215 26.9077 373.723 26.7949 374.343 26.7949C374.908 26.7949 375.359 26.9077 375.867 27.0769C376.318 27.3026 376.713 27.5846 377.051 27.9231C377.39 28.3179 377.672 28.7692 377.841 29.2769C378.01 29.841 378.123 30.4615 378.123 31.1385C378.123 31.1949 378.123 31.3077 378.123 31.3641C378.123 31.4205 378.123 31.4769 378.123 31.5333C378.123 31.5897 378.123 31.6461 378.123 31.7026H371.974V31.759ZM372.482 28.7692C372.369 28.9385 372.256 29.1641 372.2 29.4461C372.087 29.7846 372.031 30.1231 372.031 30.5743H376.543C376.543 30.1795 376.487 29.841 376.431 29.5026C376.374 29.1641 376.261 28.9385 376.149 28.7692C376.036 28.6 375.81 28.4872 375.528 28.3743C375.246 28.2615 374.851 28.2051 374.343 28.2051C373.836 28.2051 373.441 28.2615 373.159 28.3743C372.82 28.4872 372.595 28.6564 372.482 28.7692Z" fill="#000005"/>
<path d="M382.015 34.4667H385.851V26.9641H387.431V34.4667H388.841V38.2461H387.487V35.7641H380.379V26.9641H381.959V34.4667H382.015Z" fill="#000005"/>
<path d="M389.405 26.9641H396.682V28.3179H393.862V35.8205H392.282V28.3179H389.462V26.9641H389.405Z" fill="#000005"/>
<path d="M398.149 26.9641C398.544 26.9641 398.938 26.9641 399.277 26.9077C399.615 26.9077 399.897 26.9077 400.236 26.9077C400.574 26.9077 400.856 26.9077 401.082 26.9077C402.21 26.9077 403.113 27.1333 403.733 27.5282C404.354 27.9231 404.692 28.5436 404.692 29.2769C404.692 29.6718 404.579 30.0103 404.297 30.3487C404.072 30.6872 403.733 30.9128 403.395 31.082C403.846 31.2513 404.241 31.4769 404.579 31.8718C404.918 32.2103 405.087 32.7179 405.087 33.2256C405.087 34.0718 404.749 34.7487 404.072 35.2C403.395 35.6513 402.492 35.8769 401.308 35.8769C401.026 35.8769 400.687 35.8769 400.349 35.8769C400.01 35.8769 399.615 35.8769 399.333 35.8769C398.938 35.8769 398.544 35.8769 398.205 35.8205V26.9641H398.149ZM399.785 28.2051V30.6308H401.308C401.59 30.6308 401.815 30.6308 401.985 30.5744C402.154 30.5744 402.323 30.5179 402.436 30.4615C402.549 30.4051 402.661 30.3487 402.718 30.3487C402.774 30.2923 402.831 30.2359 402.887 30.1795C402.944 30.1231 403 30.0103 403 29.841C403.056 29.6718 403.056 29.5026 403.056 29.3333C403.056 29.1641 403.056 28.9949 403 28.8256C402.944 28.6564 402.944 28.5436 402.887 28.4872C402.774 28.3744 402.549 28.2615 402.323 28.2051C402.041 28.1487 401.646 28.0923 401.082 28.0923C401.026 28.0923 400.913 28.0923 400.8 28.0923C400.687 28.0923 400.574 28.0923 400.405 28.0923C400.292 28.0923 400.123 28.0923 400.01 28.0923C399.897 28.2051 399.841 28.2051 399.785 28.2051ZM399.785 31.759V34.5795C400.01 34.5795 400.179 34.5795 400.405 34.5795H401.364C401.703 34.5795 401.985 34.5795 402.21 34.5795C402.436 34.5795 402.605 34.5231 402.718 34.5231C402.831 34.4667 402.944 34.4667 403.056 34.4103C403.113 34.3538 403.226 34.2974 403.282 34.241C403.338 34.1846 403.395 34.0154 403.451 33.8462C403.508 33.6769 403.508 33.4513 403.508 33.2256C403.508 33 403.508 32.8308 403.451 32.6051C403.395 32.4359 403.338 32.3231 403.282 32.2103C403.226 32.1538 403.169 32.0974 403.056 32.041C403 31.9846 402.887 31.9282 402.718 31.8718C402.605 31.8154 402.436 31.8154 402.21 31.759C401.985 31.7026 401.759 31.7026 401.477 31.7026H399.785V31.759Z" fill="#000005"/>
<path d="M410.841 26.9641H418.118V28.3179H415.297V35.8205H413.718V28.3179H410.897V26.9641H410.841Z" fill="#000005"/>
<path d="M423.985 30.4615V30.1231C423.985 29.6154 423.985 29.2769 423.928 29.0513C423.872 28.8256 423.815 28.7128 423.703 28.5436C423.646 28.4872 423.533 28.3743 423.364 28.3179C423.195 28.2615 422.913 28.2051 422.461 28.2051C422.123 28.2051 421.785 28.2051 421.446 28.2615C421.108 28.3179 420.826 28.3743 420.6 28.4308C420.318 28.4872 420.149 28.6 419.923 28.6564C419.754 28.7128 419.585 28.8256 419.472 28.882V27.641C419.923 27.359 420.374 27.1897 420.882 27.0205C421.39 26.8513 421.897 26.7949 422.461 26.7949C423.364 26.7949 424.097 27.0205 424.661 27.5282C425.226 28.0359 425.508 28.7692 425.508 29.7846V33.8461C425.508 34.1846 425.62 34.4102 425.79 34.4667C425.959 34.5795 426.297 34.5795 426.692 34.4667V35.5385C426.636 35.5949 426.523 35.6513 426.41 35.7077C426.185 35.7641 425.903 35.8205 425.62 35.8205C425.282 35.8205 425 35.7077 424.718 35.5385C424.436 35.3692 424.267 35.0872 424.097 34.7487C423.759 35.0308 423.364 35.2564 422.913 35.482C422.461 35.7077 421.954 35.8205 421.333 35.8205C420.995 35.8205 420.656 35.7641 420.318 35.6513C419.979 35.5385 419.697 35.3692 419.472 35.1436C419.246 34.9179 419.02 34.6359 418.908 34.3538C418.738 34.0154 418.682 33.6205 418.682 33.2256C418.682 32.3795 419.077 31.6461 419.81 31.1385C420.544 30.6308 421.672 30.3487 423.195 30.3487H423.985V30.4615ZM423.985 31.7026H423.59C422.856 31.7026 422.292 31.7026 421.841 31.759C421.39 31.8154 421.051 31.9282 420.769 32.0974C420.713 32.1538 420.6 32.3231 420.487 32.4923C420.374 32.6615 420.318 32.9436 420.318 33.3385C420.318 33.7333 420.374 33.959 420.431 34.1282C420.487 34.2974 420.6 34.4102 420.713 34.4667C420.826 34.5231 420.938 34.5795 421.108 34.6359C421.277 34.6923 421.446 34.6923 421.615 34.6923C421.841 34.6923 422.067 34.6923 422.292 34.6359C422.518 34.5795 422.744 34.5231 422.969 34.4102C423.195 34.3538 423.364 34.241 423.59 34.1282C423.759 34.0154 423.928 33.9026 423.985 33.7897V31.7026Z" fill="#000005"/>
<path d="M444.179 35.8205H442.6V30.4051C442.6 30.2359 442.6 30.0667 442.6 29.841C442.6 29.6154 442.656 29.4462 442.656 29.2205C442.544 29.4462 442.431 29.6718 442.318 29.8974C442.205 30.0667 442.092 30.2923 441.923 30.5179L439.723 33.959H439.272L436.903 30.5179C436.733 30.2923 436.62 30.0667 436.508 29.8974C436.395 29.7282 436.282 29.5026 436.169 29.2769C436.169 29.5026 436.226 29.6718 436.226 29.8974C436.226 30.1231 436.226 30.2923 436.226 30.4615V35.8769H434.646V26.9641H436.056L438.708 30.7436C438.877 30.9692 438.99 31.1949 439.159 31.4205C439.272 31.6462 439.385 31.8718 439.497 32.041C439.61 31.8718 439.723 31.6462 439.836 31.4205C439.949 31.1949 440.118 30.9692 440.287 30.6872L442.713 26.9641H444.123V35.8205H444.179Z" fill="#000005"/>
<path d="M448.805 35.8205H447.395V26.9641H448.974V32.3231C448.974 32.4923 448.974 32.6615 448.974 32.9436C448.974 33.1692 448.974 33.3949 448.918 33.6205C449.031 33.3949 449.2 33.1692 449.313 32.8872C449.482 32.6615 449.595 32.4359 449.708 32.2667L453.318 26.9641H454.728V35.8205H453.149V30.4051C453.149 30.2359 453.149 30.0667 453.149 29.841C453.149 29.6154 453.205 29.3897 453.205 29.1641C453.092 29.3897 452.923 29.6154 452.81 29.8974C452.641 30.1231 452.528 30.3487 452.415 30.5179L448.805 35.8205Z" fill="#000005"/>
<path d="M463.585 35.3692C463.359 35.5385 463.077 35.6513 462.682 35.7641C462.287 35.8769 461.78 35.9333 461.159 35.9333C460.595 35.9333 460.031 35.8205 459.523 35.5949C459.015 35.3692 458.564 35.0308 458.169 34.6359C457.774 34.241 457.492 33.7333 457.267 33.1692C457.041 32.6051 456.928 31.9846 456.928 31.3077C456.928 30.6308 457.041 30.0102 457.267 29.4461C457.492 28.882 457.774 28.4308 458.169 27.9795C458.564 27.5846 459.015 27.2461 459.523 27.0205C460.031 26.7949 460.595 26.682 461.159 26.682C461.723 26.682 462.174 26.7384 462.569 26.8513C462.964 26.9641 463.246 27.0769 463.585 27.2461V28.5436C463.303 28.4308 462.964 28.3179 462.569 28.2615C462.174 28.1487 461.723 28.0923 461.159 28.0923C460.595 28.0923 460.144 28.1487 459.805 28.2615C459.467 28.3743 459.241 28.5436 459.128 28.7128C458.959 28.9385 458.846 29.2205 458.733 29.6718C458.62 30.1231 458.564 30.6308 458.564 31.2513C458.564 31.8718 458.62 32.3795 458.733 32.8308C458.846 33.2256 459.015 33.5641 459.128 33.7333C459.297 33.9026 459.523 34.0718 459.862 34.1846C460.2 34.2974 460.651 34.4102 461.159 34.4102C461.723 34.4102 462.174 34.3538 462.569 34.241C462.964 34.1282 463.303 34.0154 463.528 33.9026V35.3692H463.585Z" fill="#000005"/>
<path d="M463.923 26.9641H471.2V28.3179H468.38V35.8205H466.8V28.3179H463.98V26.9641H463.923Z" fill="#000005"/>
<path d="M473.569 31.759C473.569 32.2667 473.682 32.7179 473.739 33.1128C473.851 33.4513 473.964 33.7333 474.077 33.9026C474.246 34.0718 474.472 34.241 474.867 34.3538C475.262 34.4667 475.657 34.5231 476.221 34.5231C476.616 34.5231 476.954 34.5231 477.292 34.4667C477.575 34.4102 477.857 34.3538 478.082 34.2974C478.308 34.241 478.534 34.1846 478.703 34.1282C478.872 34.0718 479.041 34.0154 479.154 33.959V35.2C479.041 35.2564 478.928 35.3128 478.759 35.3692C478.59 35.4256 478.364 35.5385 478.139 35.5949C477.857 35.6513 477.575 35.7641 477.236 35.8205C476.898 35.8769 476.559 35.9333 476.108 35.9333C475.544 35.9333 474.98 35.8205 474.472 35.5949C473.964 35.3692 473.513 35.0872 473.118 34.6923C472.723 34.2974 472.441 33.8461 472.216 33.282C471.99 32.7179 471.877 32.0974 471.877 31.4205C471.877 30.7436 471.99 30.1231 472.159 29.559C472.385 28.9949 472.667 28.4872 473.005 28.0923C473.344 27.6974 473.795 27.359 474.303 27.1333C474.81 26.9077 475.318 26.7949 475.939 26.7949C476.503 26.7949 476.954 26.9077 477.462 27.0769C477.913 27.3026 478.308 27.5846 478.646 27.9231C478.985 28.3179 479.267 28.7692 479.436 29.2769C479.605 29.841 479.718 30.4615 479.718 31.1385C479.718 31.1949 479.718 31.3077 479.718 31.3641C479.718 31.4205 479.718 31.4769 479.718 31.5333C479.718 31.5897 479.718 31.6461 479.718 31.7026H473.569V31.759ZM474.077 28.7692C473.964 28.9385 473.851 29.1641 473.795 29.4461C473.682 29.7846 473.626 30.1231 473.626 30.5743H478.139C478.139 30.1795 478.082 29.841 478.026 29.5026C477.969 29.1641 477.857 28.9385 477.744 28.7692C477.631 28.6 477.405 28.4872 477.123 28.3743C476.841 28.2615 476.446 28.2051 475.939 28.2051C475.431 28.2051 475.036 28.2615 474.754 28.3743C474.416 28.4872 474.19 28.6564 474.077 28.7692Z" fill="#000005"/>
<path d="M483.61 34.4667H487.446V26.9641H489.026V34.4667H490.436V38.2461H489.082V35.7641H481.974V26.9641H483.554V34.4667H483.61Z" fill="#000005"/>
<path d="M493.99 30.2359C494.272 30.2359 494.554 30.2359 494.723 30.2359C494.949 30.2359 495.118 30.2359 495.344 30.2359C496.528 30.2359 497.487 30.4615 498.108 30.9692C498.728 31.4769 499.067 32.1539 499.067 33C499.067 33.9026 498.728 34.6359 498.051 35.1436C497.374 35.6513 496.472 35.8769 495.344 35.8769C495.062 35.8769 494.723 35.8769 494.385 35.8769C494.046 35.8769 493.764 35.8769 493.426 35.8769C493.087 35.8769 492.749 35.8769 492.41 35.8205V26.9641H493.99V30.2359ZM495.287 31.4769C495.231 31.4769 495.118 31.4769 495.005 31.4769C494.892 31.4769 494.78 31.4769 494.667 31.4769C494.554 31.4769 494.441 31.4769 494.328 31.4769C494.216 31.4769 494.103 31.4769 494.046 31.4769V34.5795C494.216 34.5795 494.385 34.5795 494.498 34.5795H495.287C495.626 34.5795 495.851 34.5795 496.077 34.5795C496.303 34.5795 496.472 34.5231 496.585 34.5231C496.698 34.4667 496.81 34.4667 496.867 34.4103C496.923 34.3539 497.036 34.2974 497.092 34.241C497.149 34.1846 497.205 34.0154 497.262 33.7898C497.318 33.5641 497.318 33.2821 497.318 33.0564C497.318 32.7744 497.318 32.5487 497.262 32.3231C497.205 32.0974 497.149 31.9846 497.092 31.9282C497.036 31.8718 496.98 31.8154 496.867 31.759C496.81 31.7026 496.698 31.6462 496.528 31.6462C496.415 31.5897 496.246 31.5897 496.021 31.5897C495.851 31.5333 495.626 31.4769 495.287 31.4769Z" fill="#000005"/>
<path d="M502.677 35.8205H501.097V26.9641H502.677V30.8564H502.733C502.79 30.8564 502.846 30.8 502.903 30.7436L506.569 26.9641H508.544L504.482 31.082L508.656 35.8205H506.682L502.959 31.5333C502.903 31.4769 502.846 31.4769 502.79 31.4205C502.733 31.4205 502.733 31.4205 502.677 31.4205V35.8205Z" fill="#000005"/>
<path d="M509.22 31.4205C509.22 30.7436 509.333 30.1231 509.559 29.6154C509.784 29.0513 510.066 28.5436 510.461 28.1487C510.856 27.7538 511.307 27.4154 511.815 27.1897C512.323 26.9641 512.887 26.8513 513.451 26.8513C514.072 26.8513 514.636 26.9641 515.143 27.1897C515.651 27.4154 516.102 27.7538 516.497 28.1487C516.892 28.5436 517.174 29.0513 517.4 29.6154C517.625 30.1795 517.738 30.8 517.738 31.4769C517.738 32.1538 517.625 32.7744 517.4 33.282C517.174 33.8461 516.892 34.3538 516.497 34.7487C516.102 35.1436 515.651 35.482 515.143 35.7077C514.636 35.9333 514.072 36.0461 513.507 36.0461C512.943 36.0461 512.379 35.9333 511.872 35.7077C511.364 35.482 510.913 35.1436 510.518 34.7487C510.123 34.3538 509.841 33.8461 509.615 33.282C509.277 32.6615 509.22 32.041 509.22 31.4205ZM510.856 31.4205C510.856 32.041 510.913 32.6051 511.025 33C511.138 33.4513 511.251 33.7333 511.42 33.959C511.59 34.1282 511.815 34.2974 512.154 34.4102C512.492 34.5231 512.943 34.5795 513.451 34.5795C513.959 34.5795 514.41 34.5231 514.749 34.4102C515.087 34.2974 515.369 34.1282 515.482 33.959C515.651 33.7333 515.764 33.4513 515.877 33C515.99 32.5487 516.046 32.041 516.046 31.3641C516.046 30.6872 515.99 30.1795 515.877 29.7282C515.764 29.2769 515.651 28.9949 515.482 28.7692C515.313 28.6 515.087 28.4308 514.749 28.3179C514.41 28.2051 513.959 28.1487 513.451 28.1487C512.943 28.1487 512.492 28.2051 512.154 28.3179C511.815 28.4308 511.533 28.6 511.42 28.7692C511.251 28.9949 511.138 29.2769 511.025 29.7282C510.913 30.2359 510.856 30.7436 510.856 31.4205Z" fill="#000005"/>
<path d="M518.528 23.9744C518.528 23.6923 518.641 23.4667 518.81 23.2974C518.979 23.1282 519.205 23.0154 519.487 23.0154C519.769 23.0154 519.995 23.1282 520.164 23.2974C520.333 23.4667 520.446 23.6923 520.446 23.9744C520.446 24.2564 520.333 24.482 520.164 24.6513C519.995 24.8205 519.769 24.9333 519.487 24.9333C519.205 24.9333 518.979 24.8205 518.81 24.6513C518.584 24.482 518.528 24.2564 518.528 23.9744ZM520.164 26.9641H521.744V35.8205H520.164V26.9641ZM521.462 23.9744C521.462 23.6923 521.574 23.4667 521.744 23.2974C521.913 23.1282 522.138 23.0154 522.421 23.0154C522.703 23.0154 522.928 23.1282 523.098 23.2974C523.267 23.4667 523.38 23.6923 523.38 23.9744C523.38 24.2564 523.267 24.482 523.098 24.6513C522.928 24.8205 522.703 24.9333 522.421 24.9333C522.138 24.9333 521.913 24.8205 521.744 24.6513C521.574 24.482 521.462 24.2564 521.462 23.9744Z" fill="#000005"/>
<path d="M529.585 31.4205C529.585 30.7436 529.698 30.1231 529.923 29.6154C530.149 29.0513 530.431 28.5436 530.826 28.1487C531.221 27.7538 531.672 27.4154 532.18 27.1897C532.687 26.9641 533.252 26.8513 533.816 26.8513C534.436 26.8513 535 26.9641 535.508 27.1897C536.016 27.4154 536.467 27.7538 536.862 28.1487C537.257 28.5436 537.539 29.0513 537.764 29.6154C537.99 30.1795 538.103 30.8 538.103 31.4769C538.103 32.1538 537.99 32.7744 537.764 33.282C537.539 33.8461 537.257 34.3538 536.862 34.7487C536.467 35.1436 536.016 35.482 535.508 35.7077C535 35.9333 534.436 36.0461 533.872 36.0461C533.308 36.0461 532.744 35.9333 532.236 35.7077C531.728 35.482 531.277 35.1436 530.882 34.7487C530.488 34.3538 530.205 33.8461 529.98 33.282C529.698 32.6615 529.585 32.041 529.585 31.4205ZM531.277 31.4205C531.277 32.041 531.334 32.6051 531.446 33C531.559 33.4513 531.672 33.7333 531.841 33.959C532.011 34.1282 532.236 34.2974 532.575 34.4102C532.913 34.5231 533.364 34.5795 533.872 34.5795C534.38 34.5795 534.831 34.5231 535.169 34.4102C535.508 34.2974 535.79 34.1282 535.903 33.959C536.072 33.7333 536.185 33.4513 536.298 33C536.41 32.5487 536.467 32.041 536.467 31.3641C536.467 30.6872 536.41 30.1795 536.298 29.7282C536.185 29.2769 536.072 28.9949 535.903 28.7692C535.734 28.6 535.508 28.4308 535.169 28.3179C534.831 28.2051 534.38 28.1487 533.872 28.1487C533.364 28.1487 532.913 28.2051 532.575 28.3179C532.236 28.4308 531.954 28.6 531.841 28.7692C531.672 28.9949 531.559 29.2769 531.446 29.7282C531.334 30.2359 531.277 30.7436 531.277 31.4205Z" fill="#000005"/>
<path d="M546.282 35.3692C546.056 35.5385 545.774 35.6513 545.38 35.7641C544.985 35.8769 544.477 35.9333 543.856 35.9333C543.292 35.9333 542.728 35.8205 542.221 35.5949C541.713 35.3692 541.262 35.0308 540.867 34.6359C540.472 34.241 540.19 33.7333 539.964 33.1692C539.739 32.6051 539.626 31.9846 539.626 31.3077C539.626 30.6308 539.739 30.0102 539.964 29.4461C540.19 28.882 540.472 28.4308 540.867 27.9795C541.262 27.5846 541.713 27.2461 542.221 27.0205C542.728 26.7949 543.292 26.682 543.856 26.682C544.421 26.682 544.872 26.7384 545.267 26.8513C545.662 26.9641 545.944 27.0769 546.282 27.2461V28.5436C546 28.4308 545.662 28.3179 545.267 28.2615C544.872 28.1487 544.421 28.0923 543.856 28.0923C543.292 28.0923 542.841 28.1487 542.503 28.2615C542.164 28.3743 541.939 28.5436 541.826 28.7128C541.656 28.9385 541.544 29.2205 541.431 29.6718C541.318 30.1231 541.262 30.6308 541.262 31.2513C541.262 31.8718 541.318 32.3795 541.431 32.8308C541.544 33.2256 541.713 33.5641 541.826 33.7333C541.995 33.9026 542.221 34.0718 542.559 34.1846C542.898 34.2974 543.349 34.4102 543.856 34.4102C544.421 34.4102 544.872 34.3538 545.267 34.241C545.662 34.1282 546 34.0154 546.226 33.9026V35.3692H546.282Z" fill="#000005"/>
<path d="M548.256 26.9641C548.651 26.9641 549.046 26.9641 549.385 26.9077C549.723 26.9077 550.005 26.9077 550.344 26.9077C550.682 26.9077 550.964 26.9077 551.19 26.9077C552.318 26.9077 553.22 27.1333 553.841 27.5282C554.461 27.9231 554.8 28.5436 554.8 29.2769C554.8 29.6718 554.687 30.0103 554.405 30.3487C554.179 30.6872 553.841 30.9128 553.502 31.082C553.954 31.2513 554.349 31.4769 554.687 31.8718C555.026 32.2103 555.195 32.7179 555.195 33.2256C555.195 34.0718 554.856 34.7487 554.179 35.2C553.502 35.6513 552.6 35.8769 551.415 35.8769C551.133 35.8769 550.795 35.8769 550.456 35.8769C550.118 35.8769 549.723 35.8769 549.441 35.8769C549.046 35.8769 548.651 35.8769 548.313 35.8205V26.9641H548.256ZM549.836 28.2051V30.6308H551.359C551.641 30.6308 551.867 30.6308 552.036 30.5744C552.205 30.5744 552.374 30.5179 552.487 30.4615C552.6 30.4051 552.713 30.3487 552.769 30.3487C552.826 30.2923 552.882 30.2359 552.938 30.1795C552.995 30.1231 553.051 30.0103 553.051 29.841C553.108 29.6718 553.108 29.5026 553.108 29.3333C553.108 29.1641 553.108 28.9949 553.051 28.8256C552.995 28.6564 552.995 28.5436 552.938 28.4872C552.826 28.3744 552.6 28.2615 552.374 28.2051C552.092 28.1487 551.697 28.0923 551.133 28.0923C551.077 28.0923 550.964 28.0923 550.851 28.0923C550.738 28.0923 550.626 28.0923 550.456 28.0923C550.344 28.0923 550.174 28.0923 550.061 28.0923C549.949 28.2051 549.892 28.2051 549.836 28.2051ZM549.836 31.759V34.5795C550.061 34.5795 550.231 34.5795 550.456 34.5795H551.415C551.754 34.5795 552.036 34.5795 552.261 34.5795C552.487 34.5795 552.656 34.5231 552.769 34.5231C552.882 34.4667 552.995 34.4667 553.108 34.4103C553.164 34.3538 553.277 34.2974 553.333 34.241C553.39 34.1846 553.446 34.0154 553.502 33.8462C553.559 33.6769 553.559 33.4513 553.559 33.2256C553.559 33 553.559 32.8308 553.502 32.6051C553.446 32.4359 553.39 32.3231 553.333 32.2103C553.277 32.1538 553.22 32.0974 553.108 32.041C553.051 31.9846 552.938 31.9282 552.769 31.8718C552.656 31.8154 552.487 31.8154 552.261 31.759C552.036 31.759 551.81 31.7026 551.528 31.7026H549.836V31.759Z" fill="#000005"/>
<path d="M557.564 23.8051C557.564 23.5231 557.677 23.241 557.846 23.0154C558.072 22.7897 558.298 22.7333 558.636 22.7333C558.918 22.7333 559.2 22.8461 559.426 23.0154C559.651 23.241 559.708 23.4667 559.708 23.8051C559.708 24.0872 559.595 24.3692 559.426 24.5949C559.2 24.8205 558.974 24.8769 558.636 24.8769C558.354 24.8769 558.072 24.7641 557.846 24.5949C557.677 24.3692 557.564 24.0872 557.564 23.8051ZM557.846 26.9641H559.426V35.8205H557.846V26.9641Z" fill="#000005"/>
<path d="M561.175 26.9641H568.451V28.3179H565.631V35.8205H564.051V28.3179H561.231V26.9641H561.175Z" fill="#000005"/>
<path d="M571.328 35.8205H569.918V26.9641H571.497V32.3231C571.497 32.4923 571.497 32.6615 571.497 32.9436C571.497 33.1692 571.497 33.3949 571.441 33.6205C571.554 33.3949 571.723 33.1692 571.836 32.8872C572.005 32.6615 572.118 32.4359 572.231 32.2667L575.841 26.9641H577.251V35.8205H575.672V30.4051C575.672 30.2359 575.672 30.0667 575.672 29.841C575.672 29.6154 575.728 29.3897 575.728 29.1641C575.615 29.3897 575.446 29.6154 575.333 29.8974C575.164 30.1231 575.051 30.3487 574.938 30.5179L571.328 35.8205Z" fill="#000005"/>
</g>
<g clip-path="url(#clip1_235_121819)">
<path d="M677.342 19.5189L669.478 5.9896C669.126 5.38353 668.619 4.88046 668.009 4.53114C667.4 4.18182 666.708 3.99861 666.004 3.99999H650.292C649.421 4.00231 648.566 4.23171 647.812 4.6653C647.057 5.0989 646.431 5.72153 645.994 6.47109L638.13 20.0004C637.779 20.6054 637.594 21.2915 637.594 21.99C637.594 22.6885 637.779 23.3747 638.13 23.9797L645.994 37.5289C646.431 38.279 647.058 38.902 647.813 39.3357C648.568 39.7693 649.424 39.9984 650.296 40H666.004C666.705 39.9986 667.394 39.814 668 39.4649C668.607 39.1157 669.111 38.6141 669.462 38.0104L677.326 24.481C677.767 23.7285 678.001 22.8734 678.004 22.0021C678.007 21.1309 677.778 20.2743 677.342 19.5189ZM640.363 22.0458L641.252 20.5297L648.275 8.41295L652.677 16.0053C652.883 16.3246 653.204 16.5529 653.575 16.6425C653.945 16.7322 654.336 16.6764 654.666 16.4866C654.996 16.2969 655.24 15.9879 655.346 15.624C655.453 15.2601 655.414 14.8693 655.239 14.533L651.693 8.41295C651.399 7.97973 651.007 7.62117 650.548 7.36614C650.089 7.11111 649.577 6.96673 649.052 6.94461H664.907L657.452 19.7856C657.32 20.0116 657.131 20.1993 656.903 20.3299C656.676 20.4604 656.418 20.5293 656.155 20.5297H643.041C642.5 20.5261 641.967 20.6644 641.497 20.9306C641.027 21.1967 640.636 21.5814 640.363 22.0458ZM664.907 37.0593H650.84L655.243 29.459C655.35 29.2915 655.423 29.1039 655.456 28.9077C655.489 28.7115 655.481 28.5108 655.434 28.3175C655.387 28.1242 655.3 27.9425 655.181 27.7833C655.061 27.6241 654.91 27.4907 654.736 27.3911C654.563 27.2916 654.371 27.2279 654.173 27.2041C653.974 27.1802 653.773 27.1966 653.581 27.2523C653.389 27.3079 653.21 27.4017 653.055 27.5279C652.901 27.6542 652.774 27.8102 652.681 27.9867L648.279 35.587L647.403 37.1071C647.645 36.6863 647.783 36.2144 647.806 35.7302C647.829 35.246 647.736 34.7632 647.535 34.3216L641.244 23.4703H656.155C656.418 23.471 656.676 23.5401 656.903 23.6707C657.131 23.8012 657.32 23.9887 657.452 24.2144L664.075 35.6189C664.367 36.046 664.757 36.3989 665.211 36.6491C665.666 36.8993 666.173 37.0398 666.692 37.0593H664.907ZM674.504 23.4743L667.473 35.587L660.001 22.7461C659.87 22.5196 659.802 22.2631 659.802 22.002C659.802 21.7409 659.87 21.4844 660.001 21.2579L667.473 8.41295L668.349 6.89686C668.056 7.40766 667.916 7.99125 667.946 8.57865C667.976 9.16604 668.174 9.73267 668.517 10.2116C668.769 10.5617 674.52 20.5257 674.52 20.5257H665.672C665.279 20.5257 664.902 20.6808 664.625 20.9569C664.347 21.233 664.191 21.6075 664.191 21.998C664.191 22.3885 664.347 22.763 664.625 23.0391C664.902 23.3152 665.279 23.4703 665.672 23.4703H672.755H672.715C673.256 23.4738 673.788 23.3356 674.259 23.0694C674.729 22.8032 675.12 22.4186 675.393 21.9542L674.5 23.4783L674.504 23.4743Z" fill="#000005"/>
<path d="M763.064 14.0157C762.15 13.9962 761.25 14.2304 760.463 14.6922C759.704 15.158 759.024 15.7409 758.45 16.4191L758.37 16.5146H757.901L757.413 14.3738H752.323C752.134 14.3738 751.95 14.431 751.795 14.5376C751.64 14.6442 751.521 14.7953 751.454 14.9707L750.534 17.41H756.425C756.425 17.41 754.58 17.41 754.58 18.8982V27.0317H752.319C752.13 27.0318 751.946 27.0889 751.791 27.1955C751.636 27.3021 751.517 27.4532 751.45 27.6286L750.53 30.0679H763.58C763.77 30.0684 763.955 30.011 764.111 29.9036C764.267 29.7962 764.386 29.6438 764.453 29.467L765.373 27.0278H758.29V19.7697L758.334 19.702C758.72 19.1146 759.195 18.5898 759.742 18.1461C760.395 17.6523 761.2 17.4016 762.019 17.4378C762.279 17.4212 762.538 17.4736 762.77 17.5897C763.002 17.7058 763.199 17.8814 763.34 18.0984C763.604 18.587 763.735 19.1356 763.72 19.6901H767.006C766.978 17.6726 766.606 16.2122 765.937 15.3487C765.602 14.9125 765.166 14.5634 764.665 14.3313C764.165 14.0992 763.616 13.9909 763.064 14.0157Z" fill="#000005"/>
<path d="M783.058 21.9065C782.247 21.5208 781.4 21.2169 780.529 20.9992L777.947 20.3347C777.263 20.1612 776.594 19.9337 775.946 19.6542C775.31 19.3717 774.986 18.9738 774.986 18.4605C774.992 18.1628 775.092 17.8745 775.271 17.6361C775.451 17.3977 775.701 17.2212 775.986 17.1314C776.729 16.8555 777.519 16.727 778.312 16.7534C778.84 16.7546 779.367 16.8106 779.884 16.9205C780.397 17.0285 780.901 17.1735 781.393 17.3543C781.865 17.5293 782.326 17.7243 782.754 17.9312C783.09 18.0944 783.398 18.2536 783.67 18.4087L785.195 15.9536C784.928 15.7758 784.636 15.5822 784.319 15.3726C783.852 15.0851 783.356 14.8489 782.838 14.6683C782.165 14.4341 781.474 14.2532 780.773 14.1271C779.862 13.9691 778.939 13.8945 778.015 13.9043C777.097 13.8984 776.182 14.0053 775.29 14.2226C774.53 14.4024 773.808 14.7136 773.157 15.1418C772.592 15.5193 772.117 16.0167 771.768 16.5982C771.423 17.204 771.25 17.8918 771.268 18.5878C771.234 19.39 771.495 20.177 772.004 20.8003C772.534 21.4042 773.177 21.9002 773.897 22.2606C774.699 22.6644 775.545 22.9729 776.419 23.1798C777.347 23.4066 778.216 23.6295 779.004 23.8483C779.698 24.0314 780.375 24.2765 781.025 24.5805C781.294 24.6747 781.528 24.8466 781.698 25.0743C781.867 25.3019 781.965 25.5748 781.977 25.8578C781.99 26.1606 781.911 26.4601 781.749 26.7171C781.588 26.9742 781.352 27.1767 781.073 27.2983C780.048 27.7838 778.552 27.7798 777.123 27.4296C776.471 27.272 775.832 27.0672 775.21 26.8168C774.646 26.5921 774.102 26.3191 773.585 26.0011C773.221 25.7743 772.917 25.5674 772.665 25.3764L770.992 27.9828C771.906 28.7124 772.928 29.2976 774.021 29.7177C775.537 30.2839 777.149 30.5541 778.768 30.5135C781.069 30.5135 782.818 30.0559 783.97 29.1566C784.528 28.7251 784.973 28.1664 785.268 27.5278C785.562 26.8892 785.698 26.1895 785.663 25.4878C785.696 24.7023 785.435 23.9327 784.931 23.3271C784.408 22.734 783.771 22.251 783.058 21.9065Z" fill="#000005"/>
<path d="M803.896 25.8021C803.557 26.0793 803.194 26.3269 802.812 26.5423C802.385 26.7802 801.933 26.9685 801.463 27.1033C800.918 27.2571 800.353 27.3322 799.786 27.3262C799.25 27.3522 798.714 27.2565 798.221 27.0462C797.727 26.8359 797.288 26.5166 796.937 26.1125C796.269 25.3167 795.928 24.0433 795.928 22.3203V17.41H803.336L804.473 14.3738H795.932V9.57091L792.899 10.4304C792.705 10.4857 792.535 10.6022 792.413 10.7623C792.292 10.9224 792.227 11.1174 792.227 11.3178V14.3858H790.782C790.593 14.3858 790.409 14.4429 790.254 14.5495C790.099 14.6562 789.98 14.8072 789.913 14.9826L788.993 17.4219H794.216C794.216 17.4219 792.215 17.4219 792.215 18.9857V22.3044C792.215 25.1655 792.811 27.2745 793.991 28.5677C795.172 29.8609 796.945 30.5096 799.294 30.5096C799.967 30.5068 800.638 30.432 801.295 30.2867C801.966 30.1419 802.623 29.9354 803.256 29.6699C803.866 29.4146 804.452 29.107 805.009 28.7507C805.449 28.4744 805.852 28.1442 806.209 27.7679L804.533 25.2649L803.896 25.8021Z" fill="#000005"/>
<path d="M823.03 26.785C823.008 26.5197 822.976 26.2332 822.934 25.9255C822.888 25.3472 822.866 24.8259 822.866 24.3617C822.866 23.7489 822.906 23.0406 822.982 22.2567C823.058 21.4728 823.094 20.5536 823.094 19.4712C823.103 18.7076 822.996 17.947 822.778 17.215C822.584 16.5857 822.243 16.0114 821.781 15.5397C821.268 15.0412 820.644 14.6692 819.96 14.4534C819.054 14.1706 818.108 14.0362 817.159 14.0555C815.814 14.0294 814.47 14.163 813.157 14.4534C812.215 14.6783 811.293 14.9777 810.4 15.3487L811.248 18.1342C811.902 17.8579 812.57 17.6148 813.249 17.406C814.241 17.106 815.274 16.9597 816.31 16.9723C817.111 16.9209 817.907 17.1274 818.58 17.5612C819.124 17.9591 819.38 18.6356 819.38 19.5508V20.1556C819.381 20.3947 819.358 20.6332 819.312 20.8679L819.28 21.1106H819.044C818.411 21.0682 817.878 21.0244 817.443 20.9793C817.019 20.9356 816.615 20.9157 816.242 20.9157C815.254 20.9064 814.267 21.0079 813.301 21.2181C812.515 21.3846 811.765 21.6906 811.088 22.1214C810.506 22.5003 810.034 23.0244 809.719 23.6414C809.388 24.3385 809.226 25.1032 809.247 25.8738C809.219 26.4789 809.324 27.0828 809.556 27.6431C809.787 28.2034 810.139 28.7065 810.588 29.1168C811.484 29.9127 812.721 30.3464 814.269 30.3464C815.349 30.3998 816.422 30.1605 817.375 29.654C818.081 29.2436 818.685 28.6789 819.14 28.0027L819.22 27.8793H819.752L820.18 30.0878H823.826C824.043 30.0878 824.252 30.0126 824.419 29.8753C824.585 29.738 824.699 29.5471 824.739 29.3357L825.171 27.0516H823.07L823.03 26.785ZM819.356 25.4042L819.324 25.4639C819.024 25.9807 818.614 26.4262 818.123 26.7691C817.381 27.23 816.511 27.4471 815.638 27.3899C814.742 27.3899 814.105 27.2028 813.693 26.8129C813.485 26.6044 813.323 26.3553 813.217 26.0813C813.111 25.8074 813.063 25.5145 813.077 25.2212C813.068 24.8275 813.189 24.4418 813.421 24.1229C813.651 23.8212 813.948 23.5773 814.289 23.4106C814.658 23.2237 815.052 23.0897 815.458 23.0127C816.35 22.8651 817.26 22.8531 818.155 22.9769C818.596 23.0326 818.92 23.0804 819.144 23.1241L819.36 23.1679V25.4002L819.356 25.4042Z" fill="#000005"/>
<path d="M838.025 21.5086L844.376 14.3818H840.09L834.752 20.8321H833.375V7.87975H828.781C828.592 7.87977 828.408 7.93689 828.253 8.04352C828.098 8.15014 827.979 8.30121 827.912 8.47663L826.992 10.9159H831.466C831.466 10.9159 829.669 10.9159 829.669 12.2211V30.0679H833.375V23.347H834.912L840.514 30.0679H843.62C843.81 30.0684 843.995 30.011 844.151 29.9036C844.307 29.7962 844.426 29.6438 844.492 29.467L845.413 27.0278H842.515L838.025 21.5086Z" fill="#000005"/>
<path d="M725.353 14.3738C725.157 14.3737 724.965 14.4357 724.806 14.5508C724.647 14.666 724.529 14.8283 724.469 15.0145L721.103 24.3338H720.495L716.005 14.3858H712.739C712.55 14.3858 712.366 14.4429 712.211 14.5495C712.056 14.6562 711.937 14.8072 711.871 14.9826L710.95 17.4219H715.508C715.508 17.4219 713.331 17.4219 714.16 19.4115L718.766 30.0679H722.624L728.655 14.3698L725.353 14.3738Z" fill="#000005"/>
<path d="M706.32 15.3129C705.616 14.8073 704.821 14.4411 703.979 14.2346C702.04 13.7502 700.004 13.8206 698.104 14.4375C697.106 14.7641 696.188 15.2925 695.406 15.9894C694.628 16.7116 694.017 17.5944 693.617 18.5759C693.153 19.7345 692.927 20.9739 692.953 22.2209C692.933 23.4097 693.131 24.5923 693.537 25.7106C693.899 26.6972 694.479 27.5905 695.234 28.3247C695.989 29.0588 696.9 29.6151 697.9 29.9525C699.073 30.3475 700.306 30.5399 701.545 30.5215C702.346 30.5215 705.996 30.3862 708.793 28.3966L708.277 25.8022C706.34 27.0196 704.097 27.6705 701.806 27.6803C701.165 27.6888 700.525 27.6206 699.901 27.4774C699.322 27.3416 698.773 27.103 698.28 26.7731C697.801 26.4484 697.404 26.018 697.119 25.5156C696.809 24.9376 696.645 24.2928 696.643 23.6375V23.3629H708.425C708.603 22.4569 708.697 21.5364 708.705 20.6133C708.745 19.4917 708.515 18.3769 708.033 17.3622C707.63 16.5556 707.044 15.8538 706.32 15.3129ZM705.311 20.8003H696.719L696.743 20.5138C696.783 19.9529 696.951 19.4085 697.235 18.9221C697.507 18.4564 697.87 18.0503 698.304 17.7283C698.738 17.4088 699.224 17.1652 699.741 17.0081C700.285 16.8439 700.852 16.7621 701.421 16.7653C702.71 16.7653 703.694 17.1115 704.343 17.792C705.016 18.5453 705.365 19.5311 705.315 20.5376L705.311 20.8003Z" fill="#000005"/>
<path d="M744.319 15.3129C743.615 14.8073 742.82 14.4411 741.978 14.2346C740.039 13.7502 738.003 13.8206 736.103 14.4375C735.106 14.7641 734.187 15.2925 733.405 15.9894C732.62 16.7084 732.002 17.59 731.596 18.5719C731.132 19.7305 730.906 20.9699 730.932 22.2169C730.912 23.4058 731.11 24.5883 731.516 25.7067C731.88 26.6949 732.462 27.5892 733.22 28.3235C733.977 29.0578 734.892 29.6132 735.895 29.9485C737.068 30.3435 738.301 30.536 739.54 30.5175C740.341 30.5175 743.991 30.3822 746.788 28.3926L746.284 25.8061C744.347 27.0236 742.104 27.6745 739.813 27.6843C739.17 27.6879 738.529 27.6144 737.904 27.4655C737.325 27.3297 736.776 27.0911 736.283 26.7611C735.8 26.4324 735.402 25.9964 735.118 25.4878C734.808 24.9098 734.644 24.2649 734.642 23.6096V23.335H746.444C746.622 22.429 746.716 21.5086 746.724 20.5854C746.76 19.4672 746.527 18.3567 746.044 17.3463C745.636 16.5442 745.045 15.8479 744.319 15.3129ZM743.31 20.8003H734.718L734.742 20.5138C734.782 19.9529 734.95 19.4085 735.234 18.9221C735.506 18.4564 735.869 18.0503 736.303 17.7283C736.737 17.4088 737.223 17.1652 737.74 17.0081C738.284 16.8439 738.851 16.7621 739.42 16.7653C740.709 16.7653 741.694 17.1115 742.342 17.792C743.015 18.5453 743.364 19.5311 743.314 20.5376L743.31 20.8003Z" fill="#000005"/>
<path d="M861.117 15.3129C860.413 14.8073 859.618 14.4411 858.775 14.2346C856.837 13.7502 854.8 13.8206 852.901 14.4375C851.903 14.7641 850.985 15.2925 850.203 15.9894C849.418 16.7084 848.8 17.59 848.394 18.5719C847.93 19.7305 847.704 20.9699 847.73 22.2169C847.71 23.4058 847.908 24.5883 848.314 25.7067C848.677 26.696 849.26 27.5915 850.018 28.3265C850.777 29.0615 851.692 29.6172 852.696 29.9525C853.87 30.3475 855.103 30.5399 856.342 30.5215C857.143 30.5215 860.792 30.3862 863.59 28.3966L863.074 25.8022C861.137 27.0196 858.894 27.6705 856.602 27.6803C855.96 27.6839 855.319 27.6104 854.693 27.4615C854.115 27.3257 853.566 27.0871 853.073 26.7572C852.594 26.4324 852.196 26.0021 851.912 25.4997C851.602 24.9217 851.438 24.2769 851.436 23.6215V23.347H863.246C863.424 22.4409 863.518 21.5205 863.526 20.5973C863.566 19.4758 863.336 18.361 862.854 17.3463C862.442 16.5429 861.847 15.8465 861.117 15.3129ZM860.1 20.8003H851.516L851.54 20.5138C851.58 19.9529 851.748 19.4085 852.032 18.9221C852.303 18.4564 852.667 18.0503 853.101 17.7283C853.535 17.4088 854.021 17.1652 854.537 17.0081C855.082 16.8439 855.649 16.7621 856.218 16.7653C857.507 16.7653 858.491 17.1115 859.14 17.792C859.813 18.5453 860.162 19.5311 860.112 20.5376L860.1 20.8003Z" fill="#000005"/>
</g>
<defs>
<clipPath id="clip0_235_121819">
<rect width="383.59" height="44" fill="white" transform="translate(194)"/>
</clipPath>
<clipPath id="clip1_235_121819">
<rect width="226" height="36" fill="white" transform="translate(637.59 4)"/>
</clipPath>
</defs>
</svg>
