<?xml version="1.0" standalone="no"?>
<!DOCTYPE svg PUBLIC "-//W3C//DTD SVG 20010904//EN"
 "http://www.w3.org/TR/2001/REC-SVG-20010904/DTD/svg10.dtd">
<svg version="1.0" xmlns="http://www.w3.org/2000/svg"
 width="700.000000pt" height="700.000000pt" viewBox="0 0 700.000000 700.000000"
 preserveAspectRatio="xMidYMid meet">
<metadata>
Created by potrace 1.14, written by Peter Selinger 2001-2017
</metadata>
<g transform="translate(0.000000,700.000000) scale(0.100000,-0.100000)"
fill="#000000" stroke="none">
<path d="M2296 6989 c-739 -33 -1175 -135 -1504 -352 -172 -113 -313 -254
-424 -422 -225 -339 -322 -758 -358 -1540 -13 -278 -13 -2070 0 -2350 27 -590
85 -942 205 -1245 152 -385 435 -680 808 -842 313 -136 678 -200 1302 -228
285 -13 2065 -13 2350 0 947 43 1408 185 1769 546 309 309 458 703 520 1374
32 342 38 665 33 1745 -4 1050 -9 1191 -43 1500 -81 727 -299 1162 -729 1453
-333 224 -768 326 -1550 362 -244 11 -2130 11 -2379 -1z m1295 -787 c55 -96
95 -216 109 -327 14 -111 8 -288 -30 -830 -16 -225 -32 -491 -36 -590 -19
-529 100 -1038 377 -1614 44 -91 80 -166 82 -167 5 -5 215 45 251 60 19 8 56
34 82 58 125 115 127 286 5 409 -64 63 -124 89 -208 89 -36 0 -53 4 -53 13 0
53 164 1288 180 1356 126 530 438 975 843 1201 l57 32 0 -2101 0 -2101 -487
-2 -486 -3 -28 -107 c-88 -339 -269 -630 -507 -816 -118 -92 -190 -160 -219
-206 l-25 -38 -34 51 c-19 29 -67 77 -106 109 -149 120 -208 174 -275 254
-184 218 -290 436 -357 731 l-6 27 -490 0 -490 0 0 2100 c0 1155 2 2100 5
2100 12 0 168 -98 235 -147 105 -78 283 -261 360 -370 141 -200 237 -406 291
-623 20 -80 53 -312 109 -760 44 -355 82 -658 85 -675 l5 -30 -65 3 c-80 4
-153 -26 -213 -88 -112 -114 -120 -271 -21 -384 52 -59 109 -88 229 -115 52
-12 103 -24 112 -27 13 -4 31 25 86 138 223 458 346 870 383 1278 16 181 7
530 -27 995 -17 230 -27 461 -28 610 l-1 240 34 99 c33 95 110 237 153 283
l22 23 27 -32 c15 -18 47 -66 70 -106z"/>
<path d="M2030 4223 l0 -1083 85 0 c73 0 86 3 91 18 38 116 131 240 240 318
60 43 64 48 59 78 -3 17 -30 243 -60 501 -30 259 -62 504 -70 545 -47 235
-164 480 -325 680 l-20 25 0 -1082z"/>
<path d="M4883 5193 c-121 -162 -217 -371 -257 -553 -13 -62 -136 -1065 -136
-1112 0 -8 24 -31 54 -52 106 -73 201 -193 233 -293 l17 -53 88 0 88 0 0 1080
c0 594 -3 1080 -7 1080 -5 0 -40 -44 -80 -97z"/>
<path d="M3476 3263 c-38 -123 -111 -295 -202 -477 -52 -104 -94 -190 -94
-191 0 -1 27 -12 59 -24 65 -24 154 -85 215 -149 l39 -41 71 65 c66 60 208
144 243 144 10 0 -5 37 -50 123 -83 157 -166 346 -213 483 -20 60 -40 112 -44
117 -3 4 -14 -19 -24 -50z"/>
<path d="M2030 2410 l0 -440 335 0 335 0 0 54 c0 64 14 179 36 289 9 43 14 80
12 83 -2 2 -38 10 -79 19 -115 24 -210 76 -306 170 -62 61 -90 98 -116 152
-19 40 -37 81 -40 93 -5 18 -13 20 -91 20 l-86 0 0 -440z"/>
<path d="M4790 2836 c0 -28 -81 -173 -125 -223 -84 -96 -218 -170 -350 -194
-36 -7 -65 -17 -65 -23 0 -6 9 -72 20 -146 11 -74 22 -165 26 -202 l6 -68 334
0 334 0 0 435 0 435 -90 0 c-70 0 -90 -3 -90 -14z"/>
<path d="M3002 2219 c-11 -63 -23 -144 -27 -181 l-6 -68 192 0 192 0 -6 51
c-17 145 -151 288 -288 306 l-36 5 -21 -113z"/>
<path d="M3878 2315 c-123 -46 -220 -167 -235 -295 l-6 -50 186 0 c102 0 188
3 190 8 7 13 -13 196 -31 272 -16 67 -20 75 -42 77 -14 1 -42 -4 -62 -12z"/>
<path d="M3020 1669 c0 -40 62 -205 116 -309 50 -96 144 -234 194 -285 20 -19
20 -17 20 298 l0 317 -165 0 c-161 0 -165 -1 -165 -21z"/>
<path d="M3640 1373 l1 -318 35 40 c103 118 216 320 268 479 41 125 53 116
-139 116 l-165 0 0 -317z"/>
</g>
</svg>
